<?xml version="1.0" encoding="utf-8"?>
<!-- Generator: Adobe Illustrator 18.0.0, SVG Export Plug-In . SVG Version: 6.00 Build 0)  -->
<!DOCTYPE svg PUBLIC "-//W3C//DTD SVG 1.1//EN" "http://www.w3.org/Graphics/SVG/1.1/DTD/svg11.dtd">
<svg version="1.1" id="Layer_1" xmlns="http://www.w3.org/2000/svg" xmlns:xlink="http://www.w3.org/1999/xlink" x="0px" y="0px"
	 viewBox="0 0 388.9 194.5" width="447.156109338" height="223.635544526" enable-background="new 0 0 388.9 194.5" xml:space="preserve">
<path fill="#B7202B" d="M339.8,71.8c13.1,1.3,23.5,6.1,29.7,9.2c5.4,2.7-8.6-12.4-33.3-16.7C337.4,66.8,338.6,69.3,339.8,71.8"/>
<path fill="#B7202B" d="M314.1,63.6c-58.3,4.9-81.4,54.5-116.8,54.5c-9.1,0,4.6,1.8,7.6,1.8c47.2,0,62.1-40.6,113.2-47.5L314.1,63.6
	z"/>
<path fill="#231F20" d="M284,39.1c-4.6,7.5-17.8,34.2-19.2,33.8c-1.8-0.6,1.4-6.9,1.4-6.9l27-59.2c2.6-5.8,5.2-6.8,7.5-6.8
	c2.4,0,5.1,0.9,7.7,6.3c3.3,6.6,37.5,78.8,50.9,105.3c7.9,15.5,14.2,18.3,18.8,19.4c3.3,0.9,6.5,1.1,8.7,1.1c1.3,0,2.2,0.2,2.2,1
	c0,1.1-2,1.4-4.4,1.4c-3.3,0-24.6-0.6-39.9-0.3c-4.2,0.1-10.6,0.9-10.6-0.2c0-0.7,0.7-1,1.5-1.2c1.3-0.3,8.9-3,7.6-5.8L297.1,26.6
	C294.8,21,293.8,23.2,284,39.1"/>
<path fill="#231F20" d="M336.1,81.4c-54.7,0-74.2,49.3-126.2,49.3c-36.3,0-61.5-30-61.5-62.5c0-17.7,4.3-32.6,17.1-45.6
	c6.1-6.3,15.7-13.2,39-14.1c15.4-0.5,29.6,3.1,34.1,8.2c3.3,3.8,4.9,11.1,2.6,17.9c-0.8,2.4-1.1,3.6,0.2,3.6c1.1,0,1.8-1.1,2.8-3.7
	c1.1-2.6,5.8-12.1,8.1-17.8c2.5-6.2,3.7-8.3,4.2-9.7c0.4-1,0.2-1.7-1.7-1.8c-5.6-0.1-12.5-1-18.8-2c-8.2-1.3-23.3-1.9-30.3-1.7
	c-27,0.9-46.6,8.3-58.9,19.4c-18.3,16.4-23,37.4-23,49.3c0,16.9,5,37.1,24.9,52c15.3,11.4,34.5,15.6,58.3,15.5h0
	c63.6,0,84.6-48.2,136.4-48.2c18.5,0,32.2,6.2,37.6,9.6C385.7,102.2,369.5,81.4,336.1,81.4"/>
<path fill="#231F20" d="M129.7,117.9c-12.5,7.3-26.2,12.8-43.6,12.8c-36.3,0-61.5-30-61.5-62.5c0-17.7,4.3-32.6,17.1-45.6
	c6.1-6.3,15.7-13.2,39-14.1c15.4-0.5,29.6,3.1,34.1,8.2c3.3,3.8,4.9,11.1,2.6,17.9c-0.8,2.4-1.1,3.6,0.2,3.6c1.1,0,1.8-1.1,2.8-3.7
	c1.1-2.6,5.8-12.1,8.1-17.8c2.5-6.2,3.7-8.3,4.2-9.7c0.4-1,0.2-1.7-1.7-1.8c-5.6-0.2-12.5-1-18.9-2C104,1.9,88.9,1.3,81.9,1.5
	C54.9,2.5,35.3,9.9,23,20.9C4.7,37.3,0,58.3,0,70.3c0,16.9,5,37.1,24.9,52c15.3,11.4,34.5,15.6,58.3,15.5h0c19.3-0.1,38.1-5,53-13
	C133.8,122.6,131.6,120.3,129.7,117.9"/>
<path fill="#B7202B" d="M117.9,96.6c-15.2,11.5-28.6,21.5-44.6,21.5c-9.1,0,4.6,1.8,7.6,1.8c17.1,0,29.9-5.3,41.8-12.4
	C120.8,103.9,119.2,100.3,117.9,96.6"/>
<path fill="#231F20" d="M21.6,170c0-1.9-0.1-3.7-1-4.8c-0.9-1.1-2.8-1.4-3.7-1.4c-3.5,0-4.8,2.1-5,2.6c-0.1,0.4-1,1.2-1,6.8v8.8
	c0,8.1,2.6,9,5.9,9c1.3,0,5.1-0.5,5.2-6.9h4.3c0.2,10.4-7.2,10.4-9.3,10.4c-4.1,0-10.4-0.3-10.4-13v-9.3c0-9.3,4.1-11.9,10.6-11.9
	c6.5,0,9,3.4,8.6,9.7H21.6z"/>
<path fill="#231F20" d="M31.9,181.8V171c0-6.6,3.4-10.7,10.3-10.7s10.3,4.2,10.3,10.7v10.8c0,9.1-3.4,12.7-10.3,12.7
	S31.9,190.9,31.9,181.8 M48.3,181.9v-11.1c0-6.9-4.7-7.1-6.1-7.1c-1.3,0-6.1,0.2-6.1,7.1v11.1c0,7.2,2.1,9,6.1,9
	C46.2,191,48.3,189.2,48.3,181.9"/>
<path fill="#231F20" d="M73.9,170c0-1.9-0.1-3.7-1-4.8c-0.9-1.1-2.8-1.4-3.7-1.4c-3.5,0-4.8,2.1-5,2.6c-0.1,0.4-1,1.2-1,6.8v8.8
	c0,8.1,2.6,9,5.9,9c1.3,0,5.1-0.5,5.2-6.9h4.3c0.2,10.4-7.2,10.4-9.3,10.4c-4.1,0-10.4-0.3-10.4-13v-9.3c0-9.3,4.1-11.9,10.6-11.9
	c6.5,0,9,3.4,8.6,9.7H73.9z"/>
<path fill="#231F20" d="M92.6,160.9h5.3l10.7,32.9H104l-2.4-7.8H88.9l-2.5,7.8h-4.2L92.6,160.9z M95.2,164.8L95.2,164.8l-5.2,17.5
	h10.5L95.2,164.8z"/>
<rect x="110.5" y="176.3" fill="#231F20" width="10" height="3.5"/>
<path fill="#231F20" d="M141.8,170c0-1.9-0.1-3.7-1-4.8c-0.9-1.1-2.8-1.4-3.7-1.4c-3.5,0-4.8,2.1-5,2.6c-0.1,0.4-0.9,1.2-0.9,6.8
	v8.8c0,8.1,2.6,9,5.9,9c1.3,0,5.1-0.5,5.2-6.9h4.3c0.2,10.4-7.2,10.4-9.3,10.4c-4.1,0-10.4-0.3-10.4-13v-9.3
	c0-9.3,4.1-11.9,10.6-11.9c6.5,0,9,3.4,8.6,9.7H141.8z"/>
<path fill="#231F20" d="M152,181.8V171c0-6.6,3.4-10.7,10.3-10.7c7,0,10.3,4.2,10.3,10.7v10.8c0,9.1-3.4,12.7-10.3,12.7
	C155.4,194.5,152,190.9,152,181.8 M168.4,181.9v-11.1c0-6.9-4.7-7.1-6.1-7.1c-1.3,0-6.1,0.2-6.1,7.1v11.1c0,7.2,2.1,9,6.1,9
	C166.4,191,168.4,189.2,168.4,181.9"/>
<polygon fill="#231F20" points="179.6,193.8 179.6,160.9 183.8,160.9 183.8,190.1 195.8,190.1 195.8,193.8 "/>
<path fill="#231F20" d="M209.5,160.9h5.3l10.7,32.9h-4.7l-2.4-7.8h-12.7l-2.5,7.8h-4.2L209.5,160.9z M212.1,164.8L212.1,164.8
	l-5.2,17.5h10.5L212.1,164.8z"/>
<path fill="#231F20" d="M248.4,160.9h5.3l10.7,32.9h-4.7l-2.4-7.8h-12.7l-2.5,7.8H238L248.4,160.9z M250.9,164.8L250.9,164.8
	l-5.2,17.5h10.5L250.9,164.8z"/>
<polygon fill="#231F20" points="273.2,193.8 269.3,193.8 269.3,160.9 276.1,160.9 284.4,188.5 284.5,188.5 292.9,160.9 299.8,160.9 
	299.8,193.8 295.6,193.8 295.6,164.6 295.5,164.6 286.3,193.8 282.3,193.8 273.3,164.6 273.2,164.6 "/>
<path fill="#231F20" d="M315.1,160.9h5.3l10.7,32.9h-4.7l-2.4-7.8h-12.7l-2.5,7.8h-4.2L315.1,160.9z M317.7,164.8L317.7,164.8
	l-5.2,17.5h10.5L317.7,164.8z"/>
<polygon fill="#231F20" points="351.1,160.9 351.1,164.5 342.4,164.5 342.4,193.8 338.2,193.8 338.2,164.5 329.6,164.5 329.6,160.9 
	"/>
<rect x="356.4" y="160.9" fill="#231F20" width="4.2" height="32.9"/>
<polygon fill="#231F20" points="369,193.8 369,160.9 373.2,160.9 373.2,190.1 385.2,190.1 385.2,193.8 "/>
</svg>
