<?xml version="1.0" encoding="UTF-8" standalone="no"?>
<!-- Generator: Adobe Illustrator 22.0.1, SVG Export Plug-In . SVG Version: 6.00 Build 0)  -->

<svg
   version="1.1"
   id="Layer_1"
   x="0px"
   y="0px"
   viewBox="0 0 699.91998 354.28101"
   xml:space="preserve"
   width="699.91998"
   height="354.28101"
   xmlns="http://www.w3.org/2000/svg"
   xmlns:svg="http://www.w3.org/2000/svg"><defs
   id="defs348" />
<style
   type="text/css"
   id="style274">
	.st0{fill:#E71D2A;}
</style>
<g
   id="g343"
   transform="matrix(0.99966445,0,0,0.99867722,-24.854034,-22.519734)">
	<path
   class="st0"
   d="m 598.8,69.7 z m 0,0 c -9,-4.6 -16.8,-9.8 -24,-14.7 -6.3,-4.2 -12.2,-8.2 -18.2,-11.2 -12.3,-6.3 -20.3,-9 -30.2,-7.6 -1.4,0.2 -2.8,0.6 -4.1,1 0,0 5.1,17.5 -15.3,46.9 -20.6,29.8 -39.4,29.6 -44.7,21.4 -5.6,-8.6 1.6,-26.2 13.6,-41.9 12.6,-16.4 34.7,-30 34.7,-30 0,0 -7.1,-4.3 -24.4,5.5 -16.9,9.5 -46,32.3 -73,70.7 -26.9,38.4 -32.3,59.5 -36.2,76.1 -3.9,16.7 -0.3,34.4 18.1,34.4 18.4,0 39.9,-28.1 46,-37.8 11.3,-18.2 18.6,-46.1 3.3,-42.3 -7.5,1.9 -13.7,10.3 -17.5,18.3 -2.4,5.2 -4.3,10.6 -5.6,16.2 -5.4,2.2 -10.4,5.1 -14.9,8.7 -5.1,3.8 -9.8,8 -14.2,12.5 0,0 0,-13.3 10.7,-34.9 10.7,-21.6 30,-31.3 41,-32.3 9.9,-0.8 22.8,7.6 11.9,38.7 -11,31.1 -43.2,68.8 -77.2,69.3 -31.3,0.4 -51.8,-39.5 -8.2,-109.2 48.3,-77.1 104.9,-100.7 123.3,-103.3 18.4,-2.6 24.3,5.5 24.3,5.5 11,-4.5 23,-6.5 34.9,-5.8 15.3,1 28.3,8.8 42.3,17.2 6.5,3.9 13.1,7.9 20.4,11.4 -6,5.6 -11.6,11.6 -16.8,17.2 z M 515.4,39.5 c 0,-0.1 0,-0.1 0,-0.1 0,0 -13.1,5.2 -28.4,22 -15.3,16.8 -24.2,35.7 -17.6,40.7 2.5,1.9 8.3,2.2 18.9,-7.3 9.8,-8.5 17.4,-19.1 22.4,-31 6.5,-15.6 4.9,-23.3 4.7,-24.3 z m 110,39.7 c 5.6,-6.8 11.2,-13 16.4,-18.5 20.7,2 42.2,-7.1 57.7,-17 h 0.1 c 9.2,-5.9 17.7,-12.9 25.3,-20.8 -4.3,8 -9.5,15.5 -15.6,22.3 -16.6,18.9 -48,41.1 -83.9,34 z M 638,206.6 c 3.3,-5.3 44.5,-75.2 44.5,-75.2 h -22.1 l -3.6,5.6 c 0,0 -4.5,-8.1 -12.1,-8 -13,0.3 -26.1,10.2 -41.3,27.4 -11.2,12.8 -29.7,41 -29.7,41 0,0 -14.2,21.8 -21.4,20.1 -12.3,-2.9 10.3,-48.2 10.3,-48.2 9.5,-6.2 18.5,-12.9 27.1,-20.3 8.8,-7.4 18.8,-17.4 28.2,-26.9 0.9,-0.9 1.8,-1.8 2.7,-2.7 11,-11.4 21.2,-23.4 30.6,-36.2 -2.7,0.4 -5.5,0.7 -8.2,0.8 -8.6,11.2 -17.8,22 -27.7,32.1 -10.3,10.8 -21.2,20.9 -32.6,30.4 -4.2,3.5 -8.6,6.6 -13.2,9.4 11.9,-23.2 25.6,-45.5 41,-66.5 25.7,-34.9 61.6,-67.3 58.8,-51.9 -1.7,6.4 -4.3,12.6 -7.7,18.3 2.9,-0.6 5.7,-1.3 8.5,-2.2 6.2,-12.8 8.3,-23.3 3.7,-26.3 C 655,14.9 607,66.1 583,95.9 c -24,29.8 -45.7,75.3 -45.7,75.3 -2.6,1 -5.2,1.8 -7.9,2.4 -1.3,0.4 -2.7,0.5 -4.1,0.2 -0.2,-0.1 -0.2,-0.2 -0.2,-0.2 0,0 21.1,-39.5 -0.5,-44.7 -20.9,-5.1 -57,33.5 -69.9,60.3 -8.8,18.5 -13.8,41.6 1.3,47.2 16.4,6 44.2,-23.9 50.7,-32.6 5.3,-7.4 10.2,-15.2 14.7,-23.1 0,0 4,-0.2 6.2,-0.5 4.2,-0.6 6.2,-1.1 6.2,-1.1 0,0 -2.7,7.1 -5.6,16.1 -5.5,16.8 -10.4,40.7 9.2,41.9 12.5,0.7 30.9,-21.9 30.9,-21.9 0,0 -5,20.1 11.3,21.9 12,1.3 29.5,-17.2 29.5,-17.2 0,0 -3.8,16 8.3,17.4 10.4,1.2 25.2,-11 37.3,-24.4 8.6,-9.7 16.4,-19.9 23.4,-30.8 h -7.7 c 0,0 -17,25.9 -29,32.8 -9.7,5.6 -6.3,-3.5 -3.4,-8.3 z m 13.9,-61.9 c -4,7 -24.3,41.6 -32.4,52.6 -0.6,0.8 -1.1,1.6 -1.7,2.4 v 0 c -2.2,3.1 -4.1,5.8 -5.9,7.9 -4.7,5.4 -7.8,8 -10.5,8.6 -1.4,0.4 -2.9,0.2 -4.2,-0.4 -4,-2.5 -1.2,-12 5.8,-24.8 7.1,-13.3 15.8,-25.7 26,-36.9 12.2,-13.5 16.9,-14.2 20.3,-14 0.8,0.1 1.6,0.4 2.2,1 0.6,0.6 1,1.3 1.1,2.1 -0.2,0.5 -0.4,1 -0.7,1.5 z m -126.8,14.7 c -1.7,4.1 -3.6,8.1 -5.9,11.9 -0.7,1.1 -1.2,1.2 -2.6,0.8 -2.5,-0.7 -13.1,-5.7 -12.9,-16.3 0.1,-10.5 14.8,-20.8 20.6,-16.4 5.4,4.2 2.8,14.7 0.8,20 z M 514.3,180 c -3.5,6.2 -7.4,12.2 -11.8,17.9 -6.4,8.1 -18.1,20.4 -25.1,17.8 -10.9,-4.1 1.1,-27.9 9,-39.5 7.9,-11.5 8.8,-12.4 9,-12.7 v 0 c 0,0 0.1,-0.1 0.1,-0.1 0.2,-0.2 0.4,-0.4 0.5,-0.1 2,3.5 4.6,6.7 7.6,9.2 3.1,2.6 6.5,4.8 10.1,6.5 0.6,0.1 0.9,0.3 0.6,1 z M 377.7,97.3 h -21 l 11.9,-19.2 h 21 z M 311.2,161 c -9.4,5.2 -6,-4.1 -3.5,-8.2 3.3,-5.2 44.9,-74.9 44.9,-74.9 H 330.5 L 328,82 c 0,0 -4.5,-7 -12.2,-6.5 -22.1,1.4 -48.5,36.7 -60.1,52.2 -11.6,15.6 -36.6,45.3 -49.7,39.9 -14.3,-5.8 0,-32.3 9.3,-47.9 10.3,-16.9 28.5,-33.7 35.7,-33.8 8.9,-0.2 5.4,7.9 5.4,7.9 -2.2,-0.1 -4.4,0.3 -6.4,1.2 -2,0.9 -3.7,2.3 -5.1,4 -3.4,4.3 -6.2,10.5 -3,13.9 5.2,5.5 12,-0.1 16.1,-6.3 12.7,-19.3 3.4,-29.5 -6.5,-31 -15,-2.3 -29.3,10.9 -41.6,22.3 -4.9,4.6 -9.6,8.9 -13.8,11.7 -10.3,7 -14.6,6.5 -14.6,6.5 0,0 17.7,-35 -3.7,-40.5 -21.4,-5.5 -56.8,30.8 -71.8,60.4 -9.2,18.3 -13.3,41.2 3.1,47.2 16.4,5.9 44.2,-23.9 50.8,-32.6 6.5,-8.7 17.2,-26.1 17.2,-26.1 0,0 3.3,-0.6 5.4,-1.1 2.2,-0.5 5.6,-1.5 5.6,-1.5 0,0 -4,7.2 -7.7,14.5 -4.3,8.7 -16,37.8 6.6,46.5 18.4,7.1 43.4,-17 51.5,-24.7 1.4,-1.4 2.3,-2.2 2.6,-2.3 0,0 -9.2,23.6 5,27.3 15.7,4 32.8,-16 32.8,-16 0,0 -3.6,15 8.6,16.4 21.8,2.5 60.3,-53.2 60.3,-53.2 h -7.6 c 0.1,0.2 -19.6,25.4 -29,30.6 z m -21,-16.5 c -2.9,4 -5.4,7.4 -7.6,9.9 -4.7,5.4 -8.1,8 -10.7,8.7 -1.4,0.4 -2.9,0.2 -4.2,-0.4 -4,-2.4 -1,-11.5 6,-24.2 6.4,-11.7 14.9,-23 26.3,-37.1 11.4,-14.1 17.1,-15.3 20.5,-15.1 0.8,0.1 1.6,0.4 2.2,1 0.6,0.6 1,1.3 1.1,2.1 -0.1,-0.1 -24.7,42.8 -33.6,55.1 z m -112.7,-58 c 5.4,4.1 2.8,14.6 0.8,19.9 -1.3,3.2 -2.7,6.4 -4.2,9.5 -0.2,0.3 -0.5,0.6 -0.9,0.8 -0.4,0.2 -0.8,0.2 -1.2,0.1 -1.7,-0.1 -15.2,-3.4 -15.1,-13.9 C 157,92.3 171.7,82 177.5,86.5 Z m -8.8,36.9 c 0.4,0.1 0.7,0.3 0.4,1 -4.1,6.9 -8.5,13.5 -13.3,19.8 -6.4,8.1 -18.2,20.5 -25.2,17.9 -11,-4.1 0.7,-27.8 8.6,-39.4 7.9,-11.6 9.1,-13.1 9.3,-13.4 0,0 0.1,-0.1 0.1,-0.1 0.2,-0.2 0.4,-0.4 0.6,-0.1 1.9,3.7 4.7,6.8 8.2,9 3.5,2.3 7.3,4.1 11.3,5.3 z m 159.5,118.7 c -5.6,-8.1 -21.4,-19.8 -34.5,-28 -15.2,-9.1 -32.6,-13.9 -50.3,-13.8 -27.8,-0.2 -56.9,7 -83.7,13.7 -22.3,5.6 -43,10.7 -60.1,10.9 -44.2,0.4 -46.4,-33.7 -43.1,-52.4 7.1,-40.3 35.7,-78.6 54,-98.9 18.4,-20.3 37.9,-36 53.8,-40 16,-4 14.6,8.2 12.5,9.8 -2.9,0 -5.7,0.7 -8.2,2.1 -2.4,1.5 -4.4,3.4 -5.8,5.8 -1.5,2.4 -2.3,5.1 -2.5,7.8 -0.5,10.6 13.2,12.5 23.2,-9.8 6.8,-15.2 -4,-25.5 -12.9,-26.5 -12.3,-1.4 -31,2.9 -53.3,17.2 -39,25 -90.9,80.3 -92.3,141.9 -0.8,35.1 22.1,54.9 53.6,54.9 15.6,0 33.1,-4.3 51.7,-9 20.5,-5.1 42.3,-10.5 64.1,-10.7 25.8,-0.2 42.5,8.8 51,23.6 3,-4.4 7.1,-8.1 11.8,-10.6 4.7,-2.6 10,-4 15.3,-4.1 19.9,-0.9 39.4,4.8 55.7,16.1 z"
   id="path276" />
	<g
   id="Text_Block">
		<g
   id="g340">
			<g
   id="g314">
				<path
   class="st0"
   d="m 86.5,259.8 -1,4.7 H 61.6 V 276 H 78 v 4.8 H 61.6 v 13.1 H 86 l 1,4.7 H 56.2 v -38.8 z"
   id="path278" />
				<path
   class="st0"
   d="m 96,292.4 c -1.4,-2.2 -2.1,-4.9 -2.1,-7.8 v -24.7 h 5.4 V 284 c 0,3.3 1,5.8 3,7.7 2,1.9 4.8,2.8 8.2,2.8 3.4,0 6.2,-0.9 8.2,-2.8 2,-1.9 3,-4.4 3,-7.7 v -24.1 h 5.4 v 24.7 c 0,3 -0.7,5.6 -2,7.9 -1.4,2.2 -3.3,3.9 -5.8,5.1 -2.5,1.2 -5.4,1.8 -8.7,1.8 -3.3,0 -6.2,-0.6 -8.7,-1.8 -2.6,-1.3 -4.5,-3 -5.9,-5.2 z"
   id="path280" />
				<path
   class="st0"
   d="m 164.1,261.3 c 1.8,1 3.2,2.3 4.2,4 1,1.7 1.5,3.6 1.5,5.7 0,2.7 -0.8,5.1 -2.5,7.1 -1.7,2 -3.9,3.3 -6.7,3.8 l 11.5,16.7 h -6.4 l -11.1,-16.4 h -11.8 v 16.4 h -5.3 v -38.8 h 20.3 c 2.4,0 4.5,0.5 6.3,1.5 z m -1.7,14.4 c 1.3,-1.2 2,-2.7 2,-4.6 0,-1.9 -0.6,-3.5 -1.9,-4.7 -1.3,-1.2 -3.1,-1.8 -5.4,-1.8 h -14.2 v 12.8 H 157 c 2.3,0.1 4,-0.5 5.4,-1.7 z"
   id="path282" />
				<path
   class="st0"
   d="m 179.1,289.6 c -1.7,-3.1 -2.6,-6.5 -2.6,-10.3 0,-3.8 0.9,-7.3 2.6,-10.3 1.7,-3.1 4.2,-5.4 7.2,-7.2 3.1,-1.7 6.6,-2.6 10.5,-2.6 3.9,0 7.4,0.9 10.5,2.6 3.1,1.7 5.5,4.1 7.2,7.2 1.7,3.1 2.6,6.5 2.6,10.3 0,3.8 -0.9,7.3 -2.6,10.3 -1.7,3.1 -4.2,5.4 -7.2,7.2 -3.1,1.7 -6.6,2.6 -10.5,2.6 -3.9,0 -7.4,-0.9 -10.5,-2.6 -3,-1.8 -5.4,-4.2 -7.2,-7.2 z m 10.1,2.9 c 2.2,1.3 4.8,1.9 7.6,1.9 2.8,0 5.4,-0.6 7.6,-1.9 2.2,-1.3 4,-3.1 5.3,-5.4 1.3,-2.3 1.9,-4.9 1.9,-7.8 0,-2.9 -0.6,-5.5 -1.9,-7.8 -1.3,-2.3 -3,-4.1 -5.3,-5.4 -2.3,-1.3 -4.8,-1.9 -7.6,-1.9 -2.8,0 -5.4,0.6 -7.6,1.9 -2.2,1.3 -4,3.1 -5.3,5.4 -1.3,2.3 -1.9,4.9 -1.9,7.8 0,2.9 0.6,5.5 1.9,7.8 1.3,2.3 3.1,4.1 5.3,5.4 z"
   id="path284" />
				<path
   class="st0"
   d="m 251.7,261.3 c 1.9,1 3.4,2.4 4.4,4.1 1,1.7 1.5,3.7 1.5,6 0,2.3 -0.5,4.2 -1.5,6 -1,1.8 -2.5,3.1 -4.4,4.1 -2,1 -4.3,1.5 -7,1.5 h -13.5 v 15.7 h -5.4 v -38.8 h 18.9 c 2.7,-0.1 5,0.4 7,1.4 z m -1.6,15 c 1.3,-1.2 2,-2.9 2,-5 0,-2.1 -0.7,-3.7 -2,-4.9 -1.3,-1.2 -3.2,-1.8 -5.7,-1.8 H 231 v 13.5 h 13.4 c 2.5,0.1 4.4,-0.5 5.7,-1.8 z"
   id="path286" />
				<path
   class="st0"
   d="m 280,259.8 16.2,38.8 h -5.8 l -4.1,-10.3 H 267 l -4.2,10.3 h -5.7 l 16.3,-38.8 z m -3.3,4.6 -7.8,19.2 h 15.6 z"
   id="path288" />
				<path
   class="st0"
   d="m 301.7,289.5 c -1.9,-3.1 -2.8,-6.5 -2.8,-10.3 0,-3.8 0.9,-7.2 2.8,-10.3 1.8,-3.1 4.4,-5.5 7.6,-7.2 3.2,-1.7 6.8,-2.6 10.8,-2.6 2.9,0 5.7,0.5 8.3,1.4 2.6,1 4.7,2.3 6.3,4.1 l -3.4,3.8 c -1.5,-1.4 -3.2,-2.5 -5.1,-3.3 -1.9,-0.7 -3.9,-1.1 -6.1,-1.1 -2.8,0 -5.5,0.7 -7.8,2 -2.3,1.3 -4.3,3.2 -5.7,5.5 -1.4,2.3 -2.1,4.9 -2.1,7.7 0,2.9 0.7,5.5 2.1,7.8 1.4,2.3 3.3,4.1 5.7,5.4 2.4,1.3 5.1,2 8.1,2 2.1,0 4.2,-0.4 6.1,-1.1 2,-0.7 3.6,-1.8 5,-3.2 l 3.5,3.7 c -1.7,1.8 -3.8,3.2 -6.4,4.1 -2.6,0.9 -5.3,1.3 -8.2,1.3 -4.1,0 -7.7,-0.9 -11,-2.6 -3.3,-1.6 -5.9,-4 -7.7,-7.1 z"
   id="path290" />
				<path
   class="st0"
   d="m 347.7,298.6 h -5.4 v -38.8 h 5.4 z"
   id="path292" />
				<path
   class="st0"
   d="m 387.7,259.8 v 4.8 h -23.9 v 11.6 h 16.6 v 4.8 h -16.6 v 17.6 h -5.4 v -38.8 z"
   id="path294" />
				<path
   class="st0"
   d="m 400.5,298.6 h -5.4 v -38.8 h 5.4 z"
   id="path296" />
				<path
   class="st0"
   d="m 411.6,289.5 c -1.8,-3.1 -2.8,-6.5 -2.8,-10.3 0,-3.8 0.9,-7.2 2.8,-10.3 1.9,-3.1 4.4,-5.5 7.6,-7.2 3.2,-1.7 6.8,-2.6 10.8,-2.6 2.9,0 5.7,0.5 8.3,1.4 2.6,1 4.7,2.3 6.3,4.1 l -3.4,3.8 c -1.5,-1.4 -3.2,-2.5 -5.1,-3.3 -1.9,-0.8 -3.9,-1.1 -6.1,-1.1 -2.8,0 -5.5,0.7 -7.8,2 -2.3,1.3 -4.3,3.2 -5.7,5.5 -1.4,2.3 -2.1,4.9 -2.1,7.7 0,2.9 0.7,5.5 2.1,7.8 1.4,2.3 3.3,4.1 5.7,5.4 2.4,1.3 5.1,2 8.1,2 2.1,0 4.2,-0.4 6.1,-1.1 2,-0.7 3.6,-1.8 5,-3.2 l 3.5,3.7 c -1.7,1.8 -3.8,3.2 -6.4,4.1 -2.6,0.9 -5.3,1.3 -8.2,1.3 -4.1,0 -7.7,-0.9 -11,-2.6 -3.2,-1.6 -5.8,-4 -7.7,-7.1 z"
   id="path298" />
				<path
   class="st0"
   d="m 485.5,259.8 16.2,38.8 h -5.8 l -4.1,-10.3 h -19.3 l -4.2,10.3 h -5.7 l 16.3,-38.8 z m -3.4,4.6 -7.8,19.2 h 15.6 z"
   id="path300" />
				<path
   class="st0"
   d="m 533,261.2 c 1.8,0.9 3.1,2.1 4,3.6 0.9,1.5 1.4,3.2 1.4,5.1 0,1.7 -0.4,3.2 -1.2,4.6 -0.8,1.4 -2,2.6 -3.6,3.4 2.7,0.7 4.7,1.9 6,3.7 1.3,1.8 1.9,3.8 1.9,6.1 0,2.1 -0.5,3.9 -1.5,5.6 -1,1.6 -2.5,2.9 -4.5,3.9 -2,0.9 -4.3,1.4 -7.1,1.4 H 508 v -38.8 h 18.7 c 2.5,0 4.6,0.5 6.3,1.4 z m -1.5,13.6 c 1.1,-1.2 1.6,-2.6 1.6,-4.3 0,-1.8 -0.6,-3.2 -1.8,-4.3 -1.2,-1.1 -2.9,-1.6 -5.2,-1.6 h -12.7 v 12.1 h 13 c 2.3,-0.2 4,-0.7 5.1,-1.9 z m 2.4,17.5 c 1.4,-1.2 2.1,-2.8 2.1,-4.8 0,-1.9 -0.7,-3.5 -2,-4.6 -1.3,-1.1 -3.2,-1.7 -5.5,-1.7 H 513.4 V 294 H 528 c 2.5,0 4.5,-0.6 5.9,-1.7 z"
   id="path302" />
				<path
   class="st0"
   d="m 550,289.6 c -1.7,-3.1 -2.6,-6.5 -2.6,-10.3 0,-3.8 0.9,-7.3 2.6,-10.3 1.7,-3.1 4.2,-5.4 7.2,-7.2 3.1,-1.7 6.6,-2.6 10.5,-2.6 3.9,0 7.4,0.9 10.5,2.6 3.1,1.7 5.5,4.1 7.2,7.2 1.7,3.1 2.6,6.5 2.6,10.3 0,3.8 -0.9,7.3 -2.6,10.3 -1.7,3.1 -4.2,5.4 -7.2,7.2 -3.1,1.7 -6.6,2.6 -10.5,2.6 -3.9,0 -7.4,-0.9 -10.5,-2.6 -3,-1.8 -5.4,-4.2 -7.2,-7.2 z m 10.2,2.9 c 2.2,1.3 4.8,1.9 7.6,1.9 2.8,0 5.4,-0.6 7.6,-1.9 2.2,-1.3 4,-3.1 5.3,-5.4 1.3,-2.3 1.9,-4.9 1.9,-7.8 0,-2.9 -0.6,-5.5 -1.9,-7.8 -1.3,-2.3 -3,-4.1 -5.3,-5.4 -2.2,-1.3 -4.8,-1.9 -7.6,-1.9 -2.8,0 -5.4,0.6 -7.6,1.9 -2.2,1.3 -4,3.1 -5.3,5.4 -1.3,2.3 -1.9,4.9 -1.9,7.8 0,2.9 0.6,5.5 1.9,7.8 1.3,2.3 3,4.1 5.3,5.4 z"
   id="path304" />
				<path
   class="st0"
   d="m 602,298.6 h -5.4 v -38.8 h 5.4 z"
   id="path306" />
				<path
   class="st0"
   d="m 628.1,264.7 v 33.9 h -5.4 V 264.7 H 609 v -4.8 h 32.8 v 4.8 z"
   id="path308" />
				<path
   class="st0"
   d="m 654.3,298.6 h -5.4 v -38.8 h 5.4 z"
   id="path310" />
				<path
   class="st0"
   d="M 686.1,264.5 H 663 v -4.6 h 29.8 v 4.2 l -24.2,30 h 25.2 v 4.6 h -31.9 v -4.1 z"
   id="path312" />
			</g>
			<g
   id="g338">
				<path
   class="st0"
   d="m 105.8,314.4 c 3.4,1.8 6,4.2 7.7,7.3 1.7,3.1 2.6,6.6 2.6,10.5 0,3.9 -0.9,7.4 -2.6,10.5 -1.7,3.1 -4.3,5.6 -7.7,7.4 -3.4,1.8 -7.6,2.7 -12.5,2.7 H 74.1 v 23.7 H 60 v -64.8 h 33.3 c 4.9,0.1 9.1,0.9 12.5,2.7 z m -6.3,23.9 c 1.6,-1.4 2.3,-3.4 2.3,-6 0,-2.6 -0.8,-4.6 -2.3,-5.9 -1.6,-1.4 -3.7,-2.1 -6.6,-2.1 H 74.1 v 16.1 h 18.8 c 2.9,0 5,-0.7 6.6,-2.1 z"
   id="path316" />
				<path
   class="st0"
   d="m 142,347.8 v 28.7 H 127.9 V 311.7 H 142 v 23.5 h 33.1 v -23.5 h 14.1 v 64.8 h -14.1 v -28.7 z"
   id="path318" />
				<path
   class="st0"
   d="m 219.9,376.5 h -14.1 v -64.8 h 14.1 z"
   id="path320" />
				<path
   class="st0"
   d="M 250.6,311.8 V 364 H 287 v 12.6 h -50.6 v -64.8 z"
   id="path322" />
				<path
   class="st0"
   d="m 312.3,376.5 h -14.1 v -64.8 h 14.1 z"
   id="path324" />
				<path
   class="st0"
   d="m 374.6,314.4 c 3.4,1.8 6,4.2 7.7,7.3 1.7,3.1 2.6,6.6 2.6,10.5 0,3.9 -0.9,7.4 -2.6,10.5 -1.7,3.1 -4.3,5.6 -7.7,7.4 -3.4,1.8 -7.6,2.7 -12.5,2.7 H 343 v 23.7 h -14.1 v -64.8 h 33.3 c 4.9,0.1 9,0.9 12.4,2.7 z m -6.3,23.9 c 1.6,-1.4 2.3,-3.4 2.3,-6 0,-2.6 -0.8,-4.6 -2.3,-5.9 -1.6,-1.4 -3.7,-2.1 -6.6,-2.1 H 343 v 16.1 h 18.8 c 2.8,0 5,-0.7 6.5,-2.1 z"
   id="path326" />
				<path
   class="st0"
   d="m 442.5,314.4 c 3.4,1.8 6,4.2 7.7,7.3 1.7,3.1 2.6,6.6 2.6,10.5 0,3.9 -0.9,7.4 -2.6,10.5 -1.7,3.1 -4.3,5.6 -7.7,7.4 -3.4,1.8 -7.6,2.7 -12.5,2.7 h -19.2 v 23.7 H 396.7 V 311.7 H 430 c 4.9,0.1 9.1,0.9 12.5,2.7 z m -6.3,23.9 c 1.6,-1.4 2.3,-3.4 2.3,-6 0,-2.6 -0.8,-4.6 -2.3,-5.9 -1.6,-1.4 -3.7,-2.1 -6.6,-2.1 h -18.8 v 16.1 h 18.8 c 2.8,0 5,-0.7 6.6,-2.1 z"
   id="path328" />
				<path
   class="st0"
   d="m 478.7,376.5 h -14.1 v -64.8 h 14.1 z"
   id="path330" />
				<path
   class="st0"
   d="m 509,376.5 h -13.8 v -64.8 h 14.7 l 31,43.9 v -43.9 h 13.8 v 64.8 H 540.5 L 509,331.9 Z"
   id="path332" />
				<path
   class="st0"
   d="m 624.6,311.8 -1.8,12.3 h -37.4 v 12.8 h 25.8 v 12.4 h -25.8 v 14.9 h 38.3 l 1.8,12.3 h -54.3 v -64.8 h 53.4 z"
   id="path334" />
				<path
   class="st0"
   d="m 632.1,367.5 8.7,-10.6 c 6.1,5.4 13.3,8.1 21.7,8.1 3.8,0 6.9,-0.7 9.3,-2.2 2.3,-1.4 3.5,-3.2 3.5,-5.3 0,-1.6 -0.7,-2.9 -2.1,-4 -1.4,-1.1 -3.7,-1.9 -7,-2.6 l -13.8,-2.6 c -6,-1.1 -10.5,-3.2 -13.5,-6.3 -3,-3 -4.5,-6.8 -4.5,-11.3 0,-4.1 1.2,-7.6 3.6,-10.7 2.4,-3 5.7,-5.4 9.9,-7 4.2,-1.6 9,-2.4 14.4,-2.4 5,0 9.9,0.7 14.5,2.2 4.6,1.4 8.6,3.7 12,6.7 l -8.1,10.3 c -5.7,-4.6 -12,-6.9 -18.8,-6.9 -3.7,0 -6.7,0.6 -9.1,1.9 -2.4,1.3 -3.6,2.8 -3.6,4.8 0,1.3 0.6,2.4 1.8,3.3 1.2,1 3.6,1.8 7.1,2.4 l 12.8,2.3 c 6.4,1.2 11.1,3.5 14.4,6.8 3.2,3.3 4.8,7.3 4.8,11.9 0,4.1 -1.1,7.8 -3.3,11 -2.2,3.2 -5.4,5.6 -9.4,7.4 -4,1.7 -8.7,2.6 -14.1,2.6 -6.4,0 -12.4,-0.9 -17.9,-2.7 -5.5,-1.8 -10,-4 -13.3,-7.1 z"
   id="path336" />
			</g>
		</g>
	</g>
</g>
</svg>
