<?xml version="1.0" encoding="UTF-8" standalone="no"?>
<svg
   xmlns:dc="http://purl.org/dc/elements/1.1/"
   xmlns:cc="http://creativecommons.org/ns#"
   xmlns:rdf="http://www.w3.org/1999/02/22-rdf-syntax-ns#"
   xmlns:svg="http://www.w3.org/2000/svg"
   xmlns="http://www.w3.org/2000/svg"
   xmlns:sodipodi="http://sodipodi.sourceforge.net/DTD/sodipodi-0.dtd"
   xmlns:inkscape="http://www.inkscape.org/namespaces/inkscape"
   width="600.00171"
   height="131.084"
   viewBox="0 0 480.00137 104.8672"
   version="1.1"
   id="svg2"
   inkscape:version="0.47 r22583"
   sodipodi:docname="Ferrovial_Logo_Positivo.svg">
  <metadata
     id="metadata30">
    <rdf:RDF>
      <cc:Work
         rdf:about="">
        <dc:format>image/svg+xml</dc:format>
        <dc:type
           rdf:resource="http://purl.org/dc/dcmitype/StillImage" />
      </cc:Work>
    </rdf:RDF>
  </metadata>
  <defs
     id="defs28">
    <inkscape:perspective
       sodipodi:type="inkscape:persp3d"
       inkscape:vp_x="0 : 371.25 : 1"
       inkscape:vp_y="0 : 1000 : 0"
       inkscape:vp_z="3060 : 371.25 : 1"
       inkscape:persp3d-origin="1530 : 247.5 : 1"
       id="perspective32" />
  </defs>
  <sodipodi:namedview
     pagecolor="#ffffff"
     bordercolor="#666666"
     borderopacity="1"
     objecttolerance="10"
     gridtolerance="10"
     guidetolerance="10"
     inkscape:pageopacity="0"
     inkscape:pageshadow="2"
     inkscape:window-width="1680"
     inkscape:window-height="988"
     id="namedview26"
     showgrid="false"
     inkscape:zoom="0.2622932"
     inkscape:cx="-234.72794"
     inkscape:cy="88.919645"
     inkscape:window-x="-8"
     inkscape:window-y="-8"
     inkscape:window-maximized="1"
     inkscape:current-layer="svg2" />
  <g
     id="color-ffffffff"
     transform="translate(-981.54874,-251.24101)" />
  <g
     id="color_ebb701ff"
     transform="matrix(0.19947133,0,0,0.19947133,-3.6633932,-8.1407808)">
    <path
       d="m 149.11,49.35 c 22.95,-8.4 47.75,-9.08 71.9,-8.29 10.66,0.27 21.35,0.77 31.87,2.55 5.34,0.98 10.79,2.19 15.51,4.98 4.25,2.52 7.18,7.39 6.77,12.4 -0.74,9.33 -1.27,18.67 -2.06,27.99 -0.63,5.29 -0.89,10.86 -3.46,15.64 -1.43,2.73 -4.51,4.29 -7.54,4.27 -18.54,0.2 -37.18,-2.9 -55.66,-0.25 -13.63,1.94 -27.17,8.11 -35.67,19.25 -10.8,13.85 -13.91,31.94 -14.66,49.06 -0.47,14.41 -0.12,28.84 -0.22,43.26 25.06,0.02 50.11,-0.01 75.17,0.01 5.47,0.09 11.49,1.12 15.46,5.23 3.71,3.83 4.47,9.47 4.58,14.58 0.02,9.65 0.02,19.29 0,28.94 -0.04,5.09 -1.06,10.62 -4.89,14.29 -4.28,4.14 -10.54,5.05 -16.25,5.13 -24.69,0.02 -49.38,-0.02 -74.06,0.01 -0.03,84.21 0.01,168.41 -0.03,252.61 -0.03,5.68 -1.56,12.02 -6.41,15.51 -4.44,3.23 -10.19,3.5 -15.49,3.37 -13.97,-0.03 -27.95,0 -41.93,-0.01 -5.24,0.02 -11,-1.24 -14.56,-5.38 -3.44,-3.95 -4.23,-9.43 -4.27,-14.49 0,-83.86 -0.02,-167.73 0.01,-251.6 -11.4,-0.05 -22.81,0.01 -34.22,-0.02 -5.24,-0.07 -10.98,-0.7 -15.07,-4.34 -4.21,-3.71 -5.42,-9.61 -5.53,-14.98 -0.06,-9.69 0,-19.39 -0.03,-29.09 -0.09,-5.21 1.16,-10.82 5,-14.58 3.77,-3.81 9.32,-5.14 14.53,-5.18 11.77,-0.02 23.54,0.01 35.32,-0.01 -0.37,-31.57 -0.04,-63.69 8.79,-94.27 5.06,-17.67 13.05,-34.8 25.31,-48.65 C 118.48,64.51 133.15,55 149.11,49.35 z"
       id="path6"
       style="fill:#ebb701" />
    <path
       d="m 2332.24,41.32 c 4.12,-0.54 9.26,-1.3 12.55,1.89 2.67,3.3 2.29,7.88 2.5,11.88 0.03,128.32 -0.01,256.64 0.02,384.96 0.26,11.41 0.55,22.94 3.27,34.09 1.83,7.49 5.27,14.95 11.43,19.87 7.02,5.57 16.27,7.15 25.02,7.27 8.37,0.37 16.75,-1.36 25.11,-0.39 4.57,0.47 7.02,5 7.67,9.11 1.61,10.12 2.94,20.29 4.38,30.45 0.62,4.15 1.19,8.75 -1.18,12.5 -3.62,5.9 -10.54,8.51 -16.91,10.22 -13.75,3.39 -28.04,3.44 -42.11,3.27 -18.78,-0.63 -38.03,-3.66 -54.7,-12.79 -12.47,-6.68 -22.74,-17.18 -29.47,-29.59 -8.14,-14.76 -11.8,-31.51 -13.87,-48.1 -2.71,-22.54 -2.1,-45.28 -2.16,-67.93 -0.01,-109.68 0.01,-219.36 -0.01,-329.05 0.02,-5.31 0.12,-11.15 3.55,-15.55 3.78,-4.73 9.76,-6.85 15.36,-8.59 16.45,-4.73 32.8,-9.93 49.55,-13.52 z"
       id="path8"
       style="fill:#ebb701" />
    <path
       d="m 1770.52,75.78 c 19.3,-3.17 39.57,6.31 50.2,22.56 8.64,12.67 10.36,29.67 4.43,43.81 -7.38,18.32 -26.34,31.4 -46.16,31.27 -14.68,0.28 -29.54,-6.01 -38.86,-17.49 -13.17,-15.8 -14.46,-39.7 -4.76,-57.54 7,-12.84 20.83,-20.92 35.15,-22.61 z"
       id="path10"
       style="fill:#ebb701" />
    <path
       d="m 319.22,237.24 c 27.82,-18.31 61.95,-24.24 94.77,-23.58 29.69,0.4 60.42,6.13 85.47,22.9 14.91,9.9 27.07,23.69 35.6,39.39 9.64,17.62 15.06,37.25 18.01,57.03 2.68,18.87 3.62,38.02 2.57,57.05 -0.76,8.96 -1.95,18.6 -7.74,25.85 -4.75,5.88 -12.63,7.86 -19.89,7.86 -62.37,0.02 -124.74,-0.01 -187.11,0.02 0.29,17.39 2.1,36.02 12.81,50.43 9.94,13.55 26.39,20.29 42.43,23.33 21.4,3.96 43.37,3.57 64.96,1.64 15.14,-1.54 30.11,-4.68 44.6,-9.34 5.38,-1.54 10.7,-3.78 16.36,-3.94 3.96,0.77 6.43,4.4 8.62,7.48 5.43,8.54 9.05,18.12 11.94,27.78 1.42,4.91 2.97,10.66 -0.17,15.26 -4.75,7.23 -12.92,11.12 -20.59,14.49 -19.05,7.69 -39.45,11.36 -59.76,13.76 -24.54,2.8 -49.4,2.3 -73.93,-0.38 -20.91,-2.52 -41.84,-7.2 -60.86,-16.48 -13.85,-6.67 -26.51,-15.95 -36.58,-27.61 -11.17,-12.8 -19.04,-28.23 -24.28,-44.33 -7,-21.59 -9.76,-44.31 -10.74,-66.9 -1.43,-35.94 0.78,-72.8 13.47,-106.78 9.59,-26.02 26.58,-49.77 50.04,-64.93 m 74.88,44.26 c -15.22,2.14 -30.16,9.72 -38.84,22.74 -11.87,17.53 -14.09,39.47 -14.24,60.1 44.34,0.01 88.67,0.04 133,-0.01 0.19,-13.55 -0.12,-27.31 -3.89,-40.43 -3.75,-13.88 -11.84,-27.09 -24.33,-34.67 -15.33,-9.46 -34.31,-10.2 -51.7,-7.73 z"
       id="path12"
       style="fill:#ebb701" />
    <path
       d="m 704.9,218.26 c 24.01,-5 48.74,-5.57 73.13,-3.69 7.69,0.9 15.81,1.7 22.55,5.86 3.53,2.13 5.58,6.38 4.79,10.47 -1.6,12.45 -4.25,24.72 -6.25,37.11 -0.94,5.04 -2.45,11.06 -7.51,13.47 -5.35,2.15 -11.21,0.4 -16.73,0.01 -27.68,-3.47 -57.06,0.36 -81.28,14.84 -0.06,81.22 0,162.44 -0.03,243.67 -0.07,5.23 -0.93,10.93 -4.64,14.9 -3.55,3.73 -8.91,4.97 -13.89,4.97 -15.35,0.01 -30.71,0.02 -46.06,0 -5.19,-0.04 -10.91,-1.35 -14.32,-5.57 -3.41,-4.29 -3.77,-10.03 -3.86,-15.28 -0.02,-92.62 0.01,-185.25 -0.02,-277.87 27.27,-21.66 60.13,-35.82 94.12,-42.89 z"
       id="path14"
       style="fill:#ebb701" />
    <path
       d="m 927.88,219.61 c 18.38,-4.27 37.27,-6.28 56.14,-5.97 11.65,0.11 23.42,0.3 34.88,2.67 5.03,1.18 10.5,2.75 13.9,6.91 2.11,2.62 2.01,6.15 1.57,9.3 -1.65,11.32 -3.93,22.55 -5.79,33.84 -0.8,4.42 -1.63,9.16 -4.61,12.7 -2.17,2.6 -5.66,3.62 -8.95,3.44 -7.37,-0.28 -14.65,-1.7 -22.02,-1.97 -24.2,-1.38 -49.2,3.27 -70.19,15.74 -0.06,80.92 0.01,161.84 -0.03,242.76 -0.06,5.36 -0.68,11.2 -4.29,15.45 -3.52,4.11 -9.24,5.39 -14.43,5.4 -15.4,-0.01 -30.8,0.03 -46.19,-0.02 -5.59,-0.03 -11.86,-1.79 -14.94,-6.84 -3.45,-5.7 -2.9,-12.63 -2.96,-19.01 0.05,-90.98 -0.07,-181.95 0.06,-272.92 25.57,-20.35 56.15,-33.97 87.85,-41.48 z"
       id="path16"
       style="fill:#ebb701" />
    <path
       d="m 1178.43,214.76 c 21.48,-1.82 43.19,-1.6 64.57,1.3 20.17,2.86 40.23,8.57 57.77,19.15 11.66,6.94 21.99,16.07 30.36,26.74 11.1,14.16 18.7,30.81 23.68,48.03 5.71,19.5 8.19,39.79 9.31,60.03 1.04,26.05 0.39,52.3 -4.18,78.03 -5.19,29.57 -16.43,59.33 -38.24,80.71 -13.04,12.94 -29.42,22.22 -46.79,27.98 -18.98,6.34 -39.01,8.92 -58.93,9.62 -21.77,0.61 -43.74,-0.38 -65.03,-5.23 -16.77,-3.78 -33.14,-10.09 -47.36,-19.86 -13.99,-9.44 -25.54,-22.28 -33.96,-36.87 -10.39,-17.87 -16.35,-37.97 -19.83,-58.24 -4.83,-29.15 -5.21,-58.91 -3,-88.33 2.83,-32.37 10.24,-65.66 29.57,-92.44 15.05,-21.14 37.89,-35.9 62.61,-43.18 12.82,-3.96 26.11,-6.21 39.45,-7.44 m 14.05,66.05 c -11.4,0.97 -23.04,3.52 -32.66,9.98 -9.4,6.17 -15.79,15.97 -19.64,26.37 -5.66,15.28 -7.34,31.67 -8.35,47.83 -1.02,23.34 -1.06,46.82 1.76,70.04 1.99,14.57 5.18,29.51 13.36,42 5.98,9.2 15.34,15.94 25.76,19.25 12.95,4.17 26.75,4.6 40.24,4.08 14.03,-0.67 28.76,-3.42 40.07,-12.31 9.62,-7.52 15.45,-18.82 18.84,-30.35 5.27,-18.04 6.36,-36.97 6.89,-55.66 0.2,-25.55 0.36,-51.54 -6.14,-76.44 -3.84,-14.92 -12.06,-29.78 -26.16,-37.12 -16.5,-8.61 -35.84,-8.77 -53.97,-7.67 z"
       id="path18"
       style="fill:#ebb701" />
    <path
       d="m 1978.05,219.42 c 22.52,-5.53 45.88,-6.43 68.96,-5.48 38.22,1.73 76.56,9.37 111.35,25.63 6.61,3.11 13.08,6.56 19.18,10.59 0.01,69.28 0,138.56 0,207.84 0.19,9.92 -0.91,20.26 2.72,29.73 2.09,5.75 6.9,10.43 12.84,12.09 9.73,3.13 19.96,0.13 29.89,0.95 4.74,0.34 7.25,5.02 7.92,9.23 1.96,10.93 3.62,21.92 4.98,32.95 0.59,3.67 0,7.63 -2.28,10.65 -3.73,5.01 -9.74,7.57 -15.55,9.28 -11.7,3.3 -23.98,3.71 -36.06,3.6 -15.8,-0.28 -31.99,-4.87 -44.19,-15.23 -9.45,-7.9 -16.33,-18.77 -19.62,-30.62 -21.41,25.44 -53.65,40.03 -86.2,44.4 -20.89,2.56 -42.3,1.98 -62.86,-2.67 -17.08,-3.89 -33.53,-11.21 -47.16,-22.3 -12.34,-9.87 -22.15,-22.65 -29.43,-36.62 -9.38,-18.04 -14.77,-37.89 -17.89,-57.89 -3.8,-24.98 -4.39,-50.37 -2.96,-75.57 2.12,-32.41 8.58,-65.5 25.57,-93.63 8.25,-13.64 19.14,-25.72 32.06,-35.07 14.49,-10.59 31.34,-17.66 48.73,-21.86 m 10,70.55 c -13.72,7.82 -21.78,22.52 -25.52,37.42 -6.08,24.35 -5.88,49.68 -5.8,74.61 0.52,21.85 1.77,44.39 10.47,64.75 5.72,13.66 16.85,25.29 31.08,29.99 16.64,5.5 34.92,4.69 51.73,0.37 17.7,-4.69 33.85,-15.93 43.26,-31.77 1.42,-2.18 0.65,-4.92 0.85,-7.35 -0.02,-55.08 -0.03,-110.15 0,-165.23 -15.43,-7.26 -32.42,-10.72 -49.34,-12.03 -19.15,-1.07 -39.67,-0.57 -56.73,9.24 z"
       id="path20"
       style="fill:#ebb701" />
    <path
       d="m 1379.67,225.66 c 3.06,-4.08 8.44,-5.46 13.32,-5.45 17.69,0.02 35.37,0 53.05,0.01 6.69,0.02 14,1.88 18.3,7.37 4.92,6.36 6.62,14.4 9.26,21.83 22.49,68.29 45.06,136.55 67.5,204.86 24.4,-71.43 48.58,-142.93 72.95,-214.37 2.18,-5.87 4.35,-12.38 9.68,-16.18 5.32,-3.71 12.11,-3.62 18.33,-3.52 14.98,0.07 29.95,-0.1 44.93,0.08 8.48,0.22 15.58,9.48 12.05,17.64 -6.63,18.12 -14.08,35.96 -21.01,53.99 -32.76,83.28 -65.52,166.56 -98.26,249.85 -2.04,4.97 -3.85,10.31 -7.77,14.15 -3.44,3.28 -8.42,4.01 -12.97,3.96 -13.37,-0.01 -26.73,0.01 -40.09,-0.01 -5.52,0.04 -11.41,-1.3 -15.39,-5.35 -5.72,-5.78 -7.89,-13.83 -10.87,-21.15 -36.04,-92.33 -72.07,-184.66 -108.1,-276.99 -2.2,-6.29 -5.52,-12.21 -6.88,-18.78 -0.83,-4.02 -0.67,-8.58 1.97,-11.94 z"
       id="path22"
       style="fill:#ebb701" />
    <path
       d="m 1753.22,220.36 c 15.24,-0.35 30.51,-0.02 45.77,-0.16 5.58,-0.16 11.77,0.78 15.84,4.97 4.03,4.17 4.98,10.26 5.06,15.84 0,99.67 0,199.33 -0.01,299 -0.05,5.73 -1.18,12.17 -5.87,16 -4.41,3.73 -10.52,3.99 -16.02,3.88 -14.34,-0.04 -28.68,0.03 -43.01,-0.03 -5.59,-0.06 -11.72,-2.02 -14.79,-7 -3.39,-5.31 -3.08,-11.87 -3.1,-17.9 0.02,-97.64 0,-195.28 0.02,-292.91 0.01,-5.46 0.6,-11.36 4.12,-15.8 2.85,-3.67 7.47,-5.44 11.99,-5.89 z"
       id="path24"
       style="fill:#ebb701" />
  </g>
</svg>
