<?xml version="1.0" encoding="UTF-8" standalone="no"?>
<svg
   viewBox="0 0 360 64.821"
   version="1.1"
   id="svg2"
   sodipodi:docname="image(1).svg"
   inkscape:version="1.3 (0e150ed6c4, 2023-07-21)"
   xmlns:inkscape="http://www.inkscape.org/namespaces/inkscape"
   xmlns:sodipodi="http://sodipodi.sourceforge.net/DTD/sodipodi-0.dtd"
   xmlns="http://www.w3.org/2000/svg"
   xmlns:svg="http://www.w3.org/2000/svg">
  <sodipodi:namedview
     id="namedview2"
     pagecolor="#505050"
     bordercolor="#eeeeee"
     borderopacity="1"
     inkscape:showpageshadow="0"
     inkscape:pageopacity="0"
     inkscape:pagecheckerboard="0"
     inkscape:deskcolor="#505050"
     inkscape:zoom="2.1972222"
     inkscape:cx="180"
     inkscape:cy="32.541087"
     inkscape:window-width="2560"
     inkscape:window-height="1490"
     inkscape:window-x="-12"
     inkscape:window-y="-12"
     inkscape:window-maximized="1"
     inkscape:current-layer="svg2" />
  <defs
     id="defs1">
    <style
       id="style1">.logo-outline{fill:#fff}</style>
  </defs>
  <g
     id="logo-layer"
     data-name="logo-layer"
     style="fill:#000000">
    <g
       id="Logo_Main"
       data-name="Logo Main"
       style="fill:#000000">
      <path
         d="m124.543 52.439-2.809-8.219h-15.4c-.416 1.248-.832 2.7-1.352 4.162l-1.249 4.057h-7.49l13.838-38.289h8.011l13.422 38.289Zm-10.612-29.965c-.937 2.6-1.873 5.1-2.706 7.595s-1.768 5-2.809 7.8h11.029ZM153.884 14.254h-14.046v38.185h6.451v-12.9h7.595c7.7 0 11.445-3.226 11.445-9.885v-5.41c0-6.659-3.745-9.885-11.445-9.989m-7.595 6.139h7.387c4.37 0 5.1 1.145 5.1 3.954v5.306c0 2.7-.729 3.954-5.1 3.954h-7.387ZM186.971 14.254h-14.046v38.185h6.451v-12.9h7.595c7.7 0 11.445-3.226 11.445-9.885v-5.41c0-6.659-3.745-9.885-11.445-9.989m-7.595 6.139h7.387c4.37 0 5.1 1.145 5.1 3.954v5.306c0 2.7-.728 3.954-5.1 3.954h-7.387ZM217.665 48.694h17.584v3.849h-21.434V14.358h3.85v34.336zM269.064 41.41c0 6.347-3.954 11.55-13.839 11.55s-13.838-5.2-13.838-11.55V25.179c0-6.347 3.954-11.549 13.838-11.549s13.839 5.2 13.839 11.549Zm-24.035 0c0 5.515 3.329 8.532 10.405 8.532s10.4-3.121 10.4-8.532V25.179c0-5.514-3.329-8.532-10.4-8.532s-10.4 3.122-10.4 8.532ZM274.994 14.358h3.746l12.381 34.336 12.382-34.336h3.85l-13.734 38.185h-4.995l-13.63-38.185zM315.364 14.358h3.85v38.185h-3.85zM337.734 18.936v33.607h-3.642V14.358h5.619l16.647 32.671V14.358H360v38.185h-4.578l-17.688-33.607zM67.318 47.445a8.636 8.636 0 1 0 8.636 8.636 8.615 8.615 0 0 0-8.636-8.636m5.2 8.74a5.15 5.15 0 1 1-10.3-.1 5.15 5.15 0 1 1 10.3.1M8.636 47.445A8.7 8.7 0 0 0 0 56.185a8.636 8.636 0 0 0 17.272 0 8.7 8.7 0 0 0-8.636-8.74m5.2 8.74a5.2 5.2 0 0 1-5.2 5.1 5.2 5.2 0 0 1-5.1-5.2 5.15 5.15 0 1 1 10.3.1M37.977 0a8.636 8.636 0 1 0 8.636 8.636A8.615 8.615 0 0 0 37.977 0m5.2 8.636a5.1 5.1 0 1 1-5.1-5.1 5.106 5.106 0 0 1 5.1 5.1"
         class="logo-outline"
         id="path1"
         style="fill:#000000" />
      <path
         d="M64.2 48.486 45.052 13.942l-.208-.312-.208.312a7.381 7.381 0 0 1-2.393 1.977l-.208.1.1.208L59.1 46.821a100.116 100.116 0 0 0-20.811-2.081 93.034 93.034 0 0 0-21.434 2.081l16.96-30.486.1-.208-.208-.1a7.381 7.381 0 0 1-2.393-1.977l-.208-.312-.208.312-19.141 34.436-.1.208.312.1c.937.312 1.769 1.456 2.6 2.185l.1.1.1-.1h.1a92.646 92.646 0 0 1 23.41-2.6 88.571 88.571 0 0 1 22.786 2.6l.1.208.208-.208c.833-.729 1.665-1.873 2.6-2.185l.313-.1Z"
         class="logo-outline"
         id="path2"
         style="fill:#000000" />
    </g>
  </g>
</svg>
