<?xml version="1.0" encoding="UTF-8" ?>
<!DOCTYPE svg PUBLIC "-//W3C//DTD SVG 1.1//EN" "http://www.w3.org/Graphics/SVG/1.1/DTD/svg11.dtd">
<svg width="1589pt" height="643pt" viewBox="0 0 1589 643" version="1.1" xmlns="http://www.w3.org/2000/svg">
  <g fill="#173d6e">
    <path opacity="1" d="M.47.76c53.5-.02 107 0 160.5-.01 13.6.03 27.24-.26 40.8 1.01 16.26 1.87 32.65 4.43 47.92 10.58 22.13 8.17 42.09 23.91 52.57 45.35 5.54 10.78 8.67 22.63 10.47 34.57 1.28 8.91.14 17.93-1.4 26.72-2.74 15.58-8.51 31.22-19.29 43.06-4.49 5-10.13 8.71-15.8 12.21-23.76 16.78-47.39 33.72-70.97 50.74 39.15 48.69 78.37 97.31 117.51 146-29.94.03-59.89-.02-89.83.03-1.34.09-2.77-.11-3.44-1.43-42.49-55.54-85.02-111.06-127.54-166.59 36.88-20.77 73.77-41.56 110.7-62.25 7.25-4.04 12.56-11.07 15.12-18.9 3.07-8.66 2.66-18.15.67-27-1.54-6.77-6.26-12.97-12.82-15.51-10.58-4.51-22.28-4.57-33.58-5.07-33.75-.05-67.51-.01-101.26-.02-.02 98.91-.02 197.83-.02 296.74-12.26.06-24.52-.09-36.79.1-14.66.36-29.32-.28-43.99-.09V5.57C.13 3.96.3 2.36.47.76"/>
    <path opacity="1" d="M460.47 83.65c25.65-2.54 51.96.35 76.05 9.68 37.76 13.51 69 43.84 83.95 81.01 14.95 37.36 14.03 80.78-2.8 117.37-14.75 32.24-41.96 58.37-74.35 72.61-48.98 21.64-108.81 17.53-153.88-11.62-18.54-11.76-33.96-28.18-45.2-46.99-28.99-48.49-26.58-113.97 6.64-159.8 12.33-17.19 28.31-31.84 46.74-42.28 19.27-10.89 40.82-17.78 62.85-19.98m5.09 69.14c-8.79 1.42-17.62 3.72-25.26 8.43-17.12 9.26-28.95 26.55-33.81 45.16-5 19.29-3.76 40.38 4.49 58.61 5.39 12.04 14.04 22.69 24.86 30.26 26.02 18.83 64.68 17.48 89.37-3.03 10.73-9.25 18.78-21.58 22.7-35.21 5.53-19.27 4.98-40.5-2.8-59.08-7.23-17.64-21.26-32.7-38.97-40.06-12.73-5.45-26.91-7.03-40.58-5.08m333.17-64.04c20.56-6.9 42.8-7.11 64.12-4.24 20.27 3.06 40.25 9.71 57.26 21.35 25.27 16.88 44.27 42.55 53.6 71.42 12.35 38.08 10.92 80.7-4.84 117.59-12.86 30.12-36.92 55.3-66.56 69.27-16.11 7.47-33.56 11.84-51.25 13.26-33.9 2.9-69.49-4.89-96.92-25.63.05 34.83 0 69.65 0 104.47-26.8.01-53.59.01-80.39 0-.01-122.74-.02-245.49 0-368.23q40.2-.015 80.4 0 .015 13.38 0 26.76c12.66-11.83 27.96-21 44.58-26.02m18.76 63.94c-22.05 2.49-43.07 15.82-53.04 35.91-17.19 31.56-12.48 74.73 14.03 99.78 13.63 13.09 32.54 20.86 51.51 20.14 15.5.02 31.07-4.82 43.5-14.17 12.82-9.62 21.7-23.95 25.89-39.32 5.27-20.69 4.07-43.53-5.91-62.65-6.33-11.96-15.46-22.7-27.15-29.7-14.32-9.2-32.11-11.99-48.83-9.99m286.45-51.88c27.07-14.64 58.58-20.12 89.12-17.74 20.61 1.82 41.07 6.97 59.53 16.46 28.4 14.46 52.16 38.21 65.74 67.12 11.89 25.35 16.13 54.06 12.86 81.82-74.83.08-149.66 0-224.48.04 5.1 24.31 22.19 46.29 45.67 55.18 20.79 7.82 45.2 6.44 64.54-4.75 10.77-6.07 19.43-15.5 25.56-26.16 18.88 16.76 37.66 33.64 56.46 50.5-25.09 29.91-62.04 49.53-100.89 53.55-24.27 2.7-49.16.32-72.42-7.18-25.94-8.46-49.49-24.32-66.94-45.31-18.48-21.99-29.79-49.73-32.54-78.28-3.18-29.52 2.77-59.95 16.93-86.05 13.94-25.1 35.35-45.99 60.86-59.2m36.74 60.8c-13.77 8.03-24.33 21.02-30.19 35.77 45.25.27 90.5.06 135.75.11-7.62-17.99-22.2-33.09-40.39-40.43-21.03-7.7-45.6-6.75-65.17 4.55m389.29-77.68c19.54-2.61 39.47-.6 58.55 4.08-9.8 24.67-19.59 49.34-29.44 73.98-10.14-2.41-20.65-2.3-30.95-1.27-19.8 2.68-39.58 10.21-53.96 24.47-12.15 11.46-19.02 28.17-18.74 44.84 0 47.15-.02 94.31-.02 141.46-26.83-.01-53.67.08-80.5-.04.06-94.48-.02-188.96.03-283.44 26.83-.01 53.65-.01 80.48-.01.08 12.23-.15 24.46.09 36.68 20.9-19.39 46.06-35.49 74.46-40.75M3.43 510.74c0-3.67-.05-7.35.07-11.02 34.55.08 69.11 0 103.66.04.01 3.66.01 7.32-.01 10.99-15.22-.02-30.44.04-45.66-.03-.14 42.97-.12 85.95-.03 128.93-4.09.19-8.18.08-12.28.1-.01-43 .01-86-.01-128.99-15.25-.02-30.49.01-45.74-.02m275.78 27.44c10.61-9.56 24.48-15.51 38.79-16.18 18.47-1.77 37.36 6.49 48.62 21.23-3.07 1.86-6.09 3.8-9.1 5.76-8.46-11.14-22.67-17.12-36.52-16.68-11.79-.04-23.28 4.87-32.08 12.57-18.24 16.78-20.4 47.3-6.14 67.21 9.36 13.38 26.09 20.78 42.25 19.79 12.55-.55 24.93-6.54 32.56-16.62 3.14 1.81 6.22 3.73 9.25 5.74-8.82 10.87-21.55 19.19-35.69 20.63-12.81 1.71-26.14-.16-37.7-6.05-14.48-6.83-25.44-20.28-29.7-35.66-6.39-21.33-.89-46.27 15.46-61.74m484.93-15.98c16.92-1.7 35.49 2.48 47.69 14.96 21.51 20.58 24.01 56.84 7.44 81.15-8.69 12.64-23.02 21.14-38.18 23.14-12.75 2.34-26.16-.06-37.76-5.71-11.78-6.15-21.29-16.62-26.07-29.05-6.9-17.52-6.02-38.02 2.61-54.78 8.3-16.69 25.7-28.32 44.27-29.71m1.35 10.46c-15.29 1.15-29.34 11.31-35.58 25.25-8.54 20.04-6.4 45.86 9.48 61.7 11.2 11.01 28.36 14.69 43.43 11.15 10.99-2.53 20.99-9.39 27-18.97 12.09-19.78 11.13-47.64-4.4-65.32-9.93-10.89-25.45-15.82-39.93-13.81m269.05-9.95c15.29-2.48 31.82.19 44.69 9.07 16.75 11.51 25.47 32.28 24.7 52.26-.5 18.59-9.09 37.53-24.63 48.24-22.39 15.08-55.29 13.36-74.89-5.66-19.01-18.4-22.73-49.21-11.57-72.7 7.42-16.56 23.83-28.56 41.7-31.21m2.97 10.05c-11.36 1.41-21.97 7.79-28.86 16.89-7.72 11.25-10.88 25.33-9.41 38.84 1.11 12.02 6.15 23.88 15.1 32.14 13.81 12.4 35.18 14.77 51.7 6.58 10.97-4.81 18.89-14.93 22.79-26.06 3.89-11.38 4.13-23.99.82-35.54-2.91-10.36-9.19-19.99-18.31-25.89-9.85-6.63-22.2-8.56-33.83-6.96m154.09-8.35c17.63-5.27 37.88-2.72 53 8.04 3.79 2.72 7.4 5.73 10.6 9.14-2.89 2.09-5.65 4.34-8.36 6.64-14-14.84-37.12-20.32-56.03-12.3-15.4 5.56-26.29 20.3-29.13 36.17-2.26 12.5-.36 25.94 6.2 36.91 3.38 5.8 8.33 10.5 13.67 14.48 9.03 6.51 20.4 8.83 31.37 8.75 11.47-.88 22.61-5.67 31.09-13.46-.03-9.01.01-18.02-.01-27.03h-38.95c-.03-3.33-.03-6.67.01-9.99 16.84-.05 33.68.05 50.51-.05.21 13.39.04 26.79.07 40.19.12 1.54-1.46 2.37-2.32 3.4-13.43 13.03-32.97 18.83-51.42 16.46-18.35-1.73-35.89-12.37-45.21-28.38-9.89-17.26-10.79-39.24-2.65-57.34 6.89-15.48 21.2-27.37 37.56-31.63m335.38-1.17c18.85-4.16 40.1.95 53.61 15.14-2.25 2.67-4.49 5.34-6.73 8.01-11.33-12.46-30.07-17.35-46.13-12.62-6.87 2.18-13.43 7.05-15.62 14.18-1.88 5.24-.64 11.6 3.51 15.42 4.83 4.61 11.49 6.37 17.66 8.41 10.71 3.19 21.87 5.17 32.02 9.99 6.21 2.95 12.07 7.34 15.26 13.58 5.43 10.85 3.68 24.82-4.16 34.06-5.74 6.46-14.06 10.03-22.4 11.68-20.59 3.87-44.14-.93-58.39-17.19 2.37-2.76 4.76-5.51 7.21-8.2 13.06 14.29 34.58 20.3 53.03 14.13 6.87-2.28 12.96-7.73 14.76-14.91 1.88-6.53.36-14.16-4.7-18.87-5.81-5.21-13.46-7.56-20.85-9.49-9.96-2.75-20.31-4.46-29.66-9.01-4.67-2.38-9.32-5.35-12.15-9.88-6.02-9.26-5.1-22.13 1.42-30.89 5.45-7.07 13.68-11.6 22.31-13.54m-1387.94 1.2c25.72-.31 51.43-.15 77.14-.19.03 3.5.04 7-.02 10.51-21.86-.02-43.72-.01-65.58 0-.01 13.49-.02 26.99 0 40.49 21.44 0 42.89-.01 64.33 0q.015 5.25 0 10.5c-21.45 0-42.89-.01-64.33.01-.01 14.57-.01 29.15 0 43.73 21.89.08 43.79-.13 65.68.11-.06 3.38-.05 6.77-.07 10.15-25.75-.01-51.5.01-77.25 0 .04-38.44-.18-76.88.1-115.31m272.18.01c3.83-.28 7.69-.29 11.53 0 .05 16.93 0 33.86.03 50.79 25 .01 49.99.03 74.99-.01 0-16.99-.01-33.99.02-50.98 3.82-.03 7.65-.04 11.46.34-.12 38.39.04 76.78-.08 115.18-3.8-.03-7.59-.02-11.38-.02 0-18.05-.09-36.11.04-54.16-25.02-.2-50.04-.04-75.06-.08-.03 18.08-.01 36.16-.02 54.24H411.2c-.01-38.44-.06-76.87.02-115.3m154.13-.2c3.53.01 7.06-.07 10.59.2 1.31-.1 1.85 1.32 2.63 2.12 23.99 31.49 48.17 62.84 72.36 94.18-.03-32.16 0-64.33.02-96.5 3.84-.05 7.69.03 11.54.25.03 38.41.01 76.83.01 115.24-3.77.01-7.54 0-11.3.03-24.87-32.49-49.56-65.13-74.26-97.75-.05 32.58-.02 65.15-.05 97.73-3.85 0-7.7 0-11.54-.01-.01-38.49-.01-76.99 0-115.49m315.23.26c3.85-.24 7.71-.31 11.57-.26.02 35.08.01 70.16.01 105.24 19.37.04 38.75-.03 58.12.03.01 3.42.04 6.85-.08 10.27-23.19-.09-46.39-.03-69.58-.02-.09-38.42-.02-76.84-.04-115.26m428.24-.27c3.87-.03 7.74.03 11.61.27-.02 38.42.04 76.84-.03 115.25-3.87-.02-7.74-.01-11.6-.01-.01-38.5-.03-77 .02-115.51m67.55.02c25.75.05 51.51-.2 77.26.24.01 3.41.01 6.83.01 10.24-21.9.02-43.79 0-65.69.02-.03 13.49-.03 26.99-.01 40.48 21.46.01 42.92.01 64.39 0 .02 3.5.02 7.01 0 10.52-21.46-.01-42.92-.02-64.38 0 .04 14.59-.17 29.19.09 43.79 21.86-.12 43.72 0 65.58-.06.02 3.41.02 6.83.02 10.26-25.77 0-51.53.01-77.29-.01 0-38.49 0-76.99.02-115.48"/>
  </g>
</svg>
