<?xml version="1.0" encoding="utf-8"?>
<!-- Generator: Adobe Illustrator 24.3.0, SVG Export Plug-In . SVG Version: 6.00 Build 0)  -->
<svg version="1.1" id="Layer_1" xmlns="http://www.w3.org/2000/svg" xmlns:xlink="http://www.w3.org/1999/xlink" x="0px" y="0px"
	 viewBox="0 0 512 512" style="enable-background:new 0 0 512 512;" xml:space="preserve">
<style type="text/css">
	.st0{fill:#005BAA;}
	.st1{fill:#939598;}
</style>
<g id="XMLID_26_">
	<polygon id="XMLID_28_" class="st0" points="135.53,243.91 98.82,302.24 215.62,302.24 250.62,302.24 308.09,210.48 329.14,243.91 
		311.08,243.91 292.72,272.93 347.5,272.93 365.99,302.24 400.84,302.24 308.09,155.28 233.69,272.93 152.17,272.93 170.95,243.91 
		221.59,243.91 240.09,214.6 126.99,214.6 108.5,243.91 	"/>
	<polygon id="XMLID_32_" class="st0" points="265.27,185.3 283.62,156.42 163.84,156.42 145.34,185.72 	"/>
	<path id="XMLID_33_" class="st1" d="M1.51,349.89v-12.38c0-2.28-0.43-4.55-1.56-6.83h15.36l-1.85,4.13
		c-1.85-1.14-4.55-1.56-7.54-1.56H5.64v8.96h8.54l-2.56,3.41c-1.56-0.43-3.41-0.71-5.97-1.14v9.39c0.43,0,0.71,0,1.14,0
		c3.41,0,6.83-0.71,10.1-1.85l-1.85,4.13H-0.05C1.09,354.45,1.51,352.17,1.51,349.89z"/>
	<path id="XMLID_34_" class="st1" d="M37.08,337.52v16.5c4.55-0.43,7.82-1.14,10.95-2.28c-0.71,1.56-1.56,2.99-2.28,4.55H31.82
		c0.71-1.85,1.14-4.13,1.14-6.4v-12.38c0-2.28-0.43-4.55-1.14-6.83h6.83C37.51,332.96,37.08,335.24,37.08,337.52z"/>
	<path id="XMLID_35_" class="st1" d="M63.11,349.89v-12.38c0-2.28-0.43-4.55-1.56-6.83h15.36l-1.85,4.13
		c-1.85-1.14-4.55-1.56-7.54-1.56H67.1v8.96h8.68l-2.28,3.41c-1.56-0.43-3.7-0.71-6.4-1.14v9.39c0.43,0,0.71,0,1.14,0
		c3.7,0,7.11-0.71,10.1-1.85l-1.85,4.13H61.41C62.69,354.45,63.11,352.17,63.11,349.89z"/>
	<path id="XMLID_36_" class="st1" d="M107.07,356.72c-3.7,0-6.83-1.14-8.96-2.7c-3.41-2.7-5.26-5.98-5.26-10.1s1.85-7.54,5.26-10.1
		c2.99-2.28,6.83-2.99,10.95-2.99c2.28,0,4.55,0,7.11,0.71l-0.43,4.55c-1.85-1.56-4.84-2.28-7.54-2.28c-6.4,0-10.53,3.7-10.53,10.1
		c0,5.98,4.13,9.39,10.1,9.39c2.99,0,5.97-0.71,8.68-2.99v4.55C113.05,356.01,109.63,356.72,107.07,356.72z"/>
	<path id="XMLID_37_" class="st1" d="M130.4,335.24l1.56-4.55h21.48l-1.85,4.55c-2.28-1.14-4.55-1.56-7.82-1.56v16.22
		c0,2.28,0.43,4.55,1.56,6.4h-6.83c0.71-1.85,1.14-4.13,1.14-6.4v-16.22C135.53,333.82,132.96,334.1,130.4,335.24z"/>
	<path id="XMLID_40_" class="st1" d="M172.37,333.39c4.13,0,6.4,1.85,6.4,4.84c0,2.99-2.28,4.84-6.4,5.69V333.39z M172.37,349.89
		v-5.26c5.69,7.82,9.82,11.67,10.95,11.67h4.13c-3.7-3.41-7.11-7.54-9.82-11.67c3.7-1.14,5.69-3.41,5.69-6.4
		c0-4.84-3.7-7.54-12.09-7.54h-4.55c0.71,2.28,1.14,4.55,1.14,6.83v12.38c0,2.28-0.43,4.55-1.14,6.4h6.83
		C172.37,354.45,172.37,352.17,172.37,349.89z"/>
	<path id="XMLID_44_" class="st1" d="M215.62,353.73c-3.41,0-5.97-1.56-7.82-3.7c-1.56-2.28-2.28-4.55-2.28-6.83
		c0-5.69,3.7-9.39,8.96-9.39c3.41,0,6.4,1.56,8.25,4.13c1.14,1.85,1.85,4.13,1.85,6.4C224.58,349.89,220.88,353.73,215.62,353.73z
		 M229.13,343.49c0-3.7-1.56-7.11-4.13-9.39c-2.56-2.28-5.97-3.41-9.82-3.41c-4.55,0-8.68,1.56-11.24,4.55
		c-2.28,2.28-3.41,4.84-3.41,8.25c0,4.13,1.85,7.82,4.84,10.1c2.99,1.85,5.97,2.99,9.39,2.99c3.7,0,7.11-1.14,9.82-3.41
		C227.71,350.75,229.13,347.33,229.13,343.49L229.13,343.49z"/>
	<path id="XMLID_45_" class="st1" d="M251.33,356.29h-6.4c1.14-1.85,1.56-4.13,1.56-6.4v-15.36l-3.41-3.7h7.11c0,0.43,0,0.43,0,0.43
		c0,1.14,0.71,1.85,1.56,2.99l12.8,16.22v-12.8c0-2.28-0.43-4.55-1.14-6.83h6.4c-1.14,2.28-1.14,4.55-1.14,6.83v12.38
		c0,2.7,0,4.55,0.43,6.4h-5.69c-0.43-1.14-0.71-1.85-1.14-2.56l-11.95-14.65v10.95C250.19,352.17,250.62,354.45,251.33,356.29z"/>
	<path id="XMLID_49_" class="st1" d="M291.59,337.52v12.38c0,2.28,0.43,4.55,1.56,6.4h-6.83c0.71-1.85,1.14-4.13,1.14-6.4v-12.38
		c0-2.28-0.43-4.55-1.14-6.83h6.83C291.87,332.96,291.59,335.24,291.59,337.52z"/>
	<path id="XMLID_50_" class="st1" d="M322.74,356.72c-3.41,0-6.4-1.14-8.96-2.7c-3.41-2.7-5.26-5.98-5.26-10.1s1.85-7.54,5.26-10.1
		c2.99-2.28,6.83-2.99,11.24-2.99c1.85,0,4.13,0,6.83,0.71v4.55c-2.28-1.56-4.84-2.28-7.82-2.28c-5.98,0-10.1,3.7-10.1,10.1
		c0,5.98,3.7,9.39,9.82,9.39c3.41,0,5.98-0.71,8.96-2.99v4.55C328.72,356.01,325.73,356.72,322.74,356.72z"/>
	<path id="XMLID_57_" class="st1" d="M373.39,345.48l3.7-7.11l3.41,7.11H373.39z M371.96,348.47h10.1l1.85,4.13
		c0.43,0.71,0.71,1.56,0.71,2.7c0,0.43,0,0.71,0,1.14h7.11c-1.56-1.85-2.99-3.7-3.7-5.26l-10.53-20.63l-10.95,19.92
		c-1.56,2.28-2.7,4.55-4.13,5.98h6.83c-0.43,0-0.43-0.43-0.43-0.71c0-1.14,0.43-2.28,1.14-3.7L371.96,348.47z"/>
	<path id="XMLID_60_" class="st1" d="M410.23,333.39c4.13,0,6.83,1.85,6.83,4.84c0,2.99-2.28,4.84-6.83,5.69V333.39z M410.23,349.89
		v-5.26c5.98,7.82,10.1,11.67,11.24,11.67h4.13c-3.7-3.41-7.11-7.54-9.82-11.67c3.7-1.14,5.69-3.41,5.69-6.4
		c0-4.84-4.13-7.54-12.09-7.54h-4.55c0.71,2.28,1.14,4.55,1.14,6.83v12.38c0,2.28-0.43,4.55-1.14,6.4h6.83
		C410.66,354.45,410.23,352.17,410.23,349.89z"/>
	<path id="XMLID_61_" class="st1" d="M436.55,335.24l1.14-4.55h21.48l-1.85,4.55c-1.85-1.14-4.55-1.56-7.54-1.56v16.22
		c0,2.28,0.43,4.55,1.14,6.4h-6.83c0.71-1.85,1.14-4.13,1.14-6.4v-16.22C441.81,333.82,438.83,334.1,436.55,335.24z"/>
	<path id="XMLID_62_" class="st1" d="M479.37,353.31c2.56,0,4.13-1.14,4.13-2.99c0-2.56-2.28-3.7-5.26-5.26
		c-3.7-1.85-5.69-3.41-5.69-6.83c0-4.13,3.7-7.54,8.68-7.54c1.56,0,3.41,0,5.26,0.71l-0.43,4.55c-1.14-1.56-2.56-2.28-4.84-2.28
		s-4.13,1.56-4.13,3.7c0,2.13,1.85,2.99,4.55,4.55c1.85,1.14,3.41,1.56,4.55,2.99c1.56,1.14,1.85,2.7,1.85,4.55
		c0,4.13-3.41,7.11-9.82,7.11c-1.56,0-2.99-0.43-4.55-0.71v-5.98C475.25,352.17,477.1,353.31,479.37,353.31z"/>
	<path id="XMLID_65_" class="st1" d="M501.14,331.11v1.14h-2.56v6.83h-1.85v-6.83h-2.56v-1.14H501.14L501.14,331.11z M505.26,331.11
		l2.28,5.26l1.85-5.26h2.56v7.82h-1.85v-6.4l-2.28,6.4h-1.14l-2.28-6.4v6.4h-1.85v-7.82H505.26z"/>
</g>
</svg>
