<?xml version="1.0" encoding="utf-8"?>
<!-- Generator: Adobe Illustrator 16.0.0, SVG Export Plug-In . SVG Version: 6.00 Build 0)  -->
<!DOCTYPE svg PUBLIC "-//W3C//DTD SVG 1.0//EN" "http://www.w3.org/TR/2001/REC-SVG-20010904/DTD/svg10.dtd">
<svg version="1.0" id="Layer_1" xmlns="http://www.w3.org/2000/svg" xmlns:xlink="http://www.w3.org/1999/xlink" x="0px" y="0px"
	 width="800px" height="800px" viewBox="0 0 800 800" enable-background="new 0 0 800 800" xml:space="preserve">
<path fill-rule="evenodd" clip-rule="evenodd" fill="#FE4747" d="M35.212,418.847c0-12.361,0-24.724,0-37.086
	c0.84-0.568,0.538-1.462,0.582-2.221c1.245-22.187,4.324-44.11,9.714-65.674c21.39-85.569,67.466-154.879,138.169-207.458
	c56.125-41.737,119.455-64.813,189.22-70.204c2.746-0.21,5.625,0.289,8.256-0.993c12.362,0,24.726,0,37.087,0
	c0.438,0.818,1.24,0.536,1.894,0.57c22.497,1.198,44.717,4.379,66.573,9.832c75.571,18.86,139.097,57.641,189.841,116.661
	c52.043,60.53,80.944,130.94,87.245,210.587c0.25,3.163-0.228,6.436,0.996,9.507c0,12.158,0,24.318,0,36.478
	c-0.818,0.432-0.556,1.228-0.592,1.888c-1.253,22.288-4.401,44.307-9.807,65.966c-18.863,75.571-57.642,139.101-116.662,189.844
	c-60.53,52.045-130.941,80.946-210.588,87.247c-3.165,0.25-6.437-0.228-9.508,0.998c-11.957,0-23.912,0-35.872,0
	c-0.566-0.843-1.46-0.54-2.22-0.582c-22.187-1.248-44.109-4.325-65.674-9.716c-85.569-21.389-154.88-67.465-207.459-138.168
	c-41.735-56.125-64.812-119.455-70.203-189.221C35.992,424.357,36.493,421.479,35.212,418.847z M665.161,511.262
	c-1.04-1.691-1.72-2.811-2.412-3.918c-44.597-71.33-89.198-142.658-133.797-213.986c-7.137-11.417-14.331-22.799-21.366-34.278
	c-1.49-2.433-2.318-2.172-3.379,0.106c-0.086,0.182-0.199,0.353-0.307,0.524c-41.3,65.987-82.605,131.97-123.874,197.979
	c-1.031,1.65-1.963,2.641-4.194,2.635c-46.206-0.081-92.409-0.059-138.615-0.083c-0.822,0-1.802,0.414-2.584-0.57
	c0.506-0.857,0.992-1.725,1.519-2.568c9.337-14.938,18.74-29.833,27.954-44.845c1.429-2.325,2.976-2.998,5.585-2.991
	c30.296,0.09,60.594,0.034,90.889,0.107c2.197,0.004,3.44-0.679,4.591-2.547c9.395-15.257,18.903-30.444,28.352-45.669
	c0.447-0.72,1.501-1.491,0.833-2.353c-0.344-0.442-1.494-0.339-2.281-0.339c-66.267-0.014-132.533-0.005-198.801-0.054
	c-1.879-0.001-2.89,0.666-3.847,2.215c-9.471,15.331-19.023,30.61-28.528,45.919c-0.45,0.727-1.488,1.478-0.926,2.368
	c0.517,0.819,1.679,0.394,2.549,0.395c13.173,0.021,26.345,0.016,39.518,0.016c0.709,0,1.419,0.009,2.127,0.01
	c1.14,0.006,1.51,0.432,0.836,1.475c-0.439,0.679-0.848,1.381-1.275,2.066c-19.804,31.673-39.613,63.345-59.393,95.034
	c-0.611,0.978-1.629,1.818-1.533,3.353c1.043,0,2.043,0,3.043,0c85.924,0,171.849-0.015,257.771,0.064
	c2.588,0.002,3.892-0.877,5.213-3.002c31.432-50.431,62.938-100.809,94.433-151.202c0.849-1.355,1.697-2.712,2.64-4.22
	c0.459,0.536,0.752,0.803,0.957,1.127c11.12,17.762,22.21,35.542,33.363,53.281c1.344,2.136,0.368,2.239-1.444,2.23
	c-7.903-0.044-15.811,0.064-23.713-0.07c-2.194-0.039-3.428,0.659-4.591,2.534c-9.343,15.053-18.813,30.025-28.208,45.043
	c-0.563,0.898-1.835,1.838-1.265,2.873c0.565,1.027,2.033,0.451,3.089,0.451c28.371,0.025,56.744,0.066,85.115-0.048
	c2.862-0.011,4.493,0.776,6.027,3.271c9.329,15.18,18.899,30.207,28.269,45.363c1.126,1.817,2.324,2.354,4.354,2.344
	c16.819-0.073,33.639-0.04,50.458-0.04C660.411,511.262,662.511,511.262,665.161,511.262z M222.837,307.513c1.269,0,1.87,0,2.47,0
	c68.26,0,136.521-0.008,204.779,0.046c1.869,0.001,2.896-0.613,3.854-2.157c9.713-15.647,19.497-31.249,29.237-46.875
	c0.338-0.546,1.045-1.048,0.526-2.013c-0.532,0-1.135,0-1.737,0c-68.259,0-136.52,0.009-204.778-0.039
	c-1.848-0.001-2.887,0.575-3.859,2.147c-9.006,14.535-18.1,29.016-27.165,43.515C225.158,303.747,224.166,305.365,222.837,307.513z"
	/>
</svg>
