<?xml version="1.0" encoding="UTF-8"?>
<svg xmlns="http://www.w3.org/2000/svg" width="247" height="54" viewBox="0 0 247 54" fill="none">
  <path d="M46.0375 7.17574C46.7149 7.8532 47.088 8.75647 47.088 9.72847C47.088 10.7005 46.7149 11.6037 46.0375 12.2812C44.6335 13.6852 42.3557 13.6852 40.9517 12.2812C40.2742 11.6037 39.9011 10.7005 39.9011 9.72847C39.9011 8.75647 40.2742 7.8532 40.9517 7.17574C41.6488 6.46884 42.5717 6.1252 43.4946 6.1252C44.4175 6.11538 45.3306 6.46884 46.0375 7.17574Z" fill="#D64000"></path>
  <path d="M7.15749 46.2341C5.75349 44.8301 5.75349 42.5327 7.15749 41.1287C7.83495 40.4512 8.73822 40.0781 9.7004 40.0781C10.6626 40.0781 11.556 40.4512 12.2433 41.1287C13.6473 42.5327 13.6473 44.8301 12.2433 46.2341C11.5659 46.9116 10.6626 47.2847 9.7004 47.2847C8.73822 47.2847 7.83495 46.9116 7.15749 46.2341Z" fill="#D64000"></path>
  <path d="M34.56 7.45245H34.5403C33.7745 7.11864 33.1756 6.51973 32.8614 5.74409C32.5374 4.95864 32.5374 4.10445 32.8614 3.32882C33.1854 2.54336 33.7942 1.94445 34.56 1.62045C34.9527 1.46336 35.3651 1.375 35.7578 1.375C36.1505 1.375 36.5825 1.45355 36.9556 1.62045C38.556 2.27827 39.3218 4.13391 38.6542 5.74409C38.0062 7.34445 36.1505 8.11027 34.5502 7.45245" fill="#D64000"></path>
  <path d="M17.4567 45.7234C17.8691 45.7234 18.2716 45.8019 18.6546 45.9688C20.2549 46.6267 21.0207 48.4823 20.3531 50.0925C20.0291 50.8779 19.4204 51.4768 18.6546 51.8008C17.8789 52.1248 17.0247 52.1248 16.2393 51.8008C14.6389 51.143 13.8731 49.2874 14.5407 47.6772C14.8647 46.8918 15.4735 46.2928 16.2393 45.9688C16.632 45.8019 17.0346 45.7136 17.4469 45.7234" fill="#D64000"></path>
  <path d="M29.2974 2.70982C29.2974 4.16291 28.1585 5.35091 26.7251 5.41964H26.6073C25.1149 5.41964 23.9073 4.20218 23.9073 2.70982C23.9073 1.21745 25.1149 0 26.6073 0C28.0996 0 29.2974 1.22727 29.2974 2.70982Z" fill="#D64000"></path>
  <path d="M23.9073 50.7098C23.9073 49.2175 25.1149 48 26.6073 48C28.0996 48 29.3073 49.2175 29.3073 50.7098C29.3073 52.2022 28.0996 53.4196 26.6073 53.4196C25.1149 53.4098 23.9073 52.1924 23.9073 50.7098Z" fill="#D64000"></path>
  <path d="M18.3207 6.61698C17.7709 6.85262 17.1622 6.85262 16.6025 6.61698C16.0429 6.38134 15.6109 5.95916 15.3851 5.38971C14.9138 4.23116 15.4538 2.91553 16.6025 2.44425C16.8873 2.32643 17.172 2.27734 17.4665 2.27734C18.3502 2.27734 19.1847 2.80753 19.548 3.67153C19.7738 4.23116 19.7738 4.84971 19.548 5.39953C19.3222 5.95916 18.8803 6.39116 18.3305 6.6268" fill="#D64000"></path>
  <path d="M34.8742 46.8017C35.1589 46.6839 35.4436 46.625 35.7382 46.625C36.0327 46.625 36.3175 46.6839 36.6022 46.7919C37.1618 47.0275 37.5938 47.4497 37.8196 48.0192C38.0455 48.5788 38.0455 49.1974 37.8196 49.7472C37.5938 50.3068 37.1618 50.7388 36.6022 50.9744C36.0426 51.2101 35.4338 51.2101 34.884 50.9744C34.3244 50.7486 33.8924 50.3166 33.6666 49.7472C33.4407 49.1875 33.4407 48.569 33.6666 48.0192C33.8924 47.4694 34.3244 47.0374 34.884 46.8017" fill="#D64000"></path>
  <path d="M10.9768 8.46188C11.664 9.15897 11.6738 10.2782 11.016 10.9753L10.9768 11.0146C10.2797 11.7215 9.13094 11.7215 8.42403 11.0146C7.71712 10.3077 7.72694 9.15897 8.42403 8.45206C8.77748 8.0986 9.23894 7.92188 9.69057 7.92188C10.1422 7.92188 10.6135 8.0986 10.9669 8.45206" fill="#D64000"></path>
  <path d="M42.2084 42.3935C42.5618 42.04 43.0233 41.8633 43.4749 41.8633C43.9265 41.8633 44.3978 42.04 44.7415 42.3935C45.0851 42.7371 45.2716 43.1887 45.2716 43.6698C45.2716 44.1509 45.0851 44.6026 44.7415 44.956C44.0444 45.6727 42.9054 45.6629 42.1887 44.956C41.8451 44.6124 41.6585 44.1509 41.6585 43.6698C41.6684 43.1986 41.8549 42.7371 42.1985 42.3935" fill="#D64000"></path>
  <path d="M3.66219 19.6053C2.51346 19.134 1.97346 17.7987 2.44474 16.6598C2.67055 16.1002 3.10255 15.6682 3.66219 15.4325C3.94692 15.3245 4.23165 15.2656 4.52619 15.2656C4.82074 15.2656 5.10546 15.3245 5.39019 15.4325C6.53892 15.9038 7.07892 17.2391 6.60765 18.378C6.38183 18.9376 5.94983 19.3696 5.39019 19.6053C4.83055 19.8409 4.22183 19.8409 3.67201 19.6053" fill="#D64000"></path>
  <path d="M49.5524 33.8153C50.112 34.051 50.544 34.4732 50.7698 35.0426C50.9956 35.6023 50.9956 36.2208 50.7698 36.7706C50.2985 37.9193 48.9829 38.4692 47.8342 37.9979C47.2745 37.7721 46.8425 37.3401 46.6167 36.7706C46.3909 36.211 46.3909 35.5924 46.6167 35.0426C46.98 34.1786 47.8145 33.6484 48.6982 33.6484C48.9927 33.6484 49.2774 33.6975 49.5622 33.8153" fill="#D64000"></path>
  <path d="M0 26.7254C0 25.2331 1.20764 24.0156 2.7 24.0156C4.19236 24.0156 5.4 25.2331 5.4 26.7254C5.4 28.2178 4.19236 29.4353 2.7 29.4353C1.20764 29.4254 0 28.208 0 26.7254Z" fill="#D64000"></path>
  <path d="M47.8146 26.7254C47.8146 25.2331 49.0222 24.0156 50.5146 24.0156C52.0069 24.0156 53.2146 25.2331 53.2146 26.7254C53.2146 28.2178 52.0069 29.4353 50.5146 29.4353C49.0222 29.4353 47.8146 28.208 47.8146 26.7254Z" fill="#D64000"></path>
  <path d="M1.60035 37.101C0.942527 35.481 1.69853 33.6352 3.29889 32.9774C4.07453 32.6534 4.92871 32.6534 5.71416 32.9774C6.4898 33.3014 7.09853 33.9101 7.41271 34.6857C7.73671 35.4712 7.73671 36.3254 7.41271 37.101C7.08871 37.8865 6.47998 38.4854 5.71416 38.8094C4.93853 39.1334 4.08435 39.1334 3.29889 38.8094C2.52325 38.4854 1.91453 37.8865 1.60035 37.101Z" fill="#D64000"></path>
  <path d="M45.7724 18.7324C45.4484 17.9469 45.4484 17.0927 45.7724 16.3171C46.0964 15.5316 46.7051 14.9327 47.4709 14.6087C47.8636 14.4418 48.276 14.3633 48.6687 14.3633C49.9058 14.3633 51.084 15.0996 51.5749 16.3073C52.2327 17.9273 51.4767 19.7731 49.8764 20.4309C49.1007 20.7549 48.2465 20.7549 47.4611 20.4309C46.6854 20.1069 46.0767 19.4982 45.7625 18.7226" fill="#D64000"></path>
  <path d="M34.2458 34.3929C33.2542 35.3747 33.2542 36.9947 34.2458 37.9765C35.2374 38.9682 36.8378 38.9682 37.8196 37.9765C38.3007 37.4954 38.556 36.8671 38.556 36.1896C38.556 35.5122 38.3007 34.874 37.8196 34.4027C37.3287 33.9118 36.6807 33.6565 36.0425 33.6565C35.4043 33.6467 34.7465 33.902 34.2556 34.3929" fill="#D64000"></path>
  <path d="M13.1858 25.1755C12.1156 24.8907 11.4873 23.7911 11.772 22.7209C11.9094 22.2006 12.2433 21.7686 12.7047 21.4937C13.0189 21.3169 13.3527 21.2188 13.6963 21.2188C13.8633 21.2188 14.0498 21.2384 14.2167 21.2875C14.7371 21.4249 15.1691 21.7587 15.4243 22.2202C15.6894 22.6817 15.768 23.2217 15.6207 23.742C15.336 24.822 14.2462 25.4602 13.176 25.1657" fill="#D64000"></path>
  <path d="M38.9782 32.1169C38.4578 31.9794 38.0258 31.6456 37.7705 31.1842C37.4956 30.7227 37.4269 30.1827 37.5742 29.6623C37.7116 29.142 38.0455 28.71 38.5069 28.4351C38.8211 28.2583 39.1549 28.1602 39.5084 28.1602C39.6458 28.1602 39.8029 28.17 39.9404 28.2092L40.0287 28.2289C41.0989 28.5136 41.7273 29.6231 41.4425 30.6834C41.3051 31.2038 40.9713 31.6358 40.5098 31.9107C40.0385 32.1758 39.4985 32.2543 38.988 32.1071" fill="#D64000"></path>
  <path d="M12.1648 30.583C11.9488 29.7484 12.4004 28.9041 13.2055 28.639L13.2938 28.6193C14.148 28.3837 15.0218 28.9041 15.2575 29.7484C15.3655 30.1608 15.3164 30.6026 15.1004 30.9757C14.8942 31.3488 14.5408 31.6139 14.1284 31.7317C13.716 31.8397 13.284 31.7906 12.9109 31.5746C12.5378 31.3684 12.2826 31.015 12.1746 30.5928" fill="#D64000"></path>
  <path d="M38.6935 24.6429L38.6248 24.6036C38.2909 24.3876 38.0553 24.0636 37.9571 23.6709C37.7313 22.8069 38.2418 21.9233 39.0862 21.6975C39.9404 21.4618 40.8142 21.9822 41.0498 22.8266C41.2757 23.6807 40.7651 24.5742 39.9208 24.7902C39.4986 24.908 39.0666 24.8491 38.7033 24.6429" fill="#D64000"></path>
  <path d="M18.0556 36.9659L18.0066 37.0149C17.5353 37.4862 16.7695 37.4862 16.2982 37.0149C15.8269 36.5437 15.8269 35.7779 16.2982 35.3066C16.7695 34.8353 17.5353 34.8353 18.0066 35.3066C18.2324 35.5324 18.36 35.8368 18.36 36.1608C18.3698 36.4651 18.2618 36.74 18.0556 36.9659Z" fill="#D64000"></path>
  <path d="M36.8771 16.3774C37.1029 16.6131 37.2305 16.9076 37.2305 17.2316C37.2305 17.5556 37.1029 17.86 36.8771 18.0858C36.4058 18.5571 35.64 18.5571 35.1687 18.0858C34.9429 17.8501 34.8153 17.5556 34.8153 17.2316C34.8153 16.9076 34.9429 16.6032 35.1687 16.3774C35.3946 16.1418 35.6989 16.024 36.0229 16.024C36.3567 16.0141 36.6611 16.1418 36.8869 16.3774" fill="#D64000"></path>
  <path d="M24.5259 38.8407C24.732 39.2138 24.7909 39.6458 24.6829 40.068C24.5749 40.4803 24.3 40.8338 23.9368 41.04C23.5637 41.2461 23.1317 41.3149 22.7193 41.1971C21.8651 40.9614 21.3546 40.0876 21.5902 39.2334C21.6982 38.8211 21.9731 38.4676 22.3364 38.2614C22.7095 38.0552 23.1415 37.9865 23.5539 38.1043C23.976 38.2123 24.3099 38.4774 24.5259 38.8505" fill="#D64000"></path>
  <path d="M28.6593 14.5812C28.4531 14.2081 28.3942 13.7761 28.5022 13.354C28.6102 12.9416 28.8851 12.5881 29.2484 12.382C29.4939 12.2445 29.7688 12.1758 30.0535 12.1758C30.191 12.1758 30.3382 12.1954 30.4757 12.2249C30.888 12.3329 31.2317 12.6078 31.4477 12.9809C31.6539 13.354 31.7226 13.786 31.6048 14.2081C31.3789 15.0623 30.4953 15.5729 29.6411 15.3372C29.219 15.2292 28.8851 14.9543 28.6593 14.5812Z" fill="#D64000"></path>
  <path d="M31.0648 37.9194L31.1433 37.9685C31.5655 38.2434 31.86 38.646 31.9975 39.1369C32.2822 40.2071 31.644 41.3165 30.5837 41.5914C30.0633 41.7289 29.5233 41.6602 29.0619 41.3951C28.6004 41.1202 28.2764 40.6882 28.1291 40.1678C27.9917 39.6474 28.0604 39.1074 28.3255 38.646C28.6004 38.1845 29.0226 37.8507 29.5331 37.7133C29.7099 37.6642 29.8866 37.6445 30.0535 37.6445C30.4069 37.6445 30.7408 37.7329 31.0549 37.9293" fill="#D64000"></path>
  <path d="M23.6618 15.7086C22.6014 15.9934 21.5018 15.3552 21.2072 14.285C20.9225 13.2148 21.5607 12.1054 22.6211 11.8304C22.788 11.7814 22.9647 11.7617 23.1414 11.7617C24.0251 11.7617 24.84 12.3508 25.0756 13.2443C25.3702 14.3144 24.7222 15.4239 23.6618 15.7086Z" fill="#D64000"></path>
  <path d="M17.1622 19.7439C18.5563 19.7439 19.6854 18.6148 19.6854 17.2206C19.6854 15.8264 18.5563 14.6875 17.1622 14.6875C15.768 14.6875 14.6389 15.8166 14.6389 17.2206C14.6389 18.6246 15.768 19.7439 17.1622 19.7439Z" fill="#D64000"></path>
  <path d="M166.389 8.82812H172.977C176.541 8.82812 178.927 10.9194 178.927 14.179C178.927 16.2409 177.837 17.8903 176.148 18.6954L179.339 24.8809H175.5L172.771 19.4907H169.864V24.8809H166.399V8.82812H166.389ZM169.855 11.695V16.6238H172.702C174.341 16.6238 175.382 15.6616 175.382 14.1692C175.382 12.6769 174.341 11.695 172.702 11.695H169.855Z" fill="black"></path>
  <path d="M179.84 19.0089C179.84 15.3369 182.275 12.9609 185.947 12.9609C189.619 12.9609 191.916 15.1602 191.955 18.626C191.955 18.9697 191.936 19.3624 191.867 19.7257H183.237V19.8828C183.305 21.5617 184.395 22.5631 186.035 22.5631C187.351 22.5631 188.273 21.9937 188.558 20.8842H191.779C191.405 23.1817 189.344 25.0078 186.172 25.0078C182.216 25.0078 179.83 22.6515 179.83 18.9991M188.666 17.6049C188.44 16.1617 187.439 15.3566 185.956 15.3566C184.474 15.3566 183.472 16.2108 183.296 17.6049H188.666Z" fill="black"></path>
  <path d="M201.391 13.0958H204.65V24.8874H201.764L201.459 23.4638C200.703 24.3768 199.663 25.015 197.964 25.015C195.509 25.015 193.241 23.7976 193.241 19.6248V13.0859H196.501V19.183C196.501 21.2939 197.198 22.3248 198.808 22.3248C200.419 22.3248 201.381 21.1467 201.381 18.9768V13.0958H201.391Z" fill="black"></path>
  <path d="M206.584 9.79688H209.844V13.0958H212.554V15.8351H209.844V20.9896C209.844 21.8143 210.168 22.1678 211.003 22.1678H212.691V24.8972H209.981C207.713 24.8972 206.584 23.778 206.584 21.5296V9.80669V9.79688Z" fill="black"></path>
  <path d="M213.231 19.0089C213.231 15.3369 215.666 12.9609 219.338 12.9609C223.01 12.9609 225.308 15.1602 225.347 18.626C225.347 18.9697 225.327 19.3624 225.259 19.7257H216.628V19.8828C216.697 21.5617 217.787 22.5631 219.427 22.5631C220.742 22.5631 221.665 21.9937 221.95 20.8842H225.16C224.787 23.1817 222.725 25.0078 219.564 25.0078C215.617 25.0078 213.231 22.6515 213.231 18.9991M222.077 17.6049C221.852 16.1617 220.85 15.3566 219.368 15.3566C217.885 15.3566 216.884 16.2108 216.707 17.6049H222.077Z" fill="black"></path>
  <path d="M234.046 13.0977V16.0333H232.75C230.806 16.0333 230.069 17.3195 230.069 19.1064V24.8893H226.81V13.0977H229.775L230.079 14.8649C230.727 13.8144 231.65 13.0977 233.496 13.0977H234.056H234.046Z" fill="black"></path>
  <path d="M237.669 20.9631C237.787 21.994 238.69 22.7107 240.28 22.7107C241.645 22.7107 242.48 22.2787 242.48 21.4441C242.48 20.482 241.665 20.4132 239.75 20.158C236.972 19.834 234.821 19.2154 234.821 16.7903C234.821 14.3652 236.883 12.922 239.937 12.9416C243.128 12.9416 245.327 14.3358 245.484 16.7412H242.362C242.273 15.7987 241.36 15.2292 240.055 15.2292C238.749 15.2292 237.953 15.6907 237.953 16.4467C237.953 17.3401 238.975 17.4285 240.683 17.6445C243.412 17.9194 245.68 18.538 245.68 21.1987C245.68 23.5354 243.461 25.0278 240.271 25.0278C237.08 25.0278 234.723 23.4961 234.576 20.9631H237.669Z" fill="black"></path>
  <path d="M62.0018 8.73828H74.844V11.6936H70.1509V24.791H66.6753V11.6936H62.0018V8.73828Z" fill="black"></path>
  <path d="M87.4506 18.2521V24.791H84.1909V18.527C84.1909 16.6026 83.4055 15.5325 81.7757 15.5325C80.1458 15.5325 79.1149 16.7303 79.1149 18.743V24.791H75.8553V8.73828H79.1149V14.4426C79.8709 13.5296 80.9411 12.8619 82.6396 12.8619C85.2709 12.8619 87.4506 14.2659 87.4506 18.2521Z" fill="black"></path>
  <path d="M88.6877 18.8995C88.6877 15.2765 91.1717 12.8711 94.9615 12.8711C98.7513 12.8711 101.235 15.2765 101.235 18.8995C101.235 22.5224 98.7513 24.9278 94.9615 24.9278C91.1717 24.9278 88.6877 22.5224 88.6877 18.8995ZM97.9167 18.8995C97.9167 16.9064 96.7876 15.5122 94.9516 15.5122C93.1156 15.5122 92.0062 16.9064 92.0062 18.8995C92.0062 20.8925 93.1156 22.2867 94.9516 22.2867C96.7876 22.2867 97.9167 20.8827 97.9167 18.8995Z" fill="black"></path>
  <path d="M121.313 18.0145V24.7792H118.054V18.201C118.054 16.4337 117.406 15.5206 115.992 15.5206C114.578 15.5206 113.636 16.5515 113.636 18.3385V24.7792H110.376V18.201C110.376 16.4337 109.728 15.5206 108.295 15.5206C106.861 15.5206 105.958 16.5908 105.958 18.3581V24.7792H102.698V12.9974H105.545L105.85 14.4603C106.567 13.5472 107.607 12.8795 109.345 12.8599C110.808 12.8403 112.163 13.3606 112.909 14.853C113.744 13.5865 115.128 12.8599 116.944 12.8599C119.399 12.8599 121.333 14.2345 121.333 18.0145" fill="black"></path>
  <path d="M125.653 20.8654C125.771 21.8963 126.674 22.613 128.265 22.613C129.629 22.613 130.464 22.181 130.464 21.3465C130.464 20.3843 129.649 20.3156 127.735 20.0603C124.956 19.7363 122.806 19.1178 122.806 16.6927C122.806 14.2676 124.868 12.8243 127.921 12.8439C131.112 12.8439 133.311 14.2381 133.468 16.6436H130.346C130.258 15.701 129.345 15.1316 128.039 15.1316C126.733 15.1316 125.928 15.593 125.928 16.349C125.928 17.2425 126.949 17.3309 128.657 17.5469C131.387 17.8218 133.655 18.4403 133.655 21.101C133.655 23.4378 131.436 24.9301 128.245 24.9301C125.054 24.9301 122.698 23.3985 122.551 20.8654H125.653Z" fill="black"></path>
  <path d="M134.47 18.8995C134.47 15.2765 136.954 12.8711 140.744 12.8711C144.533 12.8711 147.017 15.2765 147.017 18.8995C147.017 22.5224 144.533 24.9278 140.744 24.9278C136.954 24.9278 134.47 22.5224 134.47 18.8995ZM143.699 18.8995C143.699 16.9064 142.57 15.5122 140.734 15.5122C138.898 15.5122 137.788 16.9064 137.788 18.8995C137.788 20.8925 138.898 22.2867 140.734 22.2867C142.57 22.2867 143.699 20.8827 143.699 18.8995Z" fill="black"></path>
  <path d="M160.046 18.2536V24.7925H156.787V18.5677C156.787 16.5747 156.031 15.5143 154.371 15.5143C152.712 15.5143 151.711 16.7121 151.711 18.7445V24.7728H148.451V12.991H151.298L151.603 14.4539C152.359 13.5408 153.448 12.8438 155.284 12.8438C157.847 12.8438 160.046 14.1987 160.046 18.2339" fill="black"></path>
  <path d="M72.36 28.668V31.5643H65.3596V35.256H71.1033V38.0149H65.3596V44.4065H62.0018V28.668H72.36Z" fill="black"></path>
  <path d="M72.5073 38.6254C72.5073 35.0712 74.9029 32.7148 78.5848 32.7148C82.2666 32.7148 84.6622 35.081 84.6622 38.6254C84.6622 42.1698 82.2666 44.5359 78.5848 44.5359C74.9029 44.5359 72.5073 42.1796 72.5073 38.6254ZM81.4517 38.6254C81.4517 36.6716 80.352 35.297 78.5848 35.297C76.8175 35.297 75.7375 36.6716 75.7375 38.6254C75.7375 40.5792 76.8175 41.9538 78.5848 41.9538C80.352 41.9538 81.4517 40.5792 81.4517 38.6254Z" fill="black"></path>
  <path d="M86.0269 39.5967V32.8516H89.1884V39.145C89.1884 40.9908 89.8658 41.9137 91.4269 41.9137C92.988 41.9137 93.9207 40.8534 93.9207 39.0174V32.8516H97.0822V44.4076H94.284L93.9895 43.0134C93.2727 43.9167 92.2615 44.545 90.6022 44.545C88.2262 44.545 86.0269 43.5534 86.0269 39.5967Z" fill="black"></path>
  <path d="M98.8004 32.8503H101.559L101.854 34.2936C102.59 33.3903 103.651 32.7227 105.398 32.7227C107.912 32.7227 110.013 34.0481 110.013 38.0048V44.4161H106.851V38.2503C106.851 36.3161 106.085 35.3245 104.544 35.3245C102.865 35.3245 101.962 36.3554 101.962 38.3387V44.4063H98.8004V32.8503Z" fill="black"></path>
  <path d="M111.427 38.606C111.427 35.0322 113.695 32.7151 116.768 32.7151C118.358 32.7151 119.507 33.3434 120.243 34.286V28.6602H123.405V40.7758C123.405 41.4729 123.611 41.7183 124.298 41.7183H124.632V44.3987H123.513C121.716 44.3987 120.931 43.9078 120.685 42.5332C119.811 43.8391 118.466 44.5362 116.807 44.5362C113.695 44.5362 111.427 42.2682 111.427 38.5962M120.283 38.6452C120.283 36.662 119.203 35.2972 117.484 35.2972C115.766 35.2972 114.657 36.6423 114.657 38.6256C114.657 40.6089 115.756 41.954 117.484 41.954C119.212 41.954 120.283 40.6089 120.283 38.6452Z" fill="black"></path>
  <path d="M131.141 32.7148C134.372 32.7148 136.227 34.1581 136.227 36.917V41.0112C136.227 41.6003 136.453 41.7279 136.944 41.7279H137.327V44.4083H135.844C134.165 44.4083 133.625 43.6916 133.576 42.5428C132.771 43.7996 131.583 44.5458 129.679 44.5458C127.322 44.5458 125.535 43.3578 125.535 41.1487C125.535 38.7432 127.371 37.3687 130.827 37.3687H133.115V36.7403C133.115 35.7094 132.379 35.0319 131.004 35.0319C129.816 35.0319 128.981 35.5719 128.854 36.4261H125.8C126.026 34.1974 128.088 32.7148 131.132 32.7148M128.707 40.9032C128.707 41.6887 129.355 42.2483 130.415 42.2483C132.074 42.2483 133.105 41.237 133.105 39.7054V39.4796H130.749C129.423 39.4796 128.707 39.9508 128.707 40.8934" fill="black"></path>
  <path d="M139.261 35.5219H137.356V32.8416H139.261V29.6016H142.423V32.8416H145.132V35.5219H142.423V40.5783C142.423 41.3932 142.737 41.727 143.561 41.727H145.132V44.4074H142.55C140.351 44.4074 139.251 43.3077 139.251 41.0987V35.5219H139.261Z" fill="black"></path>
  <path d="M146.752 29.7686C146.752 28.8261 147.469 28.1094 148.431 28.1094C149.393 28.1094 150.11 28.8261 150.11 29.7686C150.11 30.7112 149.393 31.4279 148.431 31.4279C147.469 31.4279 146.752 30.7308 146.752 29.7686ZM150.022 44.4076H146.86V32.8516H150.022V44.4076Z" fill="black"></path>
  <path d="M151.504 38.6254C151.504 35.0712 153.9 32.7148 157.582 32.7148C161.264 32.7148 163.659 35.081 163.659 38.6254C163.659 42.1698 161.264 44.5359 157.582 44.5359C153.9 44.5359 151.504 42.1796 151.504 38.6254ZM160.449 38.6254C160.449 36.6716 159.349 35.297 157.582 35.297C155.815 35.297 154.735 36.6716 154.735 38.6254C154.735 40.5792 155.815 41.9538 157.582 41.9538C159.349 41.9538 160.449 40.5792 160.449 38.6254Z" fill="black"></path>
  <path d="M165.093 32.8503H167.852L168.146 34.2936C168.883 33.3903 169.943 32.7227 171.691 32.7227C174.204 32.7227 176.305 34.0481 176.305 38.0048V44.4161H173.144V38.2503C173.144 36.3161 172.378 35.3245 170.836 35.3245C169.157 35.3245 168.254 36.3554 168.254 38.3387V44.4063H165.093V32.8503Z" fill="black"></path>
</svg>
