<?xml version="1.0" encoding="iso-8859-1"?>
<!-- Generator: Adobe Illustrator 23.0.1, SVG Export Plug-In . SVG Version: 6.00 Build 0)  -->
<svg version="1.1" id="Layer_1" xmlns="http://www.w3.org/2000/svg" xmlns:xlink="http://www.w3.org/1999/xlink" x="0px" y="0px"
	 viewBox="0 0 512 512" style="enable-background:new 0 0 512 512;" xml:space="preserve">
<g>
	<path style="fill:#CB2D35;" d="M78.897,274.618L78.897,274.618c-2.024,2.071-5.062,2.761-7.088,3.106
		c-3.714,0.345-7.766-1.035-10.466-4.142c-2.026-2.761-3.039-6.212-5.065-8.974c-3.376-4.142-8.44-7.249-13.505-6.215
		c-10.466,2.073-14.855,15.189-9.453,24.164c8.441,12.771,27.347,10.701,37.138,1.726C73.497,281.522,76.535,278.415,78.897,274.618
		z"/>
	<path style="fill:#CB2D35;" d="M433.062,274.618L433.062,274.618c2.024,2.071,5.066,2.761,6.753,3.106
		c4.049,0.345,7.765-1.035,10.465-4.142c2.029-2.761,3.041-6.212,5.066-8.974c3.374-4.142,8.44-7.249,13.843-6.215
		c10.464,2.073,15.211,15.189,9.115,24.164c-8.44,12.771-27.349,10.701-37.138,1.726
		C438.127,281.522,435.424,278.415,433.062,274.618z"/>
	<path style="fill:#502D78;" d="M398.285,205.927L398.285,205.927c-0.337,0-25.32,0-25.657,0c-2.699,0-5.066,2.763-5.066,5.525
		c0,3.107,2.366,5.865,5.066,6.21c0.337,0,25.32,0,25.657,0c2.704-0.345,4.728-3.103,5.066-5.865
		C403.351,209.034,400.989,205.927,398.285,205.927z"/>
	<path style="fill:#502D78;" d="M239.268,263.919L239.268,263.919c-0.337-1.728-0.675-3.107-0.675-4.836c0-2.069,0-5.176,0-7.939
		c0.337-10.007,2.024-27.268-10.469-27.268c-8.44,0-13.501,7.594-14.855,10.012c-0.338-6.904-5.399-11.735-13.164-11.735
		c-5.066,0-8.102,4.142-8.102,4.142s5.061,1.724,5.061,8.628c0,5.176,0,29.341,0,29.686c0,4.142,3.041,8.284,8.103,8.284
		c5.066,0,8.102-4.142,8.102-8.284v-21.747c0.679-3.452,2.366-7.249,5.403-7.249c3.379,0,3.716,4.486,3.716,4.486v20.713
		c0,0.69,0,1.379,0.337,2.069c0,1.039,0.337,2.073,0.675,3.107c2.024,4.143,6.415,6.905,12.152,6.905
		c5.066,0,8.107-4.142,8.107-4.142S240.618,267.715,239.268,263.919z"/>
	<path style="fill:#502D78;" d="M359.46,263.919L359.46,263.919c-0.338-1.728-0.338-3.107-0.338-4.836v-51.428
		c0-5.18-4.049-8.977-8.777-8.977c-4.728,0-8.44,3.797-8.44,8.977v45.563c0,4.142-0.337,8.283,1.35,12.08
		c2.024,4.488,6.753,7.594,12.493,7.594c5.061,0,8.102-4.142,8.102-4.142S360.81,267.715,359.46,263.919z"/>
	<path style="fill:#502D78;" d="M169.045,223.532L169.045,223.532c-12.831,0-23.3,11.046-23.3,24.51
		c0,13.804,10.469,24.85,23.3,24.85c12.826,0,23.295-11.046,23.295-24.85C192.34,234.578,181.871,223.532,169.045,223.532z
		 M169.382,262.535L169.382,262.535h-0.337c-4.391-0.345-6.415-5.521-6.415-14.493c0-8.633,2.699-14.153,6.415-14.153l0,0h0.337
		c3.712,0,6.411,5.521,6.411,14.153C175.793,257.015,173.769,262.191,169.382,262.535z"/>
	<path style="fill:#502D78;" d="M291.262,263.919L291.262,263.919c-0.337-1.728-0.337-3.107-0.675-4.836v-51.428
		c0-5.18-3.716-8.977-8.44-8.977c-4.728,0-8.44,3.797-8.44,8.977v24.505c-2.029-3.107-6.753-8.283-13.843-8.283
		c-19.583,0-20.596,37.279-7.427,46.254c4.049,2.761,9.79,3.452,13.843,2.071c3.037-0.69,7.765-3.797,8.44-7.594
		c0.337,0.345,0.337,0.69,0.337,0.69c2.024,4.488,6.753,7.594,12.489,7.594c5.066,0,8.107-4.142,8.107-4.142
		S292.611,267.715,291.262,263.919z M265.942,260.812L265.942,260.812c-4.391,0-6.753-4.831-6.753-12.425s3.037-12.43,6.753-12.43
		l0,0c3.712,0,6.748,4.836,6.748,12.43S270.328,260.812,265.942,260.812z"/>
	<path style="fill:#502D78;" d="M335.828,257.704L335.828,257.704c0,0-2.699,3.452-12.156,3.452c-9.79,0-11.814-7.939-11.814-7.939
		c14.18,0,25.994-1.034,25.994-13.119c0-12.425-13.168-16.567-20.596-16.567c-12.826,0-21.946,11.046-21.946,25.199
		c0,15.877,11.819,24.161,21.946,24.161C334.815,272.892,335.828,257.704,335.828,257.704z M310.845,245.279L310.845,245.279
		c0.337-3.797,1.35-8.633,4.724-11.046c2.704-1.728,6.415,0.345,6.415,3.797c0.337,4.142-2.024,6.559-5.403,7.249
		C316.244,245.279,310.845,245.624,310.845,245.279z"/>
	<path style="fill:#502D78;" d="M404.026,257.704L404.026,257.704c0,0-2.699,3.452-12.156,3.452c-9.79,0-11.814-7.939-11.814-7.939
		c14.18,0,25.994-1.034,25.994-13.119c0-12.425-13.164-16.567-20.591-16.567c-12.831,0-21.946,11.046-21.946,25.199
		c0,15.877,11.814,24.161,21.946,24.161C403.014,272.892,404.026,257.704,404.026,257.704z M379.044,245.279L379.044,245.279
		c0.337-3.797,1.35-8.633,4.724-11.046c2.704-1.728,6.415,0.345,6.415,3.797c0.337,4.142-2.024,6.559-5.403,7.249
		C384.442,245.279,379.044,245.624,379.044,245.279z"/>
	<path style="fill:#502D78;" d="M436.099,258.738L436.099,258.738h-9.79c0.675,0,7.765-6.21,10.127-8.628
		c6.415-5.521,17.559-13.809,14.18-24.16c-0.675-2.418-2.362-3.797-2.362-3.797s-0.675,1.724-3.037,2.758
		c-1.017,0.345-1.691,0.345-2.704,0.694c-0.675,0-27.344,0-27.344,0c-3.379,0-6.415,2.758-6.415,6.555
		c0,3.452,2.699,6.559,6.415,6.559h15.193c-7.09,4.486-15.53,9.322-19.921,17.261c-2.362,4.142-5.066,11.046-4.054,16.222
		c3.379-3.107,12.493-6.215,19.246-4.831c2.699,0.689,5.403,2.069,7.428,3.45c12.831,8.629,20.596-8.286,14.518-15.535
		C447.58,255.286,443.864,258.738,436.099,258.738z"/>
	<path style="fill:#502D78;" d="M147.1,269.44L147.1,269.44c-7.765-9.318-10.131-24.506-10.806-34.862
		c-0.337-8.628,0-23.816,6.415-28.307c-2.024-3.103-6.415-4.142-9.452-4.142c-7.427,0-10.806,5.18-13.505,8.977
		c-0.675,1.034-13.168,19.329-13.168,19.329s-10.127-17.261-11.477-19.329c-1.692-2.763-5.066-7.939-10.806-8.633
		c-2.362-0.689-9.115-1.034-12.491,4.142c6.076,5.18,6.076,18.64,4.726,27.617c-4.051,26.923-14.855,29.341-14.855,29.341
		c5.402,15.877,19.583,9.663,23.632-3.107c2.704-8.283,4.391-18.64,4.728-27.268l15.53,25.539l17.892-25.539
		c-3.037,45.216,11.481,57.988,23.974,57.988c12.826,0,17.217-12.426,17.217-12.426C157.564,278.415,151.823,274.618,147.1,269.44z"
		/>
	<path style="fill:#502D78;" d="M186.6,283.938L186.6,283.938c0.337,0.69,0.337,1.381,0.337,2.071c0,0,0,23.472,0,23.817
		c0,1.726,1.687,3.452,3.374,3.452c2.029,0.345,3.716-1.381,4.054-3.452c0-0.345,0-21.401,0-21.401c0-1.726,0-3.452-0.675-5.178
		c-1.012-1.726-3.041-3.106-5.403-3.106c-2.024,0-3.374,1.726-3.374,1.726S186.262,282.212,186.6,283.938z"/>
	<path style="fill:#502D78;" d="M417.869,309.481L417.869,309.481c-0.338-0.69-0.338-1.381-0.338-2.071c0,0,0-23.472,0-23.817
		c0-1.726-1.687-3.452-3.716-3.452c-1.687,0-3.712,1.726-3.712,3.452c0,0.345,0,21.401,0,21.401c0,1.726,0,3.452,0.675,5.178
		c0.675,1.726,3.037,3.107,5.403,3.107c2.025,0,3.374-1.726,3.374-1.726S418.207,311.207,417.869,309.481z"/>
	<path style="fill:#502D78;" d="M285.858,292.222L285.858,292.222c-3.712,0-6.078,3.452-6.753,4.487c0-1.036,0-2.071,0-2.071
		c0-2.071-1.687-3.452-3.374-3.452c-2.024-0.345-3.716,1.381-3.716,3.452c0,0.345,0,14.843,0,15.188
		c0,1.726,1.691,3.452,3.379,3.452c1.687,0.345,3.712-1.381,3.712-3.452c0-0.345,0-5.178,0-8.975v-0.345
		c0.337-1.381,1.35-3.106,2.366-3.106c1.687,0,1.687,2.071,1.687,2.071v10.355c0.337,1.726,2.024,3.452,3.712,3.452
		c1.691,0.345,3.716-1.381,3.716-3.452v-5.523C290.587,298.78,291.262,292.222,285.858,292.222z"/>
	<path style="fill:#502D78;" d="M379.044,292.222L379.044,292.222c-3.716,0-6.078,3.452-6.753,4.487c0-1.036,0-2.071,0-2.071
		c0-2.071-1.687-3.452-3.379-3.452c-2.025-0.345-3.712,1.381-4.049,3.452c0,0.345,0,14.843,0,15.188
		c0.337,1.726,2.024,3.452,3.712,3.452c1.692,0.345,3.716-1.381,3.716-3.452c0-0.345,0-5.178,0-8.975v-0.345
		c0.337-1.381,1.35-3.106,2.362-3.106c1.687,0,1.687,2.071,1.687,2.071v10.355c0,1.726,2.029,3.452,3.716,3.452
		c1.687,0.345,3.712-1.381,3.712-3.452v-5.523C383.768,298.78,384.105,292.222,379.044,292.222z"/>
	<path style="fill:#502D78;" d="M211.92,292.222L211.92,292.222c-3.712,0-6.078,3.452-6.753,4.487c0-1.036,0-2.071,0-2.071
		c0-2.071-1.687-3.452-3.374-3.452c-2.025-0.345-3.716,1.381-4.054,3.452c0,0.345,0,14.843,0,15.188
		c0.337,1.726,2.029,3.452,3.716,3.452c1.687,0.345,3.712-1.381,3.712-3.452c0-0.345,0-5.178,0-8.975v-0.345
		c0.337-1.381,1.016-3.106,2.366-3.106c1.687,0,1.687,2.071,1.687,2.071v10.355c0,1.726,1.687,3.452,3.712,3.452
		c1.692,0.345,3.716-1.381,3.716-3.452v-5.523C216.648,298.78,216.985,292.222,211.92,292.222z"/>
	<path style="fill:#502D78;" d="M352.707,291.187L352.707,291.187c-5.74,0-10.464,4.833-10.464,11.046
		c0,6.213,4.724,11.045,10.464,11.045c5.741,0,10.132-4.833,10.132-11.045C362.839,296.019,358.448,291.187,352.707,291.187z
		 M352.707,308.791L352.707,308.791c-2.024-0.345-3.037-2.761-3.037-6.558c0-3.797,1.349-6.213,3.037-6.213l0,0
		c1.687,0,3.041,2.416,3.041,6.213C355.749,306.029,354.732,308.445,352.707,308.791z"/>
	<path style="fill:#502D78;" d="M313.882,294.293L313.882,294.293c0-2.071-2.024-3.797-3.716-3.797
		c-2.025,0-4.049,1.726-4.049,3.797c0,0.345,0,0.69,0,0.69c-1.012-1.38-3.037-3.797-6.078-3.797c-8.777,0-9.452,16.568-3.374,20.711
		c1.687,1.381,4.387,1.726,6.074,1.036c1.354-0.345,2.704-1.381,3.716-2.416c0.338,1.381,1.687,2.761,3.374,2.761
		c2.029,0.345,4.054-1.726,4.054-3.797C313.882,309.136,313.882,294.638,313.882,294.293z M302.738,307.755L302.738,307.755
		c-2.024,0-3.037-2.071-3.037-5.522c0-3.452,1.35-5.523,3.037-5.523l0,0c1.691,0,3.041,2.071,3.041,5.523
		C305.78,305.684,304.767,307.755,302.738,307.755z"/>
	<path style="fill:#502D78;" d="M406.725,294.293L406.725,294.293c0-2.071-1.687-3.797-3.374-3.797
		c-2.024,0-4.053,1.726-4.053,3.797c0,0.345,0,0.69,0,0.69c-1.012-1.38-3.037-3.797-6.074-3.797c-8.782,0-9.457,16.568-3.379,20.711
		c1.687,1.381,4.054,1.726,6.078,1.036c1.012-0.345,2.699-1.381,3.374-2.416c0.679,1.381,2.029,2.761,3.716,2.761
		c1.687,0.345,3.712-1.726,3.712-3.797C406.725,309.136,406.725,294.638,406.725,294.293z M395.586,307.755L395.586,307.755
		c-1.687,0-2.699-2.071-2.699-5.522c0-3.452,1.012-5.523,2.699-5.523l0,0c2.024,0,3.037,2.071,3.037,5.523
		C398.623,305.684,397.611,307.755,395.586,307.755z"/>
	<path style="fill:#502D78;" d="M339.876,296.364L339.876,296.364c0-1.726-1.35-3.452-3.374-3.452c0,0,0,0-0.337,0
		c-1.35,0-3.374,1.38-3.374,3.452v6.903c0,2.417,0,6.559,0,6.559c0,1.726,1.35,3.452,3.037,3.452c0.337,0,0.337,0,0.337,0
		c1.687,0,3.712-1.381,3.712-3.452v-5.868C339.876,301.887,339.876,296.364,339.876,296.364z"/>
	<path style="fill:#502D78;" d="M339.876,286.699L339.876,286.699c0,2.071-1.687,3.797-3.712,3.797
		c-2.024,0-3.374-1.726-3.374-3.797c0-2.071,1.35-3.797,3.374-3.797C338.189,282.902,339.876,284.628,339.876,286.699z"/>
	<path style="fill:#502D78;" d="M265.942,291.877L265.942,291.877c-2.029,0-3.041,1.726-4.728,4.142v-1.036
		c0-2.071-1.687-3.797-3.379-3.797c-1.687,0-3.712,1.726-3.712,3.797v5.523v9.32c0,2.071,1.687,3.452,3.374,3.452
		c2.029,0.345,3.716-1.381,3.716-3.452v-9.32c0.337-1.381,0.675-3.106,2.024-3.106s-0.337,3.797,3.041,3.797
		C271.341,301.197,271.678,291.532,265.942,291.877z"/>
	<path style="fill:#502D78;" d="M251.087,306.375L251.087,306.375c0,0-1.017,1.726-5.403,1.726c-4.391,0-5.403-3.452-5.403-3.452
		c6.415,0,11.818-0.69,11.818-6.213c0-5.523-5.74-7.249-9.119-7.249c-5.736,0-9.79,4.833-9.79,11.391c0,7.249,5.403,10.7,9.79,10.7
		C250.745,313.278,251.087,306.375,251.087,306.375z M239.943,300.852L239.943,300.852c0.337-1.726,0.675-3.797,2.024-4.833
		c1.349-0.69,3.041,0,3.041,1.726c0,1.726-1.012,2.761-2.366,3.106C242.305,301.197,239.943,301.197,239.943,300.852z"/>
	<path style="fill:#502D78;" d="M232.515,309.136L232.515,309.136c0,0-1.687,4.142-5.403,4.142c-2.699,0-6.415-2.761-6.415-6.558
		c0,0,0-5.868,0-10.355h-1.012c-0.675,0-1.35-0.345-1.35-1.726c0-1.38,1.012-1.726,1.35-1.726h1.012c0-1.726,0-2.762,0-3.106
		c0-2.071,1.692-3.797,3.716-3.452c1.687,0,3.374,1.726,3.374,3.452v3.106h3.041c0.675,0,1.687,0,1.687,1.726
		c0,1.381-1.012,1.726-1.687,1.726h-3.041v8.629C227.787,307.755,230.154,309.136,232.515,309.136z"/>
	<path style="fill:#502D78;" d="M330.087,309.136L330.087,309.136c0,0-2.024,4.142-5.403,4.142c-3.037,0-6.411-2.761-6.411-6.558
		c-0.337,0-0.337-5.868-0.337-10.355h-1.017c-0.337,0-1.35-0.345-1.35-1.726c0-1.38,1.012-1.726,1.687-1.726h0.679
		c0-1.726,0-2.762,0-3.106c0.337-2.071,2.024-3.797,4.049-3.452c1.687,0,3.379,1.726,3.379,3.452v3.106h3.037
		c0.338,0,1.35,0,1.35,1.726c0,1.381-1.012,1.726-1.35,1.726h-3.037v8.629C325.363,307.755,327.725,309.136,330.087,309.136z"/>
</g>
</svg>
