<?xml version="1.0" encoding="UTF-8"?>
<svg xmlns="http://www.w3.org/2000/svg" xmlns:xlink="http://www.w3.org/1999/xlink" width="194pt" height="194pt" viewBox="0 0 194 194" version="1.1">
<g id="surface1">
<path style=" stroke:none;fill-rule:evenodd;fill:rgb(100%,100%,100%);fill-opacity:1;" d="M 0.257813 0.675781 L 193.015625 0.675781 L 193.015625 193.433594 L 0.257813 193.433594 L 0.257813 0.675781 "/>
<path style=" stroke:none;fill-rule:evenodd;fill:rgb(35.293579%,35.68573%,36.470032%);fill-opacity:1;" d="M 75.4375 95.777344 L 75.429688 104.261719 C 74.855469 104.484375 73.632813 104.804688 71.363281 104.804688 C 65.789063 104.804688 62.183594 101.492188 62.183594 96.363281 C 62.183594 91.28125 65.90625 88 71.664063 88 C 73.839844 88 75.53125 88.320313 77.152344 89.042969 L 77.664063 89.269531 L 78.734375 85.929688 L 78.335938 85.742188 C 77.15625 85.191406 74.726563 84.542969 71.769531 84.542969 C 62.332031 84.542969 58.035156 90.734375 58.035156 96.484375 C 58.035156 99.824219 59.269531 102.894531 61.425781 104.90625 C 63.808594 107.148438 66.972656 108.238281 71.09375 108.238281 C 74.683594 108.238281 77.632813 107.359375 79.070313 106.835938 L 79.398438 106.714844 L 79.398438 95.785156 L 75.4375 95.777344 "/>
<path style=" stroke:none;fill-rule:evenodd;fill:rgb(35.293579%,35.68573%,36.470032%);fill-opacity:1;" d="M 86.359375 108.007813 L 90.363281 108.007813 L 90.363281 84.773438 L 86.359375 84.773438 L 86.359375 108.007813 "/>
<path style=" stroke:none;fill-rule:evenodd;fill:rgb(35.293579%,35.68573%,36.470032%);fill-opacity:1;" d="M 101.996094 104.492188 L 101.996094 84.773438 L 97.988281 84.773438 L 97.988281 108.007813 L 112.585938 108.007813 L 112.585938 104.492188 L 101.996094 104.492188 "/>
<path style=" stroke:none;fill-rule:evenodd;fill:rgb(35.293579%,35.68573%,36.470032%);fill-opacity:1;" d="M 121.609375 104.550781 L 121.609375 97.632813 L 131.246094 97.632813 L 131.246094 94.175781 L 121.609375 94.175781 L 121.609375 88.230469 L 131.804688 88.230469 L 131.804688 84.773438 L 117.605469 84.773438 L 117.605469 108.007813 L 132.347656 108.007813 L 132.347656 104.550781 L 121.609375 104.550781 "/>
<path style=" stroke:none;fill-rule:evenodd;fill:rgb(35.293579%,35.68573%,36.470032%);fill-opacity:1;" d="M 149.519531 84.773438 L 145.554688 84.773438 L 136.789063 108.007813 L 140.835938 108.007813 L 143.410156 100.914063 L 151.574219 100.914063 L 154.261719 108.007813 L 158.378906 108.007813 Z M 147.460938 89.347656 C 147.683594 90.050781 149.886719 95.90625 150.535156 97.597656 L 144.441406 97.597656 C 144.441406 97.597656 147.242188 90.046875 147.460938 89.347656 "/>
<path style=" stroke:none;fill-rule:evenodd;fill:rgb(35.293579%,35.68573%,36.470032%);fill-opacity:1;" d="M 181.152344 87.835938 C 178.855469 85.675781 175.285156 84.578125 170.542969 84.578125 L 163.070313 84.585938 L 163.070313 87.921875 L 170.628906 87.941406 C 174.109375 87.941406 176.710938 88.789063 178.367188 90.460938 C 179.707031 91.8125 180.375 93.660156 180.355469 95.964844 C 180.355469 98.515625 179.554688 100.660156 178.039063 102.167969 C 176.28125 103.925781 173.523438 104.847656 170.066406 104.839844 C 169.019531 104.839844 167.878906 104.824219 167.039063 104.738281 L 167.039063 94.222656 L 163.070313 94.222656 L 163.070313 107.917969 L 163.519531 107.964844 C 165.253906 108.140625 167.148438 108.222656 169.554688 108.222656 C 174.480469 108.222656 178.539063 106.941406 180.984375 104.609375 C 183.261719 102.378906 184.511719 99.265625 184.511719 95.847656 C 184.511719 92.574219 183.382813 89.878906 181.152344 87.835938 "/>
<path style=" stroke:none;fill-rule:evenodd;fill:rgb(84.312439%,21.176147%,28.234863%);fill-opacity:1;" d="M 44.949219 73.113281 C 44.949219 73.042969 44.890625 72.984375 44.820313 72.984375 L 44.820313 72.980469 L 44.816406 72.980469 C 44.808594 72.980469 44.804688 72.984375 44.800781 72.984375 C 14.761719 75.839844 10.933594 96.558594 20.753906 103.171875 C 19.058594 110.652344 20.636719 110.476563 20.636719 110.476563 C 20.9375 108.25 21.386719 106.035156 21.957031 103.863281 C 25.785156 89.285156 35.269531 76.570313 44.832031 73.246094 C 44.898438 73.234375 44.949219 73.183594 44.949219 73.113281 "/>
<path style=" stroke:none;fill-rule:evenodd;fill:rgb(84.312439%,21.176147%,28.234863%);fill-opacity:1;" d="M 43.359375 77.875 C 43.359375 77.800781 43.300781 77.742188 43.226563 77.742188 C 43.171875 77.742188 43.121094 77.777344 43.101563 77.832031 C 40.621094 82.699219 39.902344 89.667969 38.011719 95 C 35.847656 101.101563 32.003906 105.210938 26.0625 104.820313 L 26.0625 119.652344 C 26.0625 119.652344 10.203125 112.476563 10.203125 100.941406 L 10.203125 79.328125 L 23.164063 78.144531 C 23.167969 78.144531 23.167969 78.144531 23.167969 78.144531 C 23.242188 78.144531 23.300781 78.085938 23.300781 78.007813 C 23.300781 77.9375 23.246094 77.882813 23.175781 77.878906 L 23.175781 77.875 L 8.761719 77.875 L 8.761719 100.941406 C 8.761719 113.921875 26.058594 121.128906 26.058594 121.128906 C 26.058594 121.128906 43.363281 113.800781 43.363281 100.941406 L 43.363281 77.875 L 43.359375 77.875 "/>
</g>
</svg>
