<?xml version="1.0" encoding="UTF-8"?> <svg xmlns="http://www.w3.org/2000/svg" xmlns:xlink="http://www.w3.org/1999/xlink" version="1.1" id="Layer_1" x="0px" y="0px" viewBox="0 0 1000 1000" style="enable-background:new 0 0 1000 1000;" xml:space="preserve"> <style type="text/css"> .st0{clip-path:url(#SVGID_00000167394179241966398640000009178310361548848516_);} .st1{clip-path:url(#SVGID_00000073687749115349628200000015266420471970544285_);fill:url(#SVGID_00000127740810126050335300000004269338763065834892_);} .st2{clip-path:url(#SVGID_00000145741403608872691080000010320512659556901764_);} .st3{clip-path:url(#SVGID_00000152957474896511899070000005437135901044229055_);fill:#FFC100;} </style> <g> <g> <g> <g> <g> <defs> <rect id="SVGID_1_" x="147.1" y="159.2" width="705.8" height="681.5"></rect> </defs> <clipPath id="SVGID_00000087403225469726615380000003049164435415858357_"> <use xlink:href="#SVGID_1_" style="overflow:visible;"></use> </clipPath> <g style="clip-path:url(#SVGID_00000087403225469726615380000003049164435415858357_);"> <g> <g> <defs> <path id="SVGID_00000144304426764665345680000017898684619649266332_" d="M284.9,262.4v34.6l-46.1,25v34.6l-46.5,25 c4.6,32,19.8,136.8,96.4,239.6C366.6,727.2,469.1,778.5,500,794.4c30.9-15.8,133.4-67.1,211.3-173.1 C788,518.5,803,413.7,807.7,381.7l-46.5-25v-34.6l-46.1-25v-34.6c-63.8-30.4-134.2-50.4-215-61.1 C419.1,212,348.8,232,284.9,262.4"></path> </defs> <clipPath id="SVGID_00000104672214192182910530000008328470071946508934_"> <use xlink:href="#SVGID_00000144304426764665345680000017898684619649266332_" style="overflow:visible;"></use> </clipPath> <linearGradient id="SVGID_00000002347870438416750860000006029402315369403015_" gradientUnits="userSpaceOnUse" x1="-8449.541" y1="-1460.4966" x2="-8447.9014" y2="-1460.4966" gradientTransform="matrix(375.1499 0 0 -375.1499 3170036.75 -547407.3125)"> <stop offset="0" style="stop-color:#4047FF"></stop> <stop offset="1" style="stop-color:#04006C"></stop> </linearGradient> <rect x="192.3" y="201.3" style="clip-path:url(#SVGID_00000104672214192182910530000008328470071946508934_);fill:url(#SVGID_00000002347870438416750860000006029402315369403015_);" width="615.4" height="593.1"></rect> </g> </g> </g> </g> </g> <g> <g> <defs> <rect id="SVGID_00000163050852415920848590000008466536573814502272_" x="147.1" y="159.2" width="705.8" height="681.5"></rect> </defs> <clipPath id="SVGID_00000106122730069571688460000007126873954189627305_"> <use xlink:href="#SVGID_00000163050852415920848590000008466536573814502272_" style="overflow:visible;"></use> </clipPath> <g style="clip-path:url(#SVGID_00000106122730069571688460000007126873954189627305_);"> <g> <g> <defs> <rect id="SVGID_00000024713222950176296640000015385117322711483011_" x="-506.4" y="-126.7" width="2007.9" height="1299.2"></rect> </defs> <clipPath id="SVGID_00000065791667171267755560000012123321677264187834_"> <use xlink:href="#SVGID_00000024713222950176296640000015385117322711483011_" style="overflow:visible;"></use> </clipPath> <path style="clip-path:url(#SVGID_00000065791667171267755560000012123321677264187834_);fill:#FFC100;" d="M802.7,331.8 v-34.5l-46.1-25v-36.1L733,224.9c-67.3-32-141.6-53.5-227.3-64.9l-5.6-0.8l-5.6,0.8c-85.8,11.4-160.1,32.8-227.3,64.9 l-23.6,11.3v36.1l-46.1,25v34.5l-50.1,26.9l4,28.6c13.3,96.2,48.3,183.1,104.2,258.6c56.4,76.3,132.5,138.7,226.2,185.6 l18.5,9.3l18.5-9.3c93.8-46.9,169.8-109.3,226.2-185.6c55.8-75.5,90.8-162.6,104.2-258.6l4-28.6L802.7,331.8z M807.6,381.6 c-4.6,32-19.8,136.8-96.4,239.6c-77.9,105.9-180.4,157.2-211.3,173.1c-30.9-15.8-133.4-67.1-211.3-173.1 c-76.7-102.8-91.7-207.6-96.4-239.6l46.5-25v-34.6l46.1-25v-34.6c63.8-30.4,134.2-50.4,215-61.1 c80.9,10.8,151.2,30.8,215,61.1v34.6l46.1,25v34.6L807.6,381.6z M478.2,276.2V722c-31-33-59.1-74.3-79.3-116l-41,24.6 c-53.1-58.9-89.5-131.3-112.5-226.8c11.8-13.8,23.9-26,36-36.9c17.6,79.5,43.4,146.7,82.8,201.8l14.9-8.6 c-26.3-71-40.9-145.9-47.3-231.5c15.9-10.1,31.4-18.3,46.1-24.8c5.6,94.3,23.4,188.3,53.1,263.6l2-1.1L431,284.7 C446.9,280.4,462.5,277.7,478.2,276.2 M694.7,429.7c16.6-18.5,20.3-31.9,20.3-48.1c0-23-19-43.5-46.6-61.1 c-16.8-10.6-42.3-23.5-79.7-33.9c-21.5-5.8-43.9-9.3-66.9-10.3v445.8c93.7-48.3,205.1-180.4,205.6-247.6 C727.6,453.7,716.7,440.4,694.7,429.7 M567.8,329.4c23,0,97.7,23.6,97.7,53.4c0,10.8-9.5,26.1-39,41.6L567.8,456V329.4 L567.8,329.4z M625.9,576.7c-13.1,15.3-34.8,38.4-58.1,56.4V505.3c0,0,84.7-47.6,87.8-49.6c25.4,6.4,24,25,24,27 C679.7,506,655.7,542.4,625.9,576.7"></path> </g> </g> </g> </g> </g> </g> </g> </g> </svg> 