<?xml version="1.0" encoding="utf-8"?>
<!-- Generator: Adobe Illustrator 26.5.0, SVG Export Plug-In . SVG Version: 6.00 Build 0)  -->
<svg version="1.1" id="Layer_1" xmlns="http://www.w3.org/2000/svg" xmlns:xlink="http://www.w3.org/1999/xlink" x="0px" y="0px"
	 viewBox="0 0 965.6 932.7" style="enable-background:new 0 0 965.6 932.7;" xml:space="preserve">
<style type="text/css">
	.st0{fill:url(#SVGID_1_);}
	.st1{fill:url(#SVGID_00000088839302762476275580000015462396464811892143_);}
	.st2{fill:url(#SVGID_00000170247021373215033720000012543807672266842266_);}
</style>
<g id="Shield">
	<g>
		<linearGradient id="SVGID_1_" gradientUnits="userSpaceOnUse" x1="25.1134" y1="466.3577" x2="879.42" y2="466.3577">
			<stop  offset="0" style="stop-color:#015CFE"/>
			<stop  offset="1" style="stop-color:#015CFE;stop-opacity:6.126538e-02"/>
		</linearGradient>
		<path class="st0" d="M897.6,236v-47.4l-63.4-34.4v-49.7l-32.1-15.3c-92.4-43.5-194-72.6-311.7-88.6L482.8,0l-7.6,0.8
			c-116.9,16-219.2,45.1-310.9,89.4l-32.1,15.3v49.7l-63.4,33.6V236L0,272.7l5.3,39c18.3,131.4,66.5,250.6,142.8,353.7
			c77.2,104.7,181,190.2,309.4,254.4l25.2,13l25.2-13C636.3,855.6,740.2,770,817.4,665.4c76.4-103.1,124.5-222.3,142.8-353.7l5.3-39
			L897.6,236z M904.5,304c-6.1,43.5-26.7,187.2-132.2,327.7C665.4,776.9,525.6,847.2,482.8,868.5c-42-21.4-182.6-91.7-289.5-236.8
			C88.6,491.9,68,348.3,61.9,304l63.4-34.4v-47.4l63.4-34.4v-47.4c87.1-42,183.3-68.8,294.1-84c110.8,14.5,207,42,294.1,84v47.4
			l63.4,34.4v47.4L904.5,304z"/>
	</g>
	<g>
		
			<linearGradient id="SVGID_00000129194163196423910020000011232733726770332070_" gradientUnits="userSpaceOnUse" x1="25.1134" y1="464.4479" x2="879.42" y2="464.4479">
			<stop  offset="0" style="stop-color:#015CFE"/>
			<stop  offset="1" style="stop-color:#015CFE;stop-opacity:6.126538e-02"/>
		</linearGradient>
		<path style="fill:url(#SVGID_00000129194163196423910020000011232733726770332070_);" d="M388.8,171.1l3.1,385.8l-3.1,1.5
			c-40.5-103.1-64.9-231.5-72.6-360.6c-19.9,9.2-41.3,19.9-63.4,33.6c9.2,116.9,29,219.2,64.9,317l-20.6,11.5
			c-54.2-75.6-89.4-167.3-113.1-276.5c-16.8,15.3-32.8,32.1-49.7,50.4c31.3,130.6,81.7,229.9,154.3,310.1l55.8-33.6
			C372,667.6,410.2,724.2,453,769.2V159.7C431.6,161.9,410.2,165.8,388.8,171.1z"/>
	</g>
	<g>
		
			<linearGradient id="SVGID_00000107582677827108049380000009027732484598548123_" gradientUnits="userSpaceOnUse" x1="25.1134" y1="465.5938" x2="879.42" y2="465.5938">
			<stop  offset="0" style="stop-color:#015CFE"/>
			<stop  offset="1" style="stop-color:#015CFE;stop-opacity:6.126538e-02"/>
		</linearGradient>
		<path style="fill:url(#SVGID_00000107582677827108049380000009027732484598548123_);" d="M749.4,370.5
			c22.9-25.2,27.5-43.5,27.5-65.7c0-31.3-26-59.6-64.2-84c-22.9-14.5-58.1-32.1-109.2-46.6c-29-7.6-60.3-13-91.7-13.8v610.4
			C640.1,705.1,792.2,524,792.9,431.6C794.5,403.3,779.9,385,749.4,370.5z M576,233c31.3,0,133.7,32.1,133.7,73.3
			c0,14.5-13,35.9-53.5,57.3L576,406.4V233z M655.4,571.4c-18.3,20.6-47.4,52.7-79.4,77.2V473.6c0,0,116.1-64.9,119.9-68
			c34.4,9.2,32.8,34.4,32.8,36.7C728.8,474.4,695.9,524,655.4,571.4z"/>
	</g>
</g>
</svg>
