<svg xmlns="http://www.w3.org/2000/svg" width="100" height="33" fill="none" viewBox="0 0 100 33"><g clip-path="url(#a)"><path fill="#161D26" d="M4.84 17.498q-1.437 0-2.531-.625a4.5 4.5 0 0 1-1.701-1.774Q0 13.95 0 12.459q0-1.795.891-3.146.912-1.35 2.572-2.076 1.68-.726 3.93-.726 1.033 0 1.68.141V6.23q0-1.531-.566-2.278-.568-.766-1.722-.766-1.863 0-2.39 1.956-.161.564-.668.483L.972 5.141Q.67 5.08.547 4.878q-.102-.2-.02-.544.525-2.055 2.228-3.185Q4.475 0 7.069 0q3.078 0 4.678 1.653 1.62 1.653 1.62 4.818v10.14a.52.52 0 0 1-.162.383.5.5 0 0 1-.364.141h-2.633q-.486 0-.608-.524l-.405-1.895h-.162q-.546 1.33-1.64 2.056-1.074.726-2.552.726m-.425-5.524q0 1.07.547 1.714.567.625 1.52.625 1.255 0 1.923-1.109.669-1.13.669-3.225V8.91A6 6 0 0 0 8 8.81q-1.66 0-2.633.866-.952.847-.952 2.298M15.88.887a.5.5 0 0 1 .142-.363.53.53 0 0 1 .384-.161h2.674q.222 0 .364.141a.63.63 0 0 1 .203.383l.405 1.976h.162q.547-1.391 1.56-2.117Q22.806 0 24.203 0q1.5 0 2.572.786 1.095.786 1.681 2.238h.163q.89-1.532 2.005-2.278A4.38 4.38 0 0 1 33.114 0q1.5 0 2.593.806 1.114.807 1.702 2.298t.587 3.528v9.979a.52.52 0 0 1-.162.383.5.5 0 0 1-.365.141h-3.24a.57.57 0 0 1-.385-.141.56.56 0 0 1-.142-.383V6.955q0-1.472-.567-2.258t-1.64-.786q-1.176 0-1.803.927-.608.927-.608 2.681v9.092a.52.52 0 0 1-.162.383.5.5 0 0 1-.364.141h-3.24a.57.57 0 0 1-.386-.141.56.56 0 0 1-.141-.383V6.955q0-1.472-.568-2.258-.566-.786-1.64-.786-1.174 0-1.803.927-.607.927-.607 2.681v9.092a.52.52 0 0 1-.162.383.5.5 0 0 1-.365.141h-3.24a.57.57 0 0 1-.385-.141.56.56 0 0 1-.142-.383zm24.223 11.571q0-1.794.892-3.145.911-1.35 2.572-2.076 1.68-.726 3.929-.726 1.034 0 1.68.141V6.23q0-1.531-.566-2.278-.567-.766-1.722-.766-1.863 0-2.39 1.956-.161.564-.668.483l-2.754-.483q-.305-.06-.426-.263-.1-.2-.02-.544.526-2.055 2.228-3.185Q44.579 0 47.17 0q3.078 0 4.678 1.653 1.62 1.653 1.62 4.818v10.14a.52.52 0 0 1-.161.383.5.5 0 0 1-.365.141H50.31q-.486 0-.608-.524l-.404-1.895h-.163q-.546 1.33-1.64 2.056-1.074.726-2.552.726c-.986 0-1.803-.208-2.532-.625a4.5 4.5 0 0 1-1.701-1.774q-.608-1.149-.608-2.64m4.416-.484q0 1.07.546 1.714.568.625 1.52.625 1.255 0 1.924-1.109.668-1.13.668-3.225V8.91a6 6 0 0 0-1.074-.1q-1.66 0-2.633.866-.951.847-.951 2.298m11.14 2.198q0-.444.242-.766l6.927-9.656h-6.481a.57.57 0 0 1-.385-.142.56.56 0 0 1-.142-.383V.887a.5.5 0 0 1 .142-.363.53.53 0 0 1 .385-.161h10.653q.223 0 .365.161a.46.46 0 0 1 .162.363v2.44q0 .443-.243.765l-6.279 8.588q.567-.1 1.155-.1 1.458 0 2.673.261 1.236.241 2.552.807.465.2.466.685v2.318q0 .323-.203.444-.202.1-.506-.02-1.519-.565-2.694-.787a12.4 12.4 0 0 0-2.532-.242c-.918 0-1.795.081-2.673.242q-1.296.243-2.876.787-.304.1-.506 0-.203-.121-.203-.424zM68.74 8.749q0-2.46.952-4.455.952-2.016 2.613-3.145A6.46 6.46 0 0 1 76.032 0c1.364 0 2.62.383 3.727 1.149q1.68 1.128 2.633 3.145.972 1.995.972 4.455t-.972 4.475q-.952 1.995-2.633 3.145-1.661 1.13-3.727 1.129a6.5 6.5 0 0 1-3.726-1.129q-1.661-1.149-2.613-3.145-.952-2.015-.952-4.475m4.456 0q0 2.56.729 3.951.729 1.37 2.106 1.37 1.378 0 2.127-1.37.75-1.39.75-3.951t-.75-3.931q-.75-1.39-2.127-1.391-1.377 0-2.106 1.391-.73 1.371-.73 3.93M85.552.887a.5.5 0 0 1 .141-.363.53.53 0 0 1 .385-.161h2.674q.222 0 .364.141a.63.63 0 0 1 .203.383l.405 1.976h.162q.547-1.371 1.6-2.117Q92.559 0 93.997 0q1.538 0 2.654.806 1.134.807 1.741 2.298T99 6.632v9.979a.52.52 0 0 1-.162.383.5.5 0 0 1-.365.141h-3.24a.57.57 0 0 1-.385-.141.56.56 0 0 1-.142-.383V6.955q0-1.472-.607-2.258-.609-.786-1.722-.786-1.235 0-1.883.927-.65.927-.649 2.681v9.092a.52.52 0 0 1-.162.383.5.5 0 0 1-.364.141h-3.24a.57.57 0 0 1-.386-.141.56.56 0 0 1-.141-.383z"/><path fill="#FF6200" d="M11.261 19.453q-.384.303-.162 1.008.203.625.952 1.553a26.6 26.6 0 0 0 7.19 6.168 33 33 0 0 0 8.932 3.629Q32.953 33 37.935 33q6.38-.001 12.153-1.855 5.772-1.836 9.64-5.161 1.357-1.19 1.357-1.895 0-.263-.222-.524a.73.73 0 0 0-.73-.202q-.424.1-1.195.504-3.706 1.935-9.033 3.084-5.306 1.17-11.078 1.17-7.15 0-13.813-1.936T13.206 20.14q-.75-.585-1.216-.746-.446-.162-.729.06"/><path fill="#FF6200" d="M56.265 20.461q-.426.403-.223.847.142.322.547.363.405.06 1.154-.08 1.215-.264 2.532-.364 1.316-.08 2.289.04.972.142 1.215.484.365.545-.264 2.298a16.2 16.2 0 0 1-1.66 3.407q-.405.666-.486 1.049a.64.64 0 0 0 .202.645.56.56 0 0 0 .405.181q.588 0 1.702-1.028 2.005-1.734 2.815-4.112.446-1.23.547-2.58.1-1.351-.304-1.936-.385-.564-1.702-.927a9.7 9.7 0 0 0-2.612-.363q-2.572 0-4.881 1.21-.851.464-1.276.866"/></g><defs><clipPath id="a"><path fill="#fff" d="M0 0h99v33H0z"/></clipPath></defs></svg>