<?xml version="1.0" encoding="UTF-8"?>
<svg id="Layer_1" data-name="Layer 1" xmlns="http://www.w3.org/2000/svg" viewBox="0 0 2000 433.279">
  <defs>
    <style>
      .cls-1 {
        fill: #18181b;
      }
    </style>
  </defs>
  <g>
    <path class="cls-1" d="M355.884,224.53l-155.141,112.104-5.622,3.798c-8.441,5.703-19.825-.345-19.825-10.532V12.733c0-10.403-11.815-16.4-20.212-10.26L5.208,112.062c-3.273,2.393-5.208,6.205-5.208,10.26v223.151c0,7.02,5.69,12.71,12.71,12.71h350.618c7.02,0,12.71-5.69,12.71-12.71v-110.641c0-10.37-11.749-16.375-20.154-10.302Z"/>
    <circle class="cls-1" cx="298.288" cy="102.908" r="60.532"/>
  </g>
  <g>
    <path class="cls-1" d="M717.441,357.956h-155.276c-3.055,0-5.532-2.477-5.532-5.532V119.382c0-3.055,2.477-5.532,5.532-5.532h30.782c3.055,0,5.532,2.477,5.532,5.532v200.912h118.962c3.055,0,5.532,2.477,5.532,5.532v26.598c0,3.055-2.477,5.532-5.532,5.532Z"/>
    <path class="cls-1" d="M779.288,350.458c-14.297-8.484-25.227-20.281-32.78-35.396-7.557-15.109-11.334-32.197-11.334-51.262,0-19.757,4.126-36.905,12.381-51.437,8.249-14.527,19.527-25.631,33.826-33.303,14.297-7.672,30.512-11.507,48.646-11.507,19.295,0,36.094,4.184,50.391,12.553,14.297,8.37,25.223,19.823,32.78,34.35,7.553,14.532,11.334,30.981,11.334,49.344,0,20.461-4.01,38.185-12.032,53.18-8.02,14.995-19.178,26.448-33.477,34.349-14.297,7.901-30.633,11.857-48.995,11.857-19.529,0-36.441-4.245-50.74-12.729ZM868.562,310.007c9.416-11.972,14.124-27.375,14.124-46.206,0-18.362-4.769-33.129-14.299-44.288-9.534-11.159-22.317-16.739-38.359-16.739s-28.89,5.58-38.534,16.739c-9.65,11.159-14.471,25.926-14.471,44.288,0,19.763,4.935,35.396,14.82,46.903,9.879,11.508,22.607,17.262,38.185,17.262,16.271,0,29.119-5.983,38.534-17.959Z"/>
    <path class="cls-1" d="M992.007,425.26c-13.138-5.351-23.366-12.903-30.688-22.667-6.154-8.205-9.722-17.559-10.705-28.06-.306-3.27,2.228-6.115,5.512-6.115h30.332c2.669,0,4.948,1.909,5.424,4.535,1.247,6.873,5.414,12.8,12.503,17.783,8.598,6.043,19.644,9.067,33.129,9.067,16.042,0,28.362-4.305,36.965-12.902,8.598-8.603,12.903-20.112,12.903-34.523v-26.154c-6.048,9.067-14.124,16.161-24.237,21.272-10.112,5.116-21.68,7.672-34.698,7.672-16.274,0-30.861-3.951-43.765-11.856-12.903-7.901-23.015-18.946-30.339-33.129-7.322-14.178-10.985-30.339-10.985-48.472s3.602-34.35,10.811-48.647c7.202-14.298,17.262-25.458,30.163-33.477,12.903-8.021,27.49-12.031,43.765-12.031,14.179,0,26.907,3.083,38.185,9.241,11.275,6.162,19.817,14.472,25.631,24.933l2.895-23.733c.339-2.776,2.695-4.862,5.491-4.862h22.349c3.055,0,5.532,2.477,5.532,5.532v173.712c0,16.27-3.661,30.513-10.985,42.718-7.322,12.205-17.785,21.621-31.384,28.247-13.601,6.625-29.702,9.938-48.299,9.938-17.207,0-32.375-2.675-45.507-8.02ZM1073.086,304.078c9.528-11.039,14.297-25.283,14.297-42.719s-4.708-31.615-14.124-42.544c-9.416-10.925-21.68-16.39-36.79-16.39s-27.32,5.465-36.616,16.39c-9.301,10.93-13.95,25.228-13.95,42.893,0,17.436,4.708,31.619,14.124,42.543,9.416,10.931,21.562,16.391,36.443,16.391s27.08-5.52,36.616-16.564Z"/>
    <path class="cls-1" d="M1193.564,350.458c-14.297-8.484-25.227-20.281-32.78-35.396-7.557-15.109-11.334-32.197-11.334-51.262,0-19.757,4.126-36.905,12.381-51.437,8.249-14.527,19.527-25.631,33.826-33.303,14.297-7.672,30.512-11.507,48.646-11.507,19.295,0,36.094,4.184,50.391,12.553,14.297,8.37,25.223,19.823,32.78,34.35,7.553,14.532,11.334,30.981,11.334,49.344,0,20.461-4.01,38.185-12.032,53.18-8.02,14.995-19.178,26.448-33.477,34.349-14.297,7.901-30.633,11.857-48.995,11.857-19.529,0-36.441-4.245-50.74-12.729ZM1282.838,310.007c9.416-11.972,14.124-27.375,14.124-46.206,0-18.362-4.769-33.129-14.299-44.288-9.534-11.159-22.317-16.739-38.359-16.739s-28.89,5.58-38.534,16.739c-9.65,11.159-14.471,25.926-14.471,44.288,0,19.763,4.935,35.396,14.82,46.903,9.879,11.508,22.607,17.262,38.185,17.262,16.271,0,29.119-5.983,38.534-17.959Z"/>
    <path class="cls-1" d="M1360.425,354.817c-5.116-5.111-7.671-11.507-7.671-19.179,0-7.437,2.555-13.715,7.671-18.831,5.112-5.111,11.387-7.672,18.831-7.672,7.671,0,14.063,2.561,19.18,7.672,5.11,5.117,7.671,11.394,7.671,18.831,0,7.672-2.561,14.068-7.671,19.179-5.118,5.111-11.509,7.672-19.18,7.672-7.444,0-13.719-2.561-18.831-7.672Z"/>
    <path class="cls-1" d="M1461.552,350.633c-13.023-8.37-23.19-20.052-30.514-35.047-7.322-14.995-10.985-32.023-10.985-51.088,0-18.831,3.602-35.57,10.811-50.216,7.202-14.646,17.201-26.094,29.99-34.349,12.783-8.25,27.315-12.38,43.589-12.38,12.783,0,24.466,2.501,35.047,7.497,10.577,5.002,19.121,11.916,25.631,20.749v-93.854c0-3.055,2.477-5.532,5.532-5.532h30.086c3.055,0,5.532,2.477,5.532,5.532v250.478c0,3.055-2.477,5.532-5.532,5.532h-22.674c-2.806,0-5.168-2.101-5.495-4.889l-3.264-27.891c-5.35,11.856-13.546,21.158-24.584,27.897-11.046,6.74-24.008,10.114-38.883,10.114-16.509,0-31.271-4.185-44.287-12.554ZM1540.187,320.119c7.787-5.46,13.889-13.077,18.309-22.841,4.412-9.765,6.624-20.803,6.624-33.129,0-18.362-4.708-33.303-14.122-44.811-9.416-11.507-21.682-17.261-36.791-17.261-15.344,0-27.843,5.814-37.487,17.436-9.65,11.629-14.473,26.738-14.473,45.334s4.763,33.826,14.299,45.683c9.53,11.856,21.85,17.786,36.963,17.786,9.993,0,18.887-2.731,26.678-8.195Z"/>
    <path class="cls-1" d="M1674.269,350.807c-14.417-8.25-25.631-19.757-33.651-34.523-8.022-14.761-12.032-31.44-12.032-50.042,0-19.758,4.01-37.139,12.032-52.134,8.02-14.995,19.005-26.503,32.953-34.523,13.95-8.021,29.523-12.031,46.73-12.031,17.436,0,32.72,3.896,45.856,11.682,13.132,7.792,23.419,18.951,30.863,33.477,7.436,14.532,11.273,31.679,11.507,51.437v4.232c0,3.055-2.477,5.532-5.532,5.532h-133.259c1.394,16.51,6.914,29.702,16.564,39.58,9.645,9.885,22.258,14.821,37.836,14.821,10.689,0,19.876-2.496,27.549-7.497,6.677-4.349,11.591-10.329,14.747-17.938.876-2.113,2.92-3.508,5.208-3.508h28.949c3.755,0,6.394,3.658,5.272,7.241-5.186,16.567-14.295,29.787-27.324,39.662-14.881,11.279-33.129,16.913-54.75,16.913-18.603,0-35.106-4.131-49.519-12.38ZM1765.983,244.97c-2.561-13.481-7.846-23.943-15.866-31.386-8.022-7.437-17.96-11.159-29.816-11.159-12.091,0-22.437,3.781-31.037,11.333-8.603,7.558-14.532,17.959-17.784,31.211h94.504Z"/>
    <path class="cls-1" d="M1922.009,357.956h-35.519c-2.233,0-4.247-1.342-5.106-3.403l-72.453-173.759c-1.519-3.644,1.158-7.661,5.106-7.661h32.578c2.268,0,4.307,1.385,5.143,3.493l52.667,132.857,52.322-132.846c.833-2.115,2.874-3.505,5.147-3.505h32.569c3.948,0,6.625,4.017,5.106,7.661l-72.453,173.759c-.859,2.061-2.873,3.403-5.106,3.403Z"/>
  </g>
</svg>