<?xml version="1.0" encoding="utf-8"?>
<!-- Generator: Adobe Illustrator 24.0.2, SVG Export Plug-In . SVG Version: 6.00 Build 0)  -->
<svg version="1.0" id="Layer_1" xmlns="http://www.w3.org/2000/svg" xmlns:xlink="http://www.w3.org/1999/xlink" x="0px" y="0px"
	 viewBox="0 0 300 280" enable-background="new 0 0 300 280" xml:space="preserve">
<g>
	<path fill-rule="evenodd" clip-rule="evenodd" fill="#C94944" d="M93.16,148.08c-1.38,1.73-3.46,3.46-6.32,5.36
		c-9.26,6.23-21.2,6.23-26.13,0c-1.99-2.6-2.68-5.71-2.16-9c0.87-5.36,5.02-10.73,11.68-15.14c2.08-1.38,3.72-1.38,4.67-1.12
		c1.21,0.35,1.9,1.12,2.16,1.64l0,0c0.43,0.87,1.56,3.03-2.68,6.4c-8.57,6.58-11.51,12.55-8.39,16.79
		c3.2,4.33,13.67,4.15,20.68-0.43c2.16-1.47,4.07-2.68,5.88-4.85c0.17-0.26,0.43-0.26,0.52-0.17
		C93.24,147.74,93.33,148,93.16,148.08L93.16,148.08z"/>
	<path fill-rule="evenodd" clip-rule="evenodd" fill="#C94944" d="M56.56,131.9c1.38-1.73,3.46-3.46,6.23-5.36
		c9.34-6.23,21.29-6.23,26.22,0.09c1.99,2.51,2.68,5.62,2.16,9c-0.87,5.28-5.02,10.64-11.68,15.06c-2.08,1.38-3.72,1.38-4.67,1.13
		c-1.21-0.26-1.9-1.13-2.16-1.56l0,0c-0.52-0.95-1.56-3.11,2.68-6.4c8.57-6.66,11.51-12.63,8.39-16.79
		c-3.2-4.41-13.67-4.15-20.68,0.43c-2.16,1.38-4.07,2.68-5.88,4.76c-0.26,0.26-0.43,0.26-0.61,0.17
		C56.47,132.25,56.38,132.08,56.56,131.9L56.56,131.9z"/>
	<polygon fill-rule="evenodd" clip-rule="evenodd" points="110.81,137.96 106.66,129.48 112.71,129.48 114.44,134.24 117.99,129.48 
		124.65,129.48 117.13,137.96 121.45,147.57 115.22,147.57 113.23,142.46 109.08,147.57 102.24,147.57 110.81,137.96 	"/>
	<path fill-rule="evenodd" clip-rule="evenodd" d="M130.88,139.43c0.09-0.69-0.09-1.04-0.35-1.3c-0.26-0.26-0.69-0.43-1.21-0.43
		c-2.25,0-2.77,2.86-2.77,4.15c0,1.21,0.26,2.42,1.73,2.42c1.3,0,1.9-1.21,2.16-1.99h4.85c-0.87,3.81-3.29,5.62-7.1,5.62
		c-5.54,0-6.66-3.55-6.66-6.06c0-4.41,2.86-7.79,7.87-7.79c3.63,0,6.4,1.64,6.32,5.36H130.88L130.88,139.43z"/>
	<path fill-rule="evenodd" clip-rule="evenodd" d="M141.61,139.52c0.43-1.38,1.3-2.16,2.6-2.16c1.3,0,1.9,0.78,1.9,1.73
		c0,0.09,0,0.26,0,0.43H141.61L141.61,139.52z M145.25,143.76c-0.26,0.43-0.95,0.95-1.99,0.95c-1.56,0-2.08-1.21-2.08-2.6h9.34
		c0.26-0.78,0.26-1.56,0.26-2.25c0-4.15-3.46-5.8-6.4-5.8c-3.29,0-7.87,1.99-7.87,8.05c0,3.2,1.9,5.8,6.58,5.8
		c5.62,0,6.58-3.29,6.92-4.15H145.25L145.25,143.76z"/>
	<polygon fill-rule="evenodd" clip-rule="evenodd" points="154.85,129.48 159.87,129.48 156.15,147.57 151.13,147.57 154.85,129.48 
			"/>
	<polygon fill-rule="evenodd" clip-rule="evenodd" points="166.19,129.48 178.65,129.48 178.21,131.56 168.18,131.56 166.97,137.27 
		176.31,137.27 175.88,139.26 166.53,139.26 165.24,145.49 175.36,145.49 174.93,147.57 162.38,147.57 166.19,129.48 	"/>
	<path fill-rule="evenodd" clip-rule="evenodd" d="M179.77,134.5h2.08l-0.43,1.99h0.09c1.04-1.47,2.86-2.34,4.59-2.34
		c2.51,0,3.72,1.13,3.72,3.37c0,0.61-0.17,1.56-0.43,2.6l-1.56,7.44h-2.16l1.64-7.61c0.09-0.52,0.35-1.64,0.35-2.08
		c0-1.21-1.04-1.82-2.34-1.82c-1.12,0-2.42,0.69-3.2,1.56c-0.78,0.61-1.13,1.64-1.47,2.68l-1.47,7.27H177L179.77,134.5L179.77,134.5
		z"/>
	<path fill-rule="evenodd" clip-rule="evenodd" d="M193.18,139.78c0.69-2.08,1.99-3.72,4.59-3.72c2.34,0,3.2,1.9,3.03,3.72H193.18
		L193.18,139.78z M202.7,141.68c0.09-0.35,0.26-1.04,0.26-1.73c0-3.63-1.73-5.8-5.54-5.8c-3.63,0-6.75,3.46-6.75,8.48
		c0,2.25,1.21,5.19,5.54,5.19c2.86,0,5.19-1.47,5.88-4.33h-2.08c-0.61,1.56-1.9,2.42-3.81,2.42c-1.73,0-3.37-1.13-3.37-3.12
		c0-0.35,0-0.78,0.09-1.12H202.7L202.7,141.68z"/>
	<path fill-rule="evenodd" clip-rule="evenodd" d="M206.08,134.5h2.08l-0.69,2.77h0.09c1.04-1.82,2.51-3.11,4.76-3.11
		c0.26,0,0.52,0,0.78,0l-0.52,2.34c-0.26,0-0.43,0-0.69,0c-0.52,0-0.78,0-1.21,0.09c-1.21,0.35-2.16,1.13-2.86,2.16
		c-0.52,0.78-0.87,2.08-1.04,3.03l-1.21,5.8h-2.16L206.08,134.5L206.08,134.5z"/>
	<polygon fill-rule="evenodd" clip-rule="evenodd" points="225.72,152.84 228.75,147.57 226.41,134.5 228.75,134.5 230.22,144.88 
		230.3,144.88 235.76,134.5 238.18,134.5 227.8,152.84 225.72,152.84 	"/>
	<path fill-rule="evenodd" clip-rule="evenodd" d="M214.04,142.2c0-2.34,1.64-6.14,4.67-6.14c2.25,0,3.37,1.38,3.37,3.46
		c0,2.6-1.56,6.23-4.76,6.23C215.16,145.75,214.04,144.1,214.04,142.2L214.04,142.2z M223.04,145.66l2.34-11.16h-2.08l-0.35,2.42
		h-0.09v-0.09c-0.35-1.64-2.25-2.68-4.15-2.68c-4.24,0-6.75,4.24-6.75,8.05c0,3.11,1.64,5.45,4.85,5.45c1.64,0,3.2-0.61,4.07-1.99
		h0.09c-1.21,4.76-4.67,5.88-8.31,5.88c-0.17,0.52-0.61,1.21-0.87,1.9C216.11,153.45,221.39,152.5,223.04,145.66L223.04,145.66z"/>
	<path fill-rule="evenodd" clip-rule="evenodd" d="M239.13,136.06c-0.09,0.26,0.09,0.43,0.35,0.43c0.26,0,0.61-0.09,0.61-0.43
		c0.09-0.17-0.09-0.26-0.26-0.35c-0.35,0-0.95-0.09-0.78-0.61c0.09-0.52,0.52-0.69,0.95-0.69c0.35,0,0.69,0.17,0.61,0.61h-0.35
		c0.09-0.26-0.09-0.35-0.35-0.35c-0.17,0-0.52,0.09-0.52,0.35c-0.09,0.26,0.09,0.26,0.26,0.35c0.35,0.17,0.95,0.17,0.78,0.69
		c-0.09,0.52-0.61,0.69-1.04,0.69c-0.43,0-0.69-0.26-0.61-0.69H239.13L239.13,136.06z"/>
	<polygon fill-rule="evenodd" clip-rule="evenodd" points="243.2,134.67 243.2,134.67 242.07,136.66 241.81,136.66 241.47,134.67 
		241.47,134.67 241.12,136.66 240.77,136.66 241.21,134.5 241.81,134.5 242.07,136.32 242.07,136.32 243.02,134.5 243.54,134.5 
		243.11,136.66 242.76,136.66 243.2,134.67 	"/>
</g>
</svg>
