<?xml version="1.0" encoding="utf-8"?>
<!-- Generator: Adobe Illustrator 27.0.0, SVG Export Plug-In . SVG Version: 6.00 Build 0)  -->
<svg version="1.1" id="Layer_1" xmlns="http://www.w3.org/2000/svg" xmlns:xlink="http://www.w3.org/1999/xlink" x="0px" y="0px"
	 viewBox="0 0 512 512" style="enable-background:new 0 0 512 512;" xml:space="preserve">
<style type="text/css">
	.st0{fill:#DB1B1B;}
</style>
<g id="XMLID_1_">
	<path id="XMLID_2_" class="st0" d="M100.43,278.16c-3.79,4.77-9.54,9.54-17.25,14.73C57.78,310,25.1,310,11.63,292.89
		c-5.47-7.15-7.29-15.57-5.89-24.69c2.38-14.73,13.75-29.32,31.98-41.38c5.61-3.79,10.24-3.79,12.77-3.09
		c3.37,0.98,5.19,3.09,5.89,4.49c1.12,2.38,4.21,8.28-7.29,17.53c-23.43,17.96-31.56,34.37-23.01,46.01
		c8.7,11.78,37.45,11.36,56.53-1.12c5.89-4.07,11.08-7.29,16.13-13.33c0.42-0.7,1.12-0.7,1.4-0.42
		C100.71,277.18,100.85,277.88,100.43,278.16z"/>
	<path id="XMLID_3_" class="st0" d="M0.27,233.83c3.79-4.77,9.54-9.54,17.11-14.73c25.53-17.11,58.22-17.11,71.68,0.28
		c5.47,6.87,7.29,15.43,5.89,24.69c-2.38,14.45-13.75,29.18-31.98,41.24c-5.61,3.79-10.24,3.79-12.77,3.09
		c-3.37-0.7-5.19-3.09-5.89-4.21c-1.4-2.67-4.21-8.56,7.29-17.53c23.43-18.24,31.56-34.51,23.01-46.01
		c-8.7-12.06-37.45-11.36-56.53,1.26C12.19,225.69,7,229.2,1.95,234.95c-0.7,0.7-1.12,0.7-1.68,0.42
		C-0.01,234.81-0.15,234.25,0.27,233.83z"/>
	<polygon id="XMLID_4_" points="148.69,250.38 137.32,227.24 154.02,227.24 158.64,240.28 168.46,227.24 186.7,227.24 
		166.08,250.38 177.86,276.76 160.89,276.76 155.42,262.73 144.06,276.76 125.26,276.76 	"/>
	<path id="XMLID_5_" d="M203.67,254.45c0.28-1.96-0.28-2.81-0.98-3.51c-0.7-0.7-1.96-1.12-3.37-1.12c-6.17,0-7.58,7.86-7.58,11.36
		c0,3.37,0.7,6.59,4.77,6.59c3.51,0,5.19-3.37,5.89-5.47h13.33c-2.38,10.38-8.98,15.43-19.36,15.43c-15.15,0-18.24-9.68-18.24-16.55
		c0-12.06,7.86-21.32,21.6-21.32c9.96,0,17.53,4.49,17.25,14.73h-13.33V254.45z M233.13,254.73c1.12-3.79,3.51-5.89,7.15-5.89
		c3.51,0,5.19,2.1,5.19,4.77v1.12H233.13L233.13,254.73z M242.95,266.24c-0.7,1.12-2.67,2.67-5.47,2.67c-4.21,0-5.61-3.37-5.61-7.15
		h25.53c0.7-2.1,0.7-4.21,0.7-6.17c0-11.36-9.54-15.85-17.53-15.85c-8.98,0-21.6,5.47-21.6,22.02c0,8.7,5.19,15.85,17.96,15.85
		c15.43,0,17.96-8.98,18.94-11.36L242.95,266.24z M269.32,227.24h13.75l-10.24,49.52h-13.75L269.32,227.24z M300.33,227.24h34.09
		l-1.12,5.61H305.8l-3.37,15.57h25.53l-1.12,5.47h-25.53L297.8,271h27.78l-1.12,5.61h-34.37L300.33,227.24z M337.5,240.99h5.61
		l-1.12,5.47h0.28c2.81-4.07,7.86-6.45,12.63-6.45c6.87,0,10.24,3.09,10.24,9.26c0,1.68-0.42,4.21-1.12,7.15l-4.21,20.34h-5.89
		l4.49-20.76c0.28-1.4,0.98-4.49,0.98-5.75c0-3.37-2.81-5.05-6.45-5.05c-3.09,0-6.59,1.96-8.7,4.21c-2.1,1.68-3.09,4.49-4.07,7.29
		l-4.07,19.92h-5.89L337.5,240.99z M374.25,255.43c1.96-5.61,5.47-10.24,12.63-10.24c6.45,0,8.7,5.19,8.28,10.24H374.25z
		 M400.2,260.62c0.28-0.98,0.7-2.81,0.7-4.77c0-9.96-4.77-15.85-15.15-15.85c-9.96,0-18.52,9.54-18.52,23.15
		c0,6.17,3.37,14.17,15.15,14.17c7.86,0,14.17-4.07,16.13-11.78h-5.75c-1.68,4.21-5.19,6.59-10.38,6.59c-4.77,0-9.26-3.09-9.26-8.56
		c0-0.98,0-2.1,0.28-3.09h26.79V260.62z M409.46,240.99h5.61l-1.96,7.58h0.28c2.81-5.05,6.87-8.56,13.05-8.56h2.1l-1.4,6.45h-1.96
		c-1.4,0-2.1,0-3.37,0.28c-3.37,0.98-5.89,3.09-7.86,5.89c-1.4,2.1-2.38,5.61-2.81,8.28l-3.37,15.85h-5.89L409.46,240.99z
		 M463.19,291.2l8.28-14.45l-6.45-35.77h6.45l4.07,28.48h0.28l14.87-28.48h6.59L468.8,291.2H463.19z M431.35,262.03
		c0-6.45,4.49-16.83,12.77-16.83c6.17,0,9.26,3.79,9.26,9.54c0,7.15-4.21,17.11-13.05,17.11
		C434.43,271.71,431.35,267.22,431.35,262.03z M455.89,271.57l6.45-30.58h-5.61l-0.98,6.59h-0.28v-0.28
		c-0.98-4.49-6.17-7.29-11.36-7.29c-11.64,0-18.52,11.64-18.52,22.02c0,8.56,4.49,14.87,13.33,14.87c4.49,0,8.7-1.68,11.08-5.47
		h0.28c-3.37,13.05-12.77,16.13-22.73,16.13c-0.42,1.4-1.68,3.37-2.38,5.19C436.96,292.75,451.41,290.22,455.89,271.57z
		 M499.94,245.19c-0.28,0.7,0.28,1.12,0.98,1.12s1.68-0.28,1.68-1.12c0.28-0.42-0.28-0.7-0.7-0.98c-0.98,0-2.67-0.28-2.1-1.68
		c0.28-1.4,1.4-1.96,2.67-1.96c0.98,0,1.96,0.42,1.68,1.68h-0.98c0.28-0.7-0.28-0.98-0.98-0.98c-0.42,0-1.4,0.28-1.4,0.98
		c-0.28,0.7,0.28,0.7,0.7,0.98c0.98,0.42,2.67,0.42,2.1,1.96c-0.28,1.4-1.68,1.96-2.81,1.96c-1.12,0-1.96-0.7-1.68-1.96H499.94z
		 M511.16,241.41l-3.09,5.47h-0.7l-0.98-5.47l-0.98,5.47h-0.98l1.12-5.89h1.68l0.7,5.05l2.67-5.05h1.4l-1.12,5.89h-0.98
		L511.16,241.41z"/>
</g>
</svg>
