<?xml version="1.0" encoding="UTF-8" standalone="no"?>
<svg
   width="1000"
   height="108.08498"
   viewBox="0 0 1000 108.08498"
   fill="none"
   version="1.1"
   id="svg9"
   sodipodi:docname="SanDisk_(2024).svg"
   inkscape:version="1.3.2 (091e20e, 2023-11-25, custom)"
   xmlns:inkscape="http://www.inkscape.org/namespaces/inkscape"
   xmlns:sodipodi="http://sodipodi.sourceforge.net/DTD/sodipodi-0.dtd"
   xmlns="http://www.w3.org/2000/svg"
   xmlns:svg="http://www.w3.org/2000/svg">
  <sodipodi:namedview
     id="namedview9"
     pagecolor="#ffffff"
     bordercolor="#000000"
     borderopacity="0.25"
     inkscape:showpageshadow="2"
     inkscape:pageopacity="0.0"
     inkscape:pagecheckerboard="0"
     inkscape:deskcolor="#d1d1d1"
     inkscape:zoom="0.5"
     inkscape:cx="494"
     inkscape:cy="21"
     inkscape:window-width="1366"
     inkscape:window-height="705"
     inkscape:window-x="-8"
     inkscape:window-y="-8"
     inkscape:window-maximized="1"
     inkscape:current-layer="svg9" />
  <path
     id="path1"
     style="stroke-width:8.33449;fill:#e10600;fill-opacity:1"
     d="M 255.95898 0 C 243.99779 0 232.59062 5.8087142 225.16211 15.263672 L 151.0625 108.08398 L 188.61328 108.08398 L 249.73242 32.822266 C 252.75784 29.121342 254.97176 27.285156 259.72656 27.285156 C 265.8049 27.285156 269.99219 32.552359 269.99219 38.765625 L 269.99219 71.453125 C 269.99219 76.720845 267.29031 81.042969 262.29297 81.042969 L 254.72852 81.042969 L 254.72852 108.05664 L 297.00586 108.05664 L 297.00586 40.386719 C 297.00586 34.848795 297.15544 7.1054203e-15 255.95898 0 z M 32.6875 0.029296875 C 14.723112 0.029296875 8.1727587e-16 14.480925 0 32.445312 C 0 44.06141 2.5665599 57.163784 20.666016 64.1875 L 135.07031 108.08594 L 135.07031 86.474609 C 135.07031 77.209002 126.21094 74.681641 126.21094 74.681641 L 37.144531 43.251953 C 33.767734 42.036369 31.607422 39.873715 31.607422 35.28125 C 31.607422 30.688869 35.388087 27.042969 39.980469 27.042969 L 99.642578 27.042969 C 103.6673 27.042969 107.92188 30.32533 107.92188 34.742188 L 107.92188 42.306641 L 134.93555 42.306641 L 134.93555 0.029296875 L 32.6875 0.029296875 z M 324.29688 0.029296875 L 324.29688 108.08594 L 366.70898 108.08594 L 366.70898 81.070312 L 359.14453 81.070312 C 354.14718 81.070312 351.31055 76.748276 351.31055 71.480469 L 351.31055 38.929688 C 351.31055 30.960508 359.144 25.016452 366.4375 28.123047 C 369.13954 29.338714 371.43548 31.770948 372.51562 34.607422 L 392.23633 85.933594 C 397.36953 99.440451 410.20231 108.08594 424.6543 108.08594 L 425.46484 108.08594 C 444.10408 108.08594 459.36719 93.227623 459.36719 74.453125 L 459.36719 0.029296875 L 432.35352 0.029296875 L 432.35352 73.777344 C 432.35352 77.424262 429.65108 80.530238 426.00391 81.070312 C 422.76263 81.475368 419.65632 79.450008 418.57617 76.478516 L 393.85742 8.6738281 C 391.96633 3.2709933 387.50983 0.029296875 382.10742 0.029296875 L 324.29688 0.029296875 z M 486.55859 0.029296875 L 486.55859 27.177734 L 567.60156 27.177734 C 581.91936 27.177734 594.48047 39.739088 594.48047 54.056641 C 594.48047 68.374109 581.91936 80.935547 567.60156 80.935547 L 486.55859 80.935547 L 486.55859 108.08594 L 567.60156 108.08594 C 587.99686 108.08594 605.82712 96.738952 615.01172 80.125 C 619.19896 72.426275 621.62891 63.511607 621.62891 54.056641 C 621.62891 44.601673 619.19896 35.822358 615.01172 27.988281 C 605.82712 11.239477 588.13188 0.029296875 567.60156 0.029296875 L 486.55859 0.029296875 z M 632.83594 0.029296875 L 632.83594 27.042969 L 638.50781 27.042969 C 639.1829 27.042969 639.85898 27.042633 640.66992 27.177734 C 645.65395 27.853078 648.63867 31.905767 648.63867 37.308594 L 648.63867 108.08594 L 675.65234 108.08594 L 675.65234 0.029296875 L 632.83594 0.029296875 z M 735.48633 0.029296875 C 717.52136 0.029296875 702.79883 14.480925 702.79883 32.445312 C 702.79883 44.06141 705.36569 57.163784 723.46484 64.1875 L 837.86914 108.08594 L 837.86914 86.474609 C 837.86914 77.209002 829.00977 74.681641 829.00977 74.681641 L 739.94336 43.251953 C 736.56623 42.036369 734.40625 39.873715 734.40625 35.28125 C 734.40625 30.688869 738.18699 27.042969 742.7793 27.042969 L 802.44141 27.042969 C 806.46696 27.042969 810.7207 30.32533 810.7207 34.742188 L 810.7207 42.306641 L 837.73633 42.306641 L 837.73633 0.029296875 L 735.48633 0.029296875 z M 864.93164 0.029296875 L 864.93164 108.08594 L 891.67578 108.08594 L 891.67578 69.320312 C 891.67578 67.537317 893.13439 66.078125 894.91797 66.078125 L 924.36523 66.078125 C 925.98212 66.078125 927.49904 66.591314 928.82422 67.833984 L 971.0957 106.12695 C 972.48756 107.39713 974.31224 108.08594 976.1875 108.08594 L 1000 108.08594 L 1000 81.070312 L 987.03125 81.070312 C 982.98068 81.070312 979.06332 79.585801 975.96289 77.019531 L 955.83594 59.324219 C 952.72717 56.622763 952.72717 51.760301 955.83594 48.923828 L 975.96289 31.230469 C 979.06332 28.664115 982.98068 27.312753 987.03125 27.177734 L 1000 27.177734 L 1000 0.029296875 L 976.1875 0.029296875 C 974.31224 0.029296875 972.48756 0.73017204 971.0957 1.9863281 L 928.82422 40.279297 C 927.60739 41.359862 926.11547 42.035156 924.36523 42.035156 L 894.91797 42.035156 C 893.13439 42.035156 891.67578 40.57588 891.67578 38.792969 L 891.67578 0.029296875 L 864.93164 0.029296875 z M 0 81.070312 L 0 108.08398 L 26.744141 108.08398 L 26.744141 81.070312 L 0 81.070312 z M 702.54688 81.070312 L 702.54688 108.08398 L 729.29102 108.08398 L 729.29102 81.070312 L 702.54688 81.070312 z " />
  <defs
     id="defs9" />
</svg>
