<?xml version="1.0" encoding="utf-8"?>
<!-- Generator: Adobe Illustrator 28.0.0, SVG Export Plug-In . SVG Version: 6.00 Build 0)  -->
<svg version="1.1" id="Слой_1" xmlns="http://www.w3.org/2000/svg" xmlns:xlink="http://www.w3.org/1999/xlink" x="0px" y="0px"
	 viewBox="0 0 1000 648.2205811" enable-background="new 0 0 1000 648.2205811" xml:space="preserve">
<g>
	<g>
		<g>
			<path fill="#FFDD2D" d="M300.8397522,0h398.3204651v200.3261414c0,51.3548126-27.3963623,98.8100281-71.8684082,124.4901428
				l-127.2917175,73.5036926l-127.2915955-73.5036926c-44.4729614-25.6801147-71.8687439-73.1353302-71.8687439-124.4901428V0z"/>
			<path fill-rule="evenodd" clip-rule="evenodd" fill="#333333" d="M410.1581726,105.4375305v62.3049774
				c8.5199585-9.621048,24.0106506-16.1325531,41.7223511-16.1325531h19.2476196v72.4288483
				c0,19.269455-5.2355347,36.1357574-13.0037842,45.4130096h83.723114
				c-7.7520142-9.2866516-12.9755859-26.1315918-12.9755859-45.3762054v-72.4656525h19.2484741
				c17.711731,0,33.2020264,6.5115051,41.7223511,16.1325531v-62.3049774H410.1581726z"/>
		</g>
	</g>
	<g>
		<g>
			<path fill="#333333" d="M0,511.4300537h51.8634071l33.8159142,66.4978638h1.7121201l33.815918-66.4978638h49.9660263v132.9901733
				h-40.2770844V561.777771h-1.8973694l-27.169487,53.5755615H69.5348053L42.1744537,561.777771h-1.8973694v82.6424561H0
				V511.4300537z"/>
			<path fill="#333333" d="M354.870575,577.9279175c0,39.8953857-30.5881348,70.2926636-85.6793213,70.2926636
				c-55.096817,0-85.6849365-30.3972778-85.6849365-70.2926636c0-39.9009399,30.5881195-70.2982483,85.6849365-70.2982483
				C324.2824402,507.6296692,354.870575,538.0269775,354.870575,577.9279175z M313.0778503,577.9279175
				c0-21.8478394-17.0988464-36.1005859-43.8865967-36.1005859s-43.8865814,14.2527466-43.8865814,36.1005859
				s17.0988159,36.0949707,43.8865814,36.0949707S313.0778503,599.7757568,313.0778503,577.9279175z"/>
			<path fill="#333333" d="M367.776062,644.4202271V511.4300537h135.0783997v30.3972778h-94.8013306v19.0018311h46.9235535
				c33.2489014,0,57.9428101,7.600647,57.9428101,41.7926636c0,34.1976318-24.6939087,41.7984009-57.9428101,41.7984009H367.776062z
				 M408.0531311,591.2263794v22.7965088h47.1144104c13.6801758,0,16.9079285-2.6607666,16.9079285-11.401062
				c0-8.7346191-3.2277527-11.3954468-16.9079285-11.3954468H408.0531311z"/>
			<path fill="#333333" d="M626.8966064,624.8514404H564.013855l-7.0281372,19.5687866h-42.1800537l52.6268311-132.9901733
				h58.133728l52.4360352,132.9901733h-44.0775146L626.8966064,624.8514404z M616.0681152,594.4541626l-18.6200562-52.4359741
				h-3.4186401l-18.9961548,52.4359741H616.0681152z"/>
			<path fill="#333333" d="M730.0452271,511.4300537v77.1355591h1.8973999l69.725708-77.1355591h34.5736694v132.9901733h-40.2714233
				v-76.9447021h-1.9030151l-69.725647,76.9447021h-34.5737305V511.4300537H730.0452271z M762.9125366,479.5115051
				c16.717041,0,33.2432861-1.1395569,49.3934326-3.0368958v20.8991699
				c-15.7684326,3.0368958-32.4855347,4.558197-49.2026367,4.558197c-16.7227173,0-33.2489014-1.5213013-49.2081909-4.558197
				v-20.8991699C729.6635742,478.3719482,746.3806152,479.5115051,762.9125366,479.5115051z"/>
			<path fill="#333333" d="M959.7229004,546.576355h-49.017395c0,22.6113281-2.4699097,52.817749-5.1307373,70.8652344
				c-3.800293,25.6481934-18.9961548,26.9786377-37.616272,26.9786377H851.241394v-35.1463623h17.2896729
				c2.8460693-18.2383423,4.1765137-40.0861816,4.1765137-62.6975098v-35.1463013H1000v132.9901733h-40.2770996V546.576355z"/>
		</g>
	</g>
</g>
</svg>
