<?xml version="1.0" encoding="utf-8"?>
<!-- Generator: Adobe Illustrator 24.0.2, SVG Export Plug-In . SVG Version: 6.00 Build 0)  -->
<svg version="1.0" id="Layer_1" xmlns="http://www.w3.org/2000/svg" xmlns:xlink="http://www.w3.org/1999/xlink" x="0px" y="0px"
	 viewBox="0 0 300 280" enable-background="new 0 0 300 280" xml:space="preserve">
<g>
	<rect x="76.41" y="91.28" fill-rule="evenodd" clip-rule="evenodd" fill="#1B1918" width="147.18" height="97.44"/>
	<path fill-rule="evenodd" clip-rule="evenodd" fill="#FFFFFF" d="M147.71,172l-2.57-6.97h-3.12l4.4,10.82h2.57l4.4-10.82h-3.12
		L147.71,172z M147.71,172"/>
	<path fill-rule="evenodd" clip-rule="evenodd" fill="#FFFFFF" d="M185.31,164.85h-2.94v10.82h8.07v-2.57h-5.14V164.85z
		 M185.31,164.85"/>
	<path fill-rule="evenodd" clip-rule="evenodd" fill="#FFFFFF" d="M162.56,175.67H171v-2.38h-5.69v-1.83h5.14v-2.2h-5.14v-1.83H171
		v-2.38h-8.44V175.67z M162.56,175.67"/>
	<path fill-rule="evenodd" clip-rule="evenodd" fill="#FFFFFF" d="M88.65,169.25l-2.57-4.22h-3.12v10.64h2.75v-6.24l2.75,4.22
		l2.75-4.22v6.24h2.75v-10.64h-2.75L88.65,169.25z M88.65,169.25"/>
	<path fill-rule="evenodd" clip-rule="evenodd" fill="#FFFFFF" d="M107.54,164.85l-4.22,10.82h2.93l0.73-2.02h4.22l0.73,2.02h2.93
		l-4.59-10.82H107.54z M107.91,171.45l1.28-3.12l1.28,3.12H107.91z M107.91,171.45"/>
	<path fill-rule="evenodd" clip-rule="evenodd" fill="#FFFFFF" d="M202.73,164.85h-2.93v10.82h8.07v-2.57h-5.14V164.85z
		 M202.73,164.85"/>
	<rect x="183.65" y="144.49" fill-rule="evenodd" clip-rule="evenodd" fill="#FFFFFF" width="25.68" height="3.67"/>
	<rect x="183.65" y="151.83" fill-rule="evenodd" clip-rule="evenodd" fill="#FFFFFF" width="25.68" height="3.67"/>
	<rect x="183.65" y="137.16" fill-rule="evenodd" clip-rule="evenodd" fill="#FFFFFF" width="25.68" height="3.67"/>
	<path fill-rule="evenodd" clip-rule="evenodd" fill="#FFFFFF" d="M157.98,130.92v-26.78h-27.51L84.62,155.5h27.51l19.62-22.01
		h26.23v3.67H132.3v3.67h25.68v3.67H132.3v3.67h25.68v3.67H132.3v3.67h31.18l19.62-22.01h26.23v-29.34h-27.51L157.98,130.92z
		 M157.98,130.92"/>
	<path fill-rule="evenodd" clip-rule="evenodd" fill="#FFFFFF" d="M214.28,109.83c-1.47,0-2.75-1.28-2.75-2.75
		c0-1.47,1.28-2.75,2.75-2.75c1.47,0,2.75,1.28,2.75,2.75C217.03,108.55,215.75,109.83,214.28,109.83L214.28,109.83z M214.28,104.88
		c-1.28,0-2.2,1.1-2.2,2.38c0,1.28,1.1,2.2,2.2,2.2c1.28,0,2.38-1.1,2.38-2.2C216.48,105.8,215.57,104.88,214.28,104.88
		L214.28,104.88z M215.57,108.73h-0.55c0,0,0,0-0.18,0l-0.73-1.1c0,0,0,0-0.18,0h-0.18h-0.18v1.1c0,0,0,0.18-0.18,0.18h-0.18
		c0,0-0.18,0-0.18-0.18v-3.12c0-0.18,0-0.18,0.18-0.18c0.18,0,0.55,0,0.92,0c0.92,0,1.28,0.18,1.28,1.1c0,0.55-0.18,0.73-0.55,0.92
		L215.57,108.73C215.57,108.55,215.57,108.55,215.57,108.73L215.57,108.73z M214.83,106.35c0-0.37-0.18-0.37-0.73-0.37
		c0,0-0.18,0-0.37,0h-0.18v0.92h0.37C214.65,106.9,214.83,106.71,214.83,106.35L214.83,106.35z M214.83,106.35"/>
	<path fill-rule="evenodd" clip-rule="evenodd" fill="#FFFFFF" d="M214.28,170.35c-1.47,0-2.75-1.28-2.75-2.75s1.28-2.75,2.75-2.75
		c1.47,0,2.75,1.28,2.75,2.75S215.75,170.35,214.28,170.35L214.28,170.35z M214.28,165.4c-1.28,0-2.2,1.1-2.2,2.38
		c0,1.28,1.1,2.2,2.2,2.2c1.28,0,2.38-1.1,2.38-2.2C216.48,166.32,215.57,165.4,214.28,165.4L214.28,165.4z M215.57,169.25h-0.55
		c0,0,0,0-0.18,0l-0.73-1.1c0,0,0,0-0.18,0h-0.18h-0.18v1.1c0,0,0,0.18-0.18,0.18h-0.18c0,0-0.18,0-0.18-0.18v-2.93
		c0-0.18,0-0.18,0.18-0.18c0.18,0,0.55,0,0.92,0c0.92,0,1.28,0.18,1.28,1.1c0,0.55-0.18,0.73-0.55,0.92l0.73,1.28
		C215.57,169.07,215.57,169.07,215.57,169.25L215.57,169.25z M214.83,166.87c0-0.37-0.18-0.37-0.73-0.37c0,0-0.18,0-0.37,0h-0.18
		v0.92h0.37C214.65,167.42,214.83,167.24,214.83,166.87L214.83,166.87z M214.83,166.87"/>
	<path fill-rule="evenodd" clip-rule="evenodd" fill="#FFFFFF" d="M131.38,172c1.28-0.55,2.2-1.83,2.2-3.3
		c0-0.92-0.37-1.83-0.92-2.38c-0.92-0.92-2.2-1.1-3.49-1.1h-4.95v10.45h2.93v-3.3h1.47l2.02,3.3h3.3L131.38,172z M129.55,169.99
		h-2.38v-2.57h2.38c0.73,0,1.28,0.55,1.28,1.28C130.83,169.44,130.28,169.99,129.55,169.99L129.55,169.99z M129.55,169.99"/>
</g>
</svg>
