<?xml version="1.0" encoding="utf-8"?>
<!-- Generator: Adobe Illustrator 28.0.0, SVG Export Plug-In . SVG Version: 6.00 Build 0)  -->
<svg version="1.1" id="Слой_1" xmlns="http://www.w3.org/2000/svg" xmlns:xlink="http://www.w3.org/1999/xlink" x="0px" y="0px"
	 viewBox="0 0 887.1033936 1000" enable-background="new 0 0 887.1033936 1000" xml:space="preserve">
<g>
	<path fill="#FFC220" d="M626.1054077,455.6058044c20.8417358-4.290863,205.2429199-88.7811279,221.7022095-98.283905
		c37.5775146-21.6950684,50.4519653-69.7448425,28.756897-107.321991s-69.744812-50.4519806-107.3215942-28.7569122
		c-16.4593506,9.5027618-181.8311157,126.9539642-195.9678345,142.8577728
		c-16.2023315,18.2281799-19.0033569,44.2977295-7.0184326,65.0555115
		C578.2409058,449.9144287,602.21875,460.5238342,626.1054077,455.6058044z"/>
	<path fill="#FFC220" d="M847.8076172,642.6781006c-16.4592896-9.5028076-200.8604736-93.993042-221.7022095-98.2839355
		c-23.8866577-4.9180298-47.864502,5.6914062-59.8487549,26.4491577
		c-11.9849243,20.7578125-9.1838989,46.8276978,7.0184326,65.055542
		c14.1367188,15.9041748,179.5084839,133.3553467,195.9678345,142.8581543
		c37.5767822,21.6950684,85.6265259,8.8202515,107.3215942-28.756958
		C898.2595825,712.4229126,885.3851318,664.3731689,847.8076172,642.6781006z"/>
	<path fill="#FFC220" d="M443.5519714,641.6868896c-23.9691467,0-45.1459961,15.4605103-52.8302917,38.6063843
		c-6.7050171,20.1946411-25.7351379,222.1361084-25.7351379,241.1416626c0,43.3900757,35.1745911,78.5650635,78.5654297,78.5650635
		c43.3901367,0,78.5647278-35.1749878,78.5647278-78.5650635c0-19.0055542-19.0293884-220.9470215-25.7344055-241.1416626
		C488.697998,657.1473999,467.5211487,641.6868896,443.5519714,641.6868896z"/>
	<path fill="#FFC220" d="M260.9978638,544.394165c-20.8410187,4.2908936-205.2429352,88.7811279-221.70224,98.2839355
		c-37.5767975,21.6950684-50.4519768,69.744812-28.7569103,107.3219604
		c21.6957912,37.5772095,69.7455673,50.4520264,107.3223648,28.756958
		c16.4593048-9.5028076,181.8303528-126.9539795,195.9670715-142.8581543
		c16.2030945-18.2278442,19.0033569-44.2977295,7.0191345-65.055542
		C308.8630676,550.0855713,284.8852234,539.4761353,260.9978638,544.394165z"/>
	<path fill="#FFC220" d="M117.861084,221.2429962c-37.5767975-21.6950684-85.6265717-8.8202515-107.3223648,28.7569122
		c-21.6950665,37.5771484-8.8198862,85.6269226,28.7569103,107.321991
		c16.459301,9.5027771,200.8612213,93.993042,221.70224,98.283905c23.8873596,4.9180298,47.8652039-5.6913757,59.8494263-26.4495239
		c11.9842224-20.757782,9.18396-46.8273315-7.0191345-65.0555115
		C299.6914368,348.1969604,134.3203888,230.7457581,117.861084,221.2429962z"/>
	<path fill="#FFC220" d="M443.5519714,0c-43.3908386,0-78.5654297,35.1745987-78.5654297,78.5647278
		c0,19.0055313,19.0301208,220.9473267,25.7351379,241.1420288c7.6842957,23.145874,28.861145,38.6059875,52.8302917,38.6059875
		c23.9691772,0,45.1460266-15.4601135,52.8303223-38.6059875c6.7050171-20.1947021,25.7344055-222.1365051,25.7344055-241.1420288
		C522.1166992,35.1745987,486.9421082,0,443.5519714,0z"/>
</g>
</svg>
