<?xml version="1.0" encoding="utf-8"?>
<!-- Generator: Adobe Illustrator 24.2.0, SVG Export Plug-In . SVG Version: 6.00 Build 0)  -->
<svg version="1.0" id="Layer_1" xmlns="http://www.w3.org/2000/svg" xmlns:xlink="http://www.w3.org/1999/xlink" x="0px" y="0px"
	 viewBox="0 0 300 280" enable-background="new 0 0 300 280" xml:space="preserve">
<g>
	<path fill="#EE8422" d="M150,64.12c41.92,0,75.88,33.96,75.88,75.88s-33.96,75.88-75.88,75.88S74.12,181.92,74.12,140
		S108.08,64.12,150,64.12"/>
	<path fill-rule="evenodd" clip-rule="evenodd" fill="#00693E" d="M79.64,140c0-38.85,31.51-70.36,70.36-70.36
		s70.33,31.48,70.33,70.33S188.82,210.3,150,210.3C111.15,210.33,79.64,178.85,79.64,140"/>
	<path fill="none" stroke="#00693E" stroke-width="1.828" stroke-miterlimit="3.864" d="M79.64,140c0-38.85,31.51-70.36,70.36-70.36
		s70.33,31.48,70.33,70.33S188.82,210.3,150,210.3C111.15,210.33,79.64,178.85,79.64,140z"/>
	<path fill-rule="evenodd" clip-rule="evenodd" fill="#FFFFFF" d="M121.99,157.18c0,0-0.55-5.28-2.15-7.83
		c-1.88-2.97-4.86-9.17-5.13-11.59c-0.27-2.43-1.88-5.4-4.04-7.28c2.15-1.88,3.76-4.86,4.04-7.28s3.25-8.62,5.13-11.59
		c1.61-2.55,2.15-7.83,2.15-7.83c6.19,3.76,16.18-1.61,22.92-1.61c6.74,0,16.72,5.4,22.92,1.61c0,0,0.55,5.28,2.15,7.83
		c1.88,2.97,4.86,9.17,5.13,11.59s1.88,5.4,4.04,7.28c-2.15,1.88-3.76,4.86-4.04,7.28s-3.25,8.62-5.13,11.59
		c-1.61,2.55-2.15,7.83-2.15,7.83c-6.19-3.76-16.18,1.61-22.92,1.61C138.16,158.79,128.18,153.42,121.99,157.18 M159.99,122
		c0-9.35-10.5-12.54-15.12-12.54s-15.12,3.22-15.12,12.54c0,4.01,2.15,7.47,3.25,8.8c-1.09,1.34-3.25,4.8-3.25,8.8
		c0,9.35,10.5,12.54,15.12,12.54s15.12-3.22,15.12-12.54c0-4.01-2.15-7.47-3.25-8.8C157.83,129.47,159.99,126.01,159.99,122"/>
	<path fill="none" stroke="#EE8422" stroke-width="4" stroke-miterlimit="3.864" d="M121.99,157.18c0,0-0.55-5.28-2.15-7.83
		c-1.88-2.97-4.86-9.17-5.13-11.59c-0.27-2.43-1.88-5.4-4.04-7.28c2.15-1.88,3.76-4.86,4.04-7.28s3.25-8.62,5.13-11.59
		c1.61-2.55,2.15-7.83,2.15-7.83c6.19,3.76,16.18-1.61,22.92-1.61c6.74,0,16.72,5.4,22.92,1.61c0,0,0.55,5.28,2.15,7.83
		c1.88,2.97,4.86,9.17,5.13,11.59s1.88,5.4,4.04,7.28c-2.15,1.88-3.76,4.86-4.04,7.28s-3.25,8.62-5.13,11.59
		c-1.61,2.55-2.15,7.83-2.15,7.83c-6.19-3.76-16.18,1.61-22.92,1.61C138.16,158.79,128.18,153.42,121.99,157.18z M159.99,122
		c0-9.35-10.5-12.54-15.12-12.54s-15.12,3.22-15.12,12.54c0,4.01,2.15,7.47,3.25,8.8c-1.09,1.34-3.25,4.8-3.25,8.8
		c0,9.35,10.5,12.54,15.12,12.54s15.12-3.22,15.12-12.54c0-4.01-2.15-7.47-3.25-8.8C157.83,129.47,159.99,126.01,159.99,122z"/>
	<path fill-rule="evenodd" clip-rule="evenodd" fill="#FFFFFF" d="M132.49,122.24l0.67,6.07c0,0,2.7,0.27,4.04,0.27
		c0,0,4.31,0,4.31,2.97v16.45c0,2.15-2.43,4.31-2.43,4.31s2.43,1.88,2.43,4.04v8.23c0,6.19-8.23,5.13-8.23,5.13v7.68h5.8
		c2.55,0,5.8-1.76,5.8-1.76l3.1,2.31c0.39-0.15,3.25-2.31,3.25-2.31c2.82,5.13,19,1.21,21.58,0.55c2.55-0.67,5.92,0.55,5.92,0.55
		c0-1.61-0.55-2.82,2.43-6.89c2.97-4.04,7.56-12.54,8.5-15.9c0.94-3.37,3.25-5.13,3.25-5.13s-2.31-1.34-2.82-4.86
		c-1.21-7.92-6.74-14.69-8.35-16.33c-1.61-1.61-1.21-5.8-1.21-5.8c-1.76,0.55-5.86-0.52-5.86-0.52c0.24,0.73,0.39,1.4,0.46,1.88
		c0.27,2.43,1.88,5.4,4.04,7.28c-2.15,1.88-3.76,4.86-4.04,7.28c-0.15,1.4-1.34,4.37-2.55,6.95c0,0,0.67,3.04,0.67,5.46
		c0,20.21-10.26,19.94-13.48,19.94c-3.25,0-5.55-3.37-5.55-5.52v-8.23c0-2.15,2.43-4.04,2.43-4.04s-2.43-2.15-2.43-4.31v-16.45
		c0-3.76,3.92-2.97,3.92-2.97c2.43-2.7,1.61-7.83,1.61-7.83c-2.7,0-6.19,1.61-9.71,1.61c-3.49,0-5.13-1.61-5.13-1.61
		s-2.7,1.88-6.19,0.82C136.58,120.94,132.49,122.24,132.49,122.24"/>
	<path fill="none" stroke="#EE8422" stroke-width="3" stroke-miterlimit="3.864" d="M132.49,122.24l0.67,6.07
		c0,0,2.7,0.27,4.04,0.27c0,0,4.31,0,4.31,2.97v16.45c0,2.15-2.43,4.31-2.43,4.31s2.43,1.88,2.43,4.04v8.23
		c0,6.19-8.23,5.13-8.23,5.13v7.68h5.8c2.55,0,5.8-1.76,5.8-1.76l3.1,2.31c0.39-0.15,3.25-2.31,3.25-2.31
		c2.82,5.13,19,1.21,21.58,0.55c2.55-0.67,5.92,0.55,5.92,0.55c0-1.61-0.55-2.82,2.43-6.89c2.97-4.04,7.56-12.54,8.5-15.9
		c0.94-3.37,3.25-5.13,3.25-5.13s-2.31-1.34-2.82-4.86c-1.21-7.92-6.74-14.69-8.35-16.33c-1.61-1.61-1.21-5.8-1.21-5.8
		c-1.76,0.55-5.86-0.52-5.86-0.52c0.24,0.73,0.39,1.4,0.46,1.88c0.27,2.43,1.88,5.4,4.04,7.28c-2.15,1.88-3.76,4.86-4.04,7.28
		c-0.15,1.4-1.34,4.37-2.55,6.95c0,0,0.67,3.04,0.67,5.46c0,20.21-10.26,19.94-13.48,19.94c-3.25,0-5.55-3.37-5.55-5.52v-8.23
		c0-2.15,2.43-4.04,2.43-4.04s-2.43-2.15-2.43-4.31v-16.45c0-3.76,3.92-2.97,3.92-2.97c2.43-2.7,1.61-7.83,1.61-7.83
		c-2.7,0-6.19,1.61-9.71,1.61c-3.49,0-5.13-1.61-5.13-1.61s-2.7,1.88-6.19,0.82C136.58,120.94,132.49,122.24,132.49,122.24z"/>
	<path fill-rule="evenodd" clip-rule="evenodd" fill="#FFFFFF" d="M96.79,176.18c-0.3,0.21-0.67,0.39-0.64,0.79v0.21
		c0,0.24,0,0.46-0.24,0.64c-0.39,0.27-0.73,0-0.94-0.3l-1.73-2.46c-0.21-0.3-0.33-0.7,0.06-0.97c0.27-0.18,0.46-0.09,0.67,0
		l0.18,0.09c0.36,0.18,0.67-0.12,0.97-0.3l6.92-4.8c0.3-0.21,0.67-0.39,0.64-0.79v-0.21c0-0.24,0-0.46,0.24-0.64
		c0.39-0.27,0.73,0,0.94,0.3l3.92,5.65c0.15,0.21,0.52,0.67,0.49,0.94c0,0.49-0.76,1-1.12,1.31c-0.3,0.21-0.76,0.64-1.03,0.21
		c-0.18-0.24-0.09-0.55,0-0.85c0.39-1.27,0.03-1.85-0.67-2.82c-0.18-0.27-0.64-0.94-1-1s-0.73,0.24-1.03,0.46l-2.46,1.7l1.34,1.91
		c0.64,0.94,1.09,0.42,1.4,0.85c0.3,0.46-0.33,0.91-0.67,1.15c-0.39,0.27-1.18,0.91-1.52,0.39c-0.3-0.46,0.27-0.7-0.33-1.58
		l-1.34-1.91L96.79,176.18z"/>
	<path fill-rule="evenodd" clip-rule="evenodd" fill="#FFFFFF" d="M114.76,192.75c-0.97,1.52-0.88,1.73,0.91,2.91
		c0.79,0.52,1.34,0.82,2.37,0.49c0.39-0.12,0.97-0.36,1.34-0.15c0.24,0.15,0.33,0.52,0.15,0.79c-0.24,0.39-0.82,0.85-1.15,1.15
		c-0.58,0.52-0.73,0.52-1.34,0.12l-6.5-4.22c-0.3-0.18-0.58-0.52-0.33-0.94c0.18-0.27,0.36-0.24,0.64-0.27h0.21
		c0.39,0.03,0.58-0.36,0.76-0.67l4.58-7.07c0.21-0.3,0.49-0.61,0.3-0.97l-0.09-0.18c-0.09-0.24-0.18-0.42,0-0.67
		c0.24-0.39,0.67-0.27,0.97-0.09l6.22,4.04c0.21,0.12,0.58,0.33,0.61,0.64c0.03,0.33-0.49,1.24-0.67,1.55
		c-0.21,0.33-0.55,0.55-0.88,0.33c-0.3-0.18-0.3-0.49-0.33-0.85c-0.03-0.49-0.15-0.82-0.46-1.15c-0.3-0.3-0.85-0.73-1.24-0.97
		c-0.27-0.18-0.88-0.55-1.18-0.61c-0.24-0.03-0.49,0.03-0.61,0.24l-1.79,2.76l2,1.31c0.94,0.61,1.15-0.03,1.61,0.27
		c0.46,0.3,0.03,0.94-0.21,1.34c-0.24,0.39-0.73,1.27-1.27,0.94c-0.46-0.3,0-0.73-0.91-1.34l-2-1.31L114.76,192.75z"/>
	<path fill-rule="evenodd" clip-rule="evenodd" fill="#FFFFFF" d="M125.45,190.38c0.15-0.33,0.39-0.67,0.15-1l-0.12-0.18
		c-0.12-0.21-0.24-0.39-0.12-0.67c0.21-0.42,0.64-0.36,0.94-0.21l2.73,1.27c0.3,0.15,0.67,0.42,0.46,0.88
		c-0.12,0.3-0.33,0.3-0.58,0.36l-0.21,0.03c-0.39,0.03-0.52,0.42-0.67,0.76l-3.52,7.65c-0.15,0.33-0.39,0.67-0.15,1l0.12,0.18
		c0.12,0.21,0.24,0.39,0.09,0.67c-0.21,0.42-0.64,0.36-0.94,0.21l-2.73-1.27c-0.3-0.15-0.67-0.42-0.46-0.88
		c0.12-0.27,0.33-0.3,0.58-0.36l0.21-0.03c0.39-0.03,0.52-0.42,0.67-0.76L125.45,190.38z"/>
	<path fill-rule="evenodd" clip-rule="evenodd" fill="#FFFFFF" d="M140.04,196.55c-0.15,0.3-0.39,0.49-0.73,0.39
		c-0.36-0.09-0.42-0.36-0.46-0.73c-0.09-0.64-0.18-1.15-0.52-1.7c-0.39-0.61-1-1.03-1.64-1.21c-2.58-0.73-4.49,1.82-5.16,4.28
		c-0.61,2.19-0.3,5.22,1.97,5.86c0.52,0.15,1.27,0.18,1.79-0.18c0.58-0.36,0.82-1.24,1-1.91c0.3-1.09,0.3-1.43-0.73-1.73
		c-0.46-0.12-1.21-0.21-1-0.97c0.18-0.67,0.88-0.49,1.34-0.36l2.46,0.67c0.3,0.09,0.94,0.27,1.18,0.46c0.18,0.15,0.21,0.3,0.12,0.52
		c-0.06,0.24-0.21,0.55-0.3,0.76l-0.42,1.15c-0.15,0.58-0.24,1.12-0.3,1.7c0,0.09-0.03,0.27-0.06,0.36c-0.21,0.73-1.7,1-2.28,1.06
		c-1.24,0.15-2.12,0.15-3.31-0.18c-3.43-0.94-5.52-4.01-4.43-8.04c1.12-4.07,4.7-5.83,8.23-4.86c1.06,0.3,2.4,1,3.19,1.85
		c0.21,0.24,0.42,0.49,0.46,0.82c0.06,0.33-0.18,1.18-0.3,1.52L140.04,196.55z"/>
	<path fill-rule="evenodd" clip-rule="evenodd" fill="#FFFFFF" d="M144.81,204.38c-0.03,0.36-0.09,0.79,0.24,0.97l0.18,0.12
		c0.21,0.15,0.36,0.27,0.36,0.58c-0.03,0.49-0.46,0.58-0.82,0.58l-3-0.15c-0.36,0-0.76-0.15-0.76-0.64c0-0.3,0.18-0.42,0.39-0.55
		l0.18-0.09c0.36-0.18,0.3-0.58,0.33-0.94l0.36-8.41c0.03-0.36,0.09-0.76-0.24-0.97l-0.18-0.12c-0.21-0.15-0.36-0.27-0.36-0.58
		c0.03-0.49,0.46-0.58,0.82-0.58l3,0.15c0.33,0,0.76,0.15,0.76,0.64c0,0.3-0.18,0.42-0.39,0.55l-0.18,0.09
		c-0.36,0.18-0.3,0.58-0.33,0.94l-0.12,3l4.7,0.21l0.15-2.97c0-0.36,0.09-0.76-0.24-0.97l-0.18-0.12c-0.21-0.15-0.36-0.27-0.36-0.58
		c0.03-0.49,0.46-0.58,0.82-0.58l3,0.15c0.36,0.03,0.76,0.15,0.76,0.64c0,0.3-0.18,0.42-0.39,0.55l-0.18,0.09
		c-0.36,0.18-0.3,0.58-0.33,0.97l-0.39,8.41c-0.03,0.36-0.09,0.76,0.24,0.97l0.18,0.12c0.21,0.15,0.36,0.27,0.36,0.58
		c-0.03,0.49-0.46,0.58-0.82,0.58l-3-0.12c-0.33-0.03-0.76-0.15-0.76-0.64c0-0.3,0.18-0.42,0.39-0.55l0.18-0.09
		c0.36-0.18,0.3-0.58,0.33-0.94l0.18-4.1l-4.73-0.21L144.81,204.38z"/>
	<path fill-rule="evenodd" clip-rule="evenodd" fill="#FFFFFF" d="M158.47,195.54c-0.12-0.64-0.12-0.94-0.79-0.82
		c-1.79,0.3-1.55,1.76-2.28,1.88c-0.36,0.06-0.64-0.15-0.7-0.55c-0.03-0.18-0.03-0.39-0.03-0.58c0-0.33-0.06-1.21,0.15-1.49
		c0.12-0.15,0.49-0.18,0.7-0.21l7.98-1.4c0.18-0.03,0.55-0.12,0.73-0.03c0.27,0.15,0.55,1.03,0.64,1.34
		c0.06,0.15,0.15,0.36,0.18,0.55c0.06,0.39-0.09,0.7-0.49,0.76c-0.73,0.12-1-1.31-2.79-1c-0.67,0.12-0.58,0.42-0.46,1.03l1.46,8.29
		c0.06,0.36,0.06,0.76,0.46,0.91l0.18,0.06c0.24,0.09,0.42,0.18,0.49,0.49c0.09,0.46-0.3,0.67-0.67,0.73l-2.97,0.52
		c-0.33,0.06-0.79,0-0.88-0.46c-0.06-0.3,0.09-0.46,0.27-0.61l0.15-0.12c0.3-0.24,0.18-0.64,0.12-1L158.47,195.54z"/>
	<path fill-rule="evenodd" clip-rule="evenodd" fill="#FFFFFF" d="M171.67,191.96c-0.15-0.33-0.27-0.73-0.67-0.76l-0.21-0.03
		c-0.24-0.03-0.46-0.06-0.58-0.33c-0.21-0.42,0.12-0.73,0.42-0.88l2.7-1.34c0.3-0.15,0.76-0.24,0.97,0.18
		c0.15,0.27,0.03,0.46-0.09,0.67l-0.12,0.18c-0.21,0.33,0,0.67,0.18,1l3.67,7.44c0.46,0.94,0.67,0.82,1.49,0.49l0.52-0.24
		c0.85-0.42,1.4-0.73,1.64-1.79c0.09-0.39,0.18-1.03,0.55-1.21c0.24-0.12,0.61-0.03,0.76,0.27c0.21,0.42,0.33,1.12,0.39,1.58
		c0.15,0.76,0.06,0.88-0.58,1.18l-6.37,3.16c-0.3,0.15-0.76,0.24-0.97-0.18c-0.15-0.27-0.03-0.46,0.09-0.67l0.12-0.18
		c0.24-0.33,0-0.67-0.18-1L171.67,191.96z"/>
	<path fill-rule="evenodd" clip-rule="evenodd" fill="#FFFFFF" d="M180.14,187.44c-0.21-0.3-0.39-0.67-0.79-0.64h-0.21
		c-0.24,0-0.46,0-0.64-0.24c-0.27-0.39,0.03-0.73,0.3-0.94l2.49-1.7c0.27-0.18,0.7-0.33,0.97,0.06c0.18,0.27,0.09,0.46,0,0.67
		l-0.09,0.18c-0.18,0.36,0.09,0.67,0.3,0.97l4.7,6.98c0.21,0.3,0.36,0.67,0.79,0.64h0.21c0.24,0,0.46,0,0.64,0.24
		c0.27,0.39-0.03,0.73-0.3,0.94l-2.49,1.7c-0.27,0.18-0.73,0.33-0.97-0.06c-0.18-0.27-0.09-0.46,0-0.67l0.09-0.18
		c0.18-0.36-0.09-0.67-0.3-0.97L180.14,187.44z"/>
	<path fill-rule="evenodd" clip-rule="evenodd" fill="#FFFFFF" d="M191.04,178.49c-0.15-0.15-0.33-0.27-0.46-0.36
		c-0.3-0.15-0.52-0.03-0.79,0.06c-0.27,0.09-0.46,0.09-0.7-0.15c-0.42-0.42,0.15-0.88,0.42-1.12l1-0.94
		c0.27-0.24,0.76-0.79,1.15-0.33c0.24,0.24,0.21,0.42,0.09,0.7c-0.12,0.24-0.24,0.46-0.09,0.76c0.06,0.15,0.18,0.33,0.33,0.49
		l6.56,6.98c0.67,0.7,0.82,0.94,0.12,1.61c-0.24,0.24-0.42,0.39-0.79,0.36c-0.42-0.03-1.64-0.39-2.09-0.55l-8.8-2.12l5.07,5.37
		c0.15,0.15,0.33,0.27,0.46,0.36c0.3,0.15,0.52,0.03,0.79-0.06c0.27-0.09,0.46-0.09,0.7,0.15c0.42,0.42-0.15,0.88-0.42,1.12l-1,0.94
		c-0.27,0.24-0.76,0.79-1.15,0.33c-0.24-0.24-0.21-0.42-0.12-0.7c0.12-0.24,0.24-0.46,0.09-0.76c-0.06-0.15-0.18-0.33-0.33-0.49
		l-5.34-5.68c-0.52-0.55-0.91-1.09-1.64-0.76c-0.3,0.12-0.58,0.27-0.85-0.03c-0.39-0.42-0.06-0.76,0.24-1.06l1.58-1.49
		c0.42-0.39,0.49-0.49,1.09-0.39c1.46,0.15,3.55,0.73,5.04,1.09l3.85,0.97L191.04,178.49z"/>
	<path fill-rule="evenodd" clip-rule="evenodd" fill="#FFFFFF" d="M201.23,177.73c1.49,1.06,1.7,0.97,2.94-0.79
		c0.55-0.79,0.88-1.31,0.58-2.34c-0.12-0.39-0.33-1-0.09-1.34c0.15-0.24,0.55-0.33,0.82-0.12c0.39,0.27,0.82,0.85,1.09,1.21
		c0.49,0.61,0.46,0.73,0.06,1.34l-4.49,6.31c-0.21,0.27-0.55,0.58-0.94,0.27c-0.27-0.18-0.24-0.39-0.24-0.64v-0.21
		c0.03-0.39-0.33-0.58-0.64-0.79l-6.86-4.86c-0.3-0.21-0.61-0.52-0.97-0.33l-0.18,0.09c-0.24,0.09-0.42,0.15-0.67-0.03
		c-0.39-0.27-0.24-0.7-0.03-0.97l4.28-6.04c0.15-0.21,0.36-0.58,0.67-0.58c0.36,0,1.21,0.55,1.52,0.76c0.33,0.24,0.52,0.58,0.3,0.91
		c-0.21,0.27-0.52,0.27-0.85,0.27c-0.49,0.03-0.82,0.12-1.15,0.39c-0.33,0.27-0.76,0.82-1.03,1.21c-0.18,0.27-0.58,0.85-0.64,1.15
		c-0.06,0.24,0,0.49,0.21,0.64l2.67,1.88l1.4-1.94c0.64-0.91,0.03-1.15,0.33-1.58c0.33-0.46,0.94,0,1.31,0.24
		c0.39,0.27,1.24,0.79,0.88,1.31c-0.3,0.42-0.73-0.03-1.37,0.85l-1.4,1.94L201.23,177.73z"/>
	<path fill-rule="evenodd" clip-rule="evenodd" fill="#FFFFFF" d="M99.07,100.3c-0.27-0.24-0.55-0.58-0.94-0.42l-0.21,0.06
		c-0.24,0.06-0.42,0.12-0.67-0.09c-0.36-0.3-0.18-0.73,0.06-1l2-2.31c0.24-0.27,0.61-0.52,0.97-0.18c0.24,0.21,0.21,0.42,0.18,0.67
		l-0.03,0.21c-0.09,0.39,0.27,0.61,0.55,0.85l6.31,5.52c0.79,0.7,0.94,0.52,1.58-0.12l0.39-0.46c0.64-0.73,1-1.24,0.82-2.31
		c-0.06-0.39-0.24-1.03,0.03-1.34c0.18-0.21,0.58-0.27,0.82-0.06c0.36,0.3,0.76,0.94,1,1.34c0.42,0.64,0.39,0.79-0.09,1.34
		l-4.73,5.43c-0.24,0.27-0.61,0.52-0.97,0.18c-0.24-0.21-0.21-0.42-0.18-0.67l0.03-0.21c0.09-0.39-0.27-0.61-0.55-0.85L99.07,100.3z
		"/>
	<path fill-rule="evenodd" clip-rule="evenodd" fill="#FFFFFF" d="M163.2,75.35c0.39-0.67,0.49-0.85,1.18-0.76l2.94,0.49
		c0.3,0.06,0.52,0.3,0.42,0.73c-0.06,0.46-0.39,0.49-0.73,0.55c-0.46,0.06-0.52,0.33-0.61,0.79l-1.37,8.5
		c-0.06,0.36-0.18,0.76,0.12,1l0.15,0.12c0.18,0.18,0.33,0.3,0.27,0.61c-0.06,0.49-0.52,0.52-0.88,0.49l-3-0.49
		c-0.36-0.06-0.76-0.24-0.67-0.73c0.06-0.3,0.24-0.39,0.46-0.52l0.18-0.09c0.36-0.15,0.36-0.55,0.42-0.91l1.21-7.62l-3.7,6.65
		c-0.39,0.7-0.52,1.06-1.34,0.91c-0.7-0.12-0.88-0.21-1.06-0.94l-1.61-7.68l-1.18,7.47c-0.03,0.21-0.03,0.42,0,0.61
		c0.06,0.33,0.27,0.46,0.52,0.58c0.24,0.15,0.36,0.3,0.3,0.64c-0.09,0.61-0.79,0.42-1.15,0.36l-1.37-0.21
		c-0.36-0.06-1.09-0.12-1-0.73c0.06-0.33,0.21-0.42,0.49-0.52c0.27-0.06,0.52-0.09,0.67-0.39c0.06-0.15,0.15-0.36,0.18-0.58
		l1.37-8.44c0-0.06,0.03-0.24,0-0.36c0-0.3-0.15-0.58-0.52-0.76c-0.27-0.15-0.58-0.3-0.52-0.73c0.09-0.58,0.58-0.52,1-0.46l3.1,0.49
		c0.76,0.12,0.76,0.67,0.88,1.43l1.18,6.65L163.2,75.35z"/>
	<path fill-rule="evenodd" clip-rule="evenodd" fill="#FFFFFF" d="M170.52,78.72c0.12-0.36,0.33-0.73,0.06-1.03l-0.12-0.15
		c-0.15-0.21-0.27-0.36-0.18-0.67c0.15-0.46,0.61-0.42,0.94-0.3l2.85,1.03c0.33,0.12,0.7,0.39,0.55,0.82
		c-0.09,0.3-0.3,0.33-0.55,0.39l-0.21,0.03c-0.39,0.06-0.49,0.49-0.61,0.82l-2.85,8.01c-0.12,0.36-0.33,0.73-0.06,1.03l0.12,0.15
		c0.15,0.21,0.27,0.36,0.18,0.67c-0.15,0.46-0.61,0.42-0.94,0.3l-2.88-1.03c-0.33-0.12-0.7-0.39-0.55-0.82
		c0.09-0.3,0.3-0.33,0.55-0.42l0.21-0.03c0.39-0.06,0.49-0.49,0.61-0.82L170.52,78.72z"/>
	<path fill-rule="evenodd" clip-rule="evenodd" fill="#FFFFFF" d="M184.57,85.21c0.09-0.18,0.15-0.39,0.21-0.58
		c0.06-0.33-0.12-0.52-0.3-0.73c-0.18-0.24-0.24-0.42-0.06-0.7c0.3-0.52,0.88-0.12,1.21,0.06l1.21,0.67c0.33,0.18,0.97,0.49,0.7,1
		c-0.15,0.3-0.33,0.33-0.64,0.33c-0.27-0.03-0.52-0.09-0.76,0.15c-0.12,0.12-0.24,0.3-0.36,0.46l-4.67,8.47
		c-0.49,0.85-0.67,1.09-1.52,0.61c-0.3-0.18-0.52-0.27-0.58-0.64c-0.09-0.42-0.12-1.7-0.12-2.19L178.23,83l-3.64,6.5
		c-0.09,0.18-0.15,0.39-0.21,0.55c-0.06,0.33,0.12,0.52,0.3,0.73c0.18,0.24,0.24,0.42,0.06,0.7c-0.3,0.52-0.91,0.12-1.21-0.03
		l-1.21-0.67c-0.33-0.18-0.97-0.49-0.7-1c0.15-0.3,0.33-0.33,0.64-0.3c0.27,0.03,0.52,0.09,0.76-0.15c0.12-0.12,0.24-0.3,0.36-0.46
		l3.82-6.89c0.36-0.67,0.76-1.21,0.24-1.82c-0.21-0.24-0.46-0.46-0.24-0.85c0.27-0.52,0.73-0.3,1.09-0.09l1.91,1.06
		c0.52,0.27,0.61,0.3,0.73,0.94c0.3,1.46,0.39,3.64,0.52,5.19l0.27,4.01L184.57,85.21z"/>
	<path fill-rule="evenodd" clip-rule="evenodd" fill="#FFFFFF" d="M188.91,88.31c0.24-0.3,0.55-0.58,0.36-0.94l-0.06-0.18
		c-0.09-0.24-0.15-0.42,0.06-0.7c0.3-0.36,0.73-0.21,1,0l2.4,1.88c0.27,0.21,0.55,0.58,0.24,0.97c-0.21,0.24-0.39,0.24-0.67,0.21
		l-0.21-0.03c-0.39-0.06-0.61,0.3-0.82,0.58l-5.28,6.71c-0.24,0.3-0.55,0.58-0.36,0.94l0.06,0.18c0.06,0.24,0.15,0.42-0.06,0.7
		c-0.3,0.36-0.73,0.21-1,0l-2.4-1.88c-0.27-0.21-0.55-0.58-0.24-0.97c0.21-0.24,0.39-0.21,0.67-0.21l0.21,0.03
		c0.39,0.06,0.61-0.3,0.82-0.61L188.91,88.31z"/>
	<path fill-rule="evenodd" clip-rule="evenodd" fill="#FFFFFF" d="M208.12,111.07c0.18-0.12,0.33-0.24,0.46-0.36
		c0.21-0.24,0.15-0.52,0.12-0.79c-0.03-0.3,0.03-0.46,0.3-0.64c0.52-0.3,0.85,0.36,1.03,0.67l0.7,1.21c0.18,0.3,0.58,0.91,0.06,1.21
		c-0.3,0.18-0.46,0.12-0.7-0.06c-0.21-0.18-0.39-0.33-0.73-0.27c-0.15,0.03-0.36,0.12-0.55,0.21l-8.38,4.8
		c-0.85,0.49-1.12,0.58-1.61-0.27c-0.18-0.3-0.27-0.52-0.15-0.85c0.12-0.42,0.79-1.49,1.03-1.94l4.16-8.16l-6.5,3.73
		c-0.18,0.12-0.33,0.24-0.46,0.36c-0.21,0.24-0.15,0.52-0.12,0.79c0.03,0.3-0.03,0.46-0.3,0.64c-0.52,0.3-0.82-0.36-1.03-0.67
		l-0.7-1.21c-0.18-0.3-0.58-0.91-0.06-1.21c0.3-0.18,0.46-0.12,0.7,0.06c0.21,0.18,0.39,0.33,0.73,0.27
		c0.15-0.03,0.36-0.12,0.55-0.21l6.83-3.92c0.67-0.39,1.27-0.64,1.12-1.43c-0.06-0.3-0.12-0.64,0.24-0.85
		c0.52-0.3,0.76,0.12,0.97,0.49l1.09,1.91c0.3,0.52,0.36,0.58,0.15,1.18c-0.49,1.4-1.55,3.31-2.25,4.67l-1.85,3.55L208.12,111.07z"
		/>
	<path fill-rule="evenodd" clip-rule="evenodd" fill="#FFFFFF" d="M99.46,116.87c-1.73,0.42-3.52,0.09-5.16-0.82
		c-3.43-1.94-4.49-5.77-2.79-8.8c1.73-3.07,5.49-4.25,9.01-2.28c3.46,1.97,4.49,5.92,2.76,8.98
		C102.53,115.32,101.1,116.45,99.46,116.87 M99.07,107.74c-1.97-1.12-5.1-2.06-6.34,0.15c-0.58,1.03-0.27,2.22,0.46,3.22
		c0.67,0.94,1.61,1.61,2.64,2.19c1.91,1.09,5.16,2.12,6.37-0.09C103.44,110.98,101.07,108.86,99.07,107.74"/>
	<path fill-rule="evenodd" clip-rule="evenodd" fill="#FFFFFF" d="M109.12,87.25c1.34-1,2.67-1.79,4.52-1.64
		c1.91,0.12,3.49,1.15,4.7,2.73c1.06,1.4,1.73,3.13,1.61,4.8c-0.15,1.82-1.18,3.16-2.52,4.16l-4.13,3.13c-0.27,0.21-0.7,0.36-1,0
		c-0.18-0.24-0.12-0.46-0.03-0.7l0.06-0.18c0.15-0.36-0.12-0.67-0.36-0.94l-5.13-6.77c-0.21-0.3-0.42-0.67-0.82-0.61l-0.21,0.03
		c-0.24,0-0.46,0.03-0.64-0.21c-0.3-0.39-0.03-0.76,0.27-0.97L109.12,87.25z M113.85,96.23c0.76,1,1.06,1.37,2.03,0.64
		c2.12-1.61,1.73-4.31,0.06-6.5c-1.7-2.25-4.28-3.46-6.5-1.79c-0.91,0.7-0.67,1,0.03,1.91L113.85,96.23z"/>
	<path fill-rule="evenodd" clip-rule="evenodd" fill="#FFFFFF" d="M129.03,76.59c1.61-0.52,3.13-0.79,4.8-0.06
		c1.76,0.76,2.91,2.25,3.52,4.13c0.55,1.67,0.61,3.52-0.09,5.07c-0.76,1.67-2.15,2.58-3.76,3.1l-4.92,1.58
		c-0.33,0.12-0.79,0.12-0.94-0.33c-0.09-0.3,0.03-0.46,0.18-0.67l0.12-0.15c0.27-0.3,0.09-0.67-0.03-1.03l-2.58-8.1
		c-0.12-0.36-0.18-0.76-0.58-0.85l-0.21-0.06c-0.24-0.06-0.46-0.12-0.55-0.42c-0.15-0.46,0.24-0.7,0.58-0.82L129.03,76.59z
		 M130.51,86.67c0.36,1.18,0.55,1.64,1.7,1.27c2.55-0.82,3.07-3.49,2.25-6.1c-0.85-2.67-2.88-4.7-5.52-3.85
		c-1.09,0.33-0.97,0.73-0.61,1.79L130.51,86.67z"/>
	<path fill-rule="evenodd" clip-rule="evenodd" fill="#FFFFFF" d="M141.23,85.09c-1.31-1.21-2.03-2.85-2.19-4.73
		c-0.3-3.95,2.28-6.95,5.77-7.22c3.52-0.27,6.59,2.19,6.92,6.22c0.3,3.98-2.43,7.01-5.92,7.31
		C144.23,86.79,142.5,86.22,141.23,85.09 M148.6,79.69c-0.18-2.25-1.12-5.4-3.67-5.19c-1.18,0.09-2,1-2.43,2.15
		c-0.39,1.09-0.46,2.25-0.36,3.4c0.18,2.22,1.12,5.43,3.61,5.25C148.33,85.12,148.79,81.97,148.6,79.69"/>
	<path fill-rule="evenodd" clip-rule="evenodd" fill="#FFFFFF" d="M187.85,99.02c0.12-1.76,0.97-3.37,2.37-4.64
		c2.88-2.67,6.86-2.52,9.23,0.06c2.4,2.58,2.37,6.53-0.61,9.29c-2.91,2.7-7.01,2.46-9.38-0.09
		C188.36,102.42,187.73,100.72,187.85,99.02 M196.68,101.45c1.67-1.55,3.52-4.22,1.79-6.1c-0.82-0.88-2-0.94-3.22-0.55
		c-1.09,0.36-2.03,1.03-2.88,1.82c-1.61,1.49-3.58,4.25-1.88,6.1C192.25,104.61,194.98,103.03,196.68,101.45"/>
	<path fill-rule="evenodd" clip-rule="evenodd" fill="#FFFFFF" d="M104.02,185.07c-0.24,0.27-0.58,0.52-0.46,0.91l0.06,0.18
		c0.06,0.24,0.09,0.46-0.12,0.67c-0.33,0.33-0.73,0.12-0.97-0.12l-2.19-2.12c-0.24-0.24-0.46-0.64-0.15-0.97
		c0.21-0.21,0.42-0.18,0.67-0.15l0.21,0.06c0.39,0.09,0.61-0.24,0.88-0.49l5.86-6.04c0.24-0.27,0.58-0.52,0.46-0.88l-0.06-0.21
		c-0.06-0.24-0.09-0.46,0.12-0.67c0.33-0.33,0.73-0.12,0.97,0.12l4.07,3.92c0.61,0.61,1.31,1.31,1.55,2.19
		c0.3,0.97,0.03,2.09-0.76,2.88c-1.15,1.18-2.76,1.18-4.13,0.76c-0.12,1.61-0.73,3.13-1.43,4.61c-0.21,0.52-0.33,0.79-0.21,1.31
		c0.06,0.24,0.12,0.42-0.09,0.64c-0.33,0.33-0.73,0-0.94-0.21l-2.22-2.15c-0.27-0.27-0.7-0.64-0.27-1.09
		c0.36-0.36,0.82,0.12,1.15-0.21c0.64-0.64,1.37-3.31,1.46-4.31l-1.34-0.88L104.02,185.07z M107.14,181.86
		c1.09,1,3.13,2.09,4.58,0.61c1.06-1.09,0.76-2.28-0.15-3.16c-0.24-0.24-0.73-0.61-1.09-0.58c-0.36,0.03-0.73,0.39-0.97,0.67
		L107.14,181.86z"/>
</g>
</svg>
