<?xml version="1.0" encoding="utf-8"?>
<!-- Generator: Adobe Illustrator 16.0.0, SVG Export Plug-In . SVG Version: 6.00 Build 0)  -->
<svg version="1.2" baseProfile="tiny" id="Layer_1" xmlns="http://www.w3.org/2000/svg" xmlns:xlink="http://www.w3.org/1999/xlink"
	 x="0px" y="0px"   viewBox="0 0 3000 3000" xml:space="preserve">
<title>ENG_Amnesty_logo_RGB_yellow</title>
<g id="Layer_2">
	<g id="Layer_1-2">
		<path fill="#FF3008" d="M158.673,1923.813v192.9h49.308c52.572-0.732,94.608-43.914,93.906-96.492
			c1.38-51.852-39.521-94.998-91.374-96.378c-0.858-0.018-1.692-0.03-2.538-0.03H158.673z M207.975,1863.231
			c91.95,0,161.436,69.582,161.436,156.99s-69.492,156.984-161.436,156.984H99.195c-4.326,0-7.83-3.504-7.83-7.83v-297.372
			c0-4.326,3.504-7.83,7.83-7.83L207.975,1863.231z"/>
		<path fill="#FF3008" d="M606.692,2123.362c56.965,0,103.141-46.177,103.141-103.135c0-56.957-46.182-103.14-103.141-103.14
			c-56.957,0-103.14,46.182-103.14,103.14C503.637,2077.15,549.765,2123.284,606.692,2123.362 M606.692,1856.584
			c96.414,0,170.377,73.956,170.377,163.632s-73.95,163.71-170.376,163.71c-96.408,0-170.437-74.034-170.437-163.71
			s73.95-163.332,170.437-163.332"/>
		<path fill="#FF3008" d="M1011.831,2123.362c56.964,0.048,103.176-46.099,103.224-103.063
			c0.042-56.964-46.104-103.182-103.062-103.224c-56.965-0.042-103.176,46.104-103.225,103.067c0,0.03,0,0.055,0,0.084
			C908.858,2077.12,954.933,2123.236,1011.831,2123.362 M1011.831,1856.584c96.498,0,170.448,73.956,170.448,163.632
			s-73.95,163.71-170.448,163.71c-96.492,0-170.364-74.034-170.364-163.71s73.944-163.332,170.364-163.332"/>
		<path fill="#FF3008" d="M1408.125,1923.813h-69.492v82.956h69.492c22.494,1.038,41.58-16.367,42.624-38.855
			c0.018-0.492,0.036-0.972,0.042-1.452c0.792-22.764-17.022-41.868-39.786-42.648
			C1410.039,1923.784,1409.085,1923.784,1408.125,1923.813 M1271.337,1871.38c0-4.326,3.504-7.83,7.824-7.83h130.926
			c62.616,0,107.61,45.78,107.61,103.225c0.378,38.808-21.36,74.43-56.034,91.872l60.414,106.745
			c2.388,3.612,1.404,8.454-2.19,10.849c-1.452,0.966-3.18,1.416-4.926,1.29h-52.979c-2.982,0.065-5.748-1.578-7.129-4.225
			l-58.224-105.647h-58.302v101.735c0,4.326-3.504,7.83-7.824,7.83h-51.023c-4.326,0-7.83-3.504-7.83-7.83L1271.337,1871.38z"/>
		<path fill="#FF3008" d="M1693.071,1925.302v192.828h49.535c52.537-0.732,94.561-43.878,93.9-96.414
			c1.374-51.846-39.527-94.992-91.374-96.378c-0.846-0.03-1.68-0.036-2.532-0.036H1693.071z M1742.606,1864.726
			c91.944,0,161.521,69.486,161.521,156.979c0,87.498-69.576,156.983-161.521,156.983h-108.701c-4.326,0-7.83-3.504-7.83-7.823
			v-298.32c0-4.332,3.504-7.83,7.83-7.83L1742.606,1864.726L1742.606,1864.726z"/>
		<path fill="#FF3008" d="M2108.919,1941.418l-38.112,103.296h76.218L2108.919,1941.418z M2048.36,2102.866l-24.971,68.628
			c-1.093,3.365-4.291,5.573-7.83,5.399h-53.838c-4.309,0.402-8.125-2.754-8.532-7.062c-0.126-1.386,0.12-2.796,0.696-4.063
			l117-297.378c1.17-3.27,4.367-5.376,7.823-5.166h60.647c3.457-0.197,6.654,1.896,7.837,5.166l116.897,297.378
			c1.849,3.912,0.15,8.58-3.762,10.404c-1.266,0.6-2.658,0.846-4.057,0.708h-54.149c-3.54,0.162-6.737-2.046-7.83-5.4l-24.96-68.628
			L2048.36,2102.866L2048.36,2102.866z"/>
		<path fill="#FF3008" d="M2326.797,1948.144c0-49.374,42.636-91.949,109.944-91.949c36.06-0.877,71.04,12.287,97.596,36.695
			c3.126,3.198,3.126,8.311,0,11.508l-30.294,30.204c-3.048,3.072-7.992,3.091-11.063,0.048c-0.024-0.018-0.043-0.029-0.055-0.048
			c-14.22-12.96-32.712-20.256-51.954-20.508c-26.928,0-46.956,15.648-46.956,33.648c0,58.308,159.096,24.647,159.096,136.8
			c0,56.033-42.635,98.609-118.877,98.609c-42.379,0.511-83.202-15.876-113.473-45.552c-3.125-3.186-3.125-8.31,0-11.502
			l29.04-28.956c3-3.114,7.944-3.197,11.064-0.204c0.071,0.078,0.138,0.139,0.198,0.204c18.468,17.7,42.983,27.69,68.556,27.937
			c33.653,0,55.878-17.994,55.878-40.374c0-58.303-159.012-24.643-159.012-136.794"/>
		<path fill="#FF3008" d="M2841.711,1871.067v117.379H2707.19v-117.379c0-4.338-3.504-7.842-7.83-7.842h-51.342
			c-4.319,0-7.823,3.504-7.823,7.842v297.373c0,4.338,3.504,7.836,7.823,7.836h51.036c4.314,0,7.818-3.498,7.818-7.836v-119.736
			h134.532v119.729c0,4.338,3.504,7.836,7.83,7.836h51.582c4.313,0,7.817-3.498,7.817-7.836v-297.372
			c0-4.338-3.504-7.842-7.817-7.842h-51.037c-4.319-0.126-7.92,3.271-8.058,7.596
			C2841.723,1870.9,2841.711,1870.978,2841.711,1871.067z"/>
		<path fill="#FF3008" d="M2015.721,987.063c-56.237-105.588-166.254-171.39-285.876-170.987H824.409
			c-17.286,0.239-31.104,14.448-30.858,31.733c0.114,8.046,3.313,15.738,8.94,21.48l197.214,198.378
			c17.405,17.526,41.106,27.378,65.813,27.384h638.346c45.36-3.234,84.738,30.906,87.984,76.254
			c3.234,45.36-30.894,84.744-76.266,87.979c-3.318,0.239-6.654,0.275-9.996,0.113h-440.352
			c-17.286,0.204-31.141,14.376-30.937,31.656c0.09,8.076,3.294,15.798,8.94,21.559l197.292,198.378
			c17.411,17.531,41.112,27.384,65.813,27.39h198.924c258.961,0,454.758-276.792,310.129-551.556"/>
	</g>
</g>
</svg>
