<?xml version="1.0" encoding="utf-8"?>
<!-- Generator: Adobe Illustrator 28.0.0, SVG Export Plug-In . SVG Version: 6.00 Build 0)  -->
<svg version="1.1" id="Слой_1" xmlns="http://www.w3.org/2000/svg" xmlns:xlink="http://www.w3.org/1999/xlink" x="0px" y="0px"
	 viewBox="0 0 1000 485.5273132" enable-background="new 0 0 1000 485.5273132" xml:space="preserve">
<path fill="#FF3008" d="M41.3927612,371.6929932c32.6340332,0,57.3050766,24.6947327,57.3050766,55.724762
	c0,31.0253906-24.6710434,55.7199707-57.3050766,55.7199707H2.7800286C1.2472215,483.1377258,0,481.8954468,0,480.3580017
	V374.8059692c0-1.5374756,1.2472215-2.7797546,2.7800286-2.7797546L41.3927612,371.6929932z M23.8904076,393.1936951v68.4719543
	h17.5023537c18.6589355-0.2571106,33.5764923-15.5888062,33.3289642-34.2478943
	c0.4904099-18.4067383-14.0273895-33.7194214-32.4295006-34.2096863c-0.2998199-0.0095825-0.5996399-0.0143738-0.8994637-0.0143738
	H23.8904076z"/>
<path fill="#FF3008" d="M182.9173889,369.3320618c34.2240753,0,60.4706421,26.2511902,60.4706421,58.0856934
	c0,31.8298645-26.2465668,58.1095581-60.4706421,58.1095581s-60.4988098-26.2796936-60.4988098-58.1095581
	c0-31.8345032,26.2509155-57.9761658,60.4988098-57.9761658 M182.9173889,464.0266113
	c20.2202148,0,36.6089935-16.39328,36.6089935-36.6088562c0-20.2202148-16.3887787-36.6134949-36.6089935-36.6134949
	s-36.6086884,16.39328-36.6086884,36.6134949C146.3371735,447.6237488,162.7114258,463.9979858,182.9173889,464.0266113"/>
<path fill="#FF3008" d="M326.7223511,369.3320618c34.2478943,0,60.4988098,26.2511902,60.4988098,58.0856934
	c0,31.8298645-26.2509155,58.1095581-60.4988098,58.1095581s-60.4706421-26.2796936-60.4706421-58.1095581
	c0-31.8345032,26.246582-57.9761658,60.4706421-57.9761658 M326.7223511,464.0266113
	c20.2202148,0.0142212,36.6229248-16.3648071,36.6371765-36.585022
	c0.019165-20.2155762-16.3597412-36.6230774-36.5802307-36.6373291
	c-20.2202148-0.0143738-36.6229248,16.3646851-36.6421204,36.585022v0.0284729
	C290.1705933,447.6094971,306.5256653,463.9789734,326.7223511,464.0266113"/>
<path fill="#FF3008" d="M418.8322754,374.5822449c0-1.5326538,1.2422791-2.7797241,2.7797241-2.7797241h46.471405
	c22.2193298,0,38.1938171,16.2504883,38.1938171,36.6421204c0.1333313,13.7752075-7.5827026,26.4224548-19.8869934,32.6103516
	l21.4436035,37.8893127c0.8471985,1.2756958,0.4997253,3.0034485-0.7806091,3.850769
	c-0.5142517,0.3426514-1.1281128,0.4998474-1.7469482,0.452179h-18.8067932
	c-1.0612793,0.0238342-2.0418091-0.5569153-2.5272827-1.4993896l-20.6679077-37.4988708H442.612854v36.1090088
	c0,1.5374451-1.2472229,2.7797241-2.7797546,2.7797241h-18.1115723c-1.5328064,0-2.7750854-1.2422791-2.7750854-2.7797241
	L418.8322754,374.5822449z M467.3884888,393.1936951h-24.6661072v29.4450989h24.6661072
	c7.9824524,0.3664856,14.7557373-5.8071594,15.1223755-13.7896118c0.0093079-0.1712646,0.0142212-0.3426819,0.0142212-0.5188904
	c0.285614-8.0775757-6.0402832-14.8556519-14.1180115-15.1365967
	C468.0691833,393.1842346,467.7263794,393.1842346,467.3884888,393.1936951"/>
<path fill="#FF3008" d="M586.1101685,372.2208862c32.638916,0,57.3334961,24.6661072,57.3334961,55.724762
	c0,31.0540161-24.6945801,55.7199707-57.3334961,55.7199707h-38.5842896c-1.5325317,0-2.7747803-1.2422791-2.7747803-2.7797241
	V375.0007629c0-1.5374451,1.2422485-2.7798767,2.7747803-2.7798767H586.1101685z M568.5270386,393.7215881v68.4433289h17.5831299
	c18.6495972-0.256958,33.5671997-15.5697937,33.3338623-34.2192688
	c0.4904175-18.4067688-14.0322876-33.7194214-32.4341431-34.2144775c-0.2998047-0.0047913-0.5999146-0.0095825-0.8997192-0.0095825
	H568.5270386z"/>
<path fill="#FF3008" d="M694.6370239,456.7486877l-8.8580933,24.3613281
	c-0.3905029,1.1947937-1.5281982,1.9802246-2.7800293,1.918335h-19.1110229
	c-1.5281372,0.1427917-2.8845825-0.9758606-3.0272217-2.5037231c-0.0476685-0.4950562,0.0380249-0.9949036,0.2471924-1.4423218
	l41.5307617-105.5566711c0.4140015-1.1567383,1.5470581-1.9039612,2.7750854-1.8326416h21.5293579
	c1.2280273-0.0713196,2.3607788,0.6759033,2.7797241,1.8326416l41.4973755,105.5566711
	c0.6519165,1.3898621,0.0522461,3.0416565-1.3329468,3.6937256c-0.4520874,0.2094727-0.9471436,0.295166-1.4421997,0.2523193
	h-19.2254028c-1.2518921,0.0618896-2.3895874-0.7235413-2.7750854-1.918335l-8.8630371-24.3613281H694.6370239z
	 M716.1378784,399.4436035l-13.52771,36.6657715h27.0553589L716.1378784,399.4436035z"/>
<path fill="#FF3008" d="M793.4708252,401.8325806c0-17.5261841,15.1365967-32.6389771,39.0270386-32.6389771
	c12.7993164-0.3093872,25.2180786,4.3648376,34.6380615,13.0279846c1.1138306,1.1327515,1.1138306,2.9511719,0,4.0840454
	l-10.7479858,10.7193604c-1.0804443,1.0900269-2.8416138,1.0996094-3.927002,0.0190125
	c-0.0095825-0.0047913-0.0142212-0.0094299-0.0189209-0.0190125c-5.0504761-4.5981445-11.6142578-7.1875916-18.4447632-7.2779541
	c-9.5533447,0-16.6647949,5.5596313-16.6647949,11.9475403c0,20.6914368,56.472168,8.7487183,56.472168,48.5562134
	c0,19.887146-15.1416016,34.999939-42.1969604,34.999939c-15.041626,0.1808472-29.5355835-5.6357422-40.2739258-16.1695862
	c-1.1138916-1.1329041-1.1138916-2.9463501,0-4.0840454l10.3051758-10.2767334
	c1.0615845-1.1042786,2.8227539-1.1375427,3.927002-0.0713196c0.0238037,0.0236816,0.0476685,0.0475159,0.0714722,0.0713196
	c6.5542603,6.2831726,15.2554321,9.8293152,24.3328857,9.9198303c11.9425659,0,19.8346558-6.3927002,19.8346558-14.3370972
	c0-20.6914368-56.4436646-8.7487183-56.4436646-48.5562134"/>
<path fill="#FF3008" d="M976.2478638,374.4714355v41.6686096h-47.7520142v-41.6686096
	c0-1.5326843-1.2423096-2.7799072-2.7748413-2.7799072H907.499939c-1.5374756,0-2.7800293,1.2472229-2.7800293,2.7799072
	v105.5566711c0,1.5326538,1.2425537,2.7750854,2.7800293,2.7750854h18.1115723c1.5325317,0,2.7750854-1.2424316,2.7750854-2.7750854
	v-42.5015564h47.75177v42.5015564c0,1.5326538,1.2422485,2.7750854,2.7750854,2.7750854h18.3068237
	c1.5325317,0,2.7797241-1.2424316,2.7797241-2.7750854V374.4714355c0-1.5326843-1.2471924-2.7799072-2.7797241-2.7799072
	h-18.1115723c-1.5328369-0.0428467-2.8131714,1.1615295-2.8608398,2.6941833
	C976.2478638,374.4143372,976.2478638,374.4428101,976.2478638,374.4714355"/>
<path fill="#FF3008" d="M683.0546875,60.6948433c-19.9584961-37.4750443-59.0139771-60.8369865-101.4726562-60.694191H260.1948547
	c-6.1355743,0.0857047-11.0384674,5.1312428-10.9527588,11.2668295c0.0380554,2.8560009,1.1757507,5.5834436,3.1748505,7.6207476
	l69.9998322,70.4186249c6.1832275,6.2212906,14.5892639,9.7199326,23.3619385,9.7199326h226.5832214
	c16.0982666-1.1471405,30.0783081,10.9716568,31.2252808,27.0697556
	c1.1519165,16.0982513-10.9667358,30.0781403-27.0649414,31.2252808c-1.1804199,0.0857086-2.3657837,0.1000824-3.5510864,0.038208
	H416.6687317c-6.1402283,0.0713196-11.0527344,5.1026154-10.9859009,11.238205
	c0.0331116,2.865448,1.1708069,5.607132,3.1795044,7.6540222l70.028595,70.4139709
	c6.1782837,6.221283,14.5892639,9.7197876,23.3569946,9.7245789h70.6140137
	c91.9146729,0,161.4144897-98.2502899,110.0831909-195.776886"/>
</svg>
